<?xml version="1.0" encoding="utf-8"?>
<!-- Generator: Adobe Illustrator 22.0.0, SVG Export Plug-In . SVG Version: 6.00 Build 0)  -->
<svg version="1.1" id="Capa_1" xmlns="http://www.w3.org/2000/svg" xmlns:xlink="http://www.w3.org/1999/xlink" x="0px" y="0px"
	 viewBox="0 0 73.4 190.6" style="enable-background:new 0 0 73.4 190.6;" xml:space="preserve">
<g>
	<path d="M35.2,61.1c0,9.5-10.3,14.3-30.8,14.5v43.1c13.2-0.2,24.7-2.6,34.4-7.4c10-4.9,17.7-11.7,22.9-20.4
		c5.3-8.7,7.9-18.7,7.9-29.9c0-11.3-2.6-21.3-7.9-29.9c-5.3-8.7-12.9-15.5-22.9-20.4C29.1,6,17.6,3.6,4.4,3.4v43.1
		C24.9,46.7,35.2,51.6,35.2,61.1z"/>
	<polygon points="66.7,187.9 66.7,123.1 34.3,123.1 34.3,145 4.4,145 4.4,187.9 	"/>
</g>
</svg>
