<?xml version="1.0" encoding="utf-8"?>
<!-- Generator: Adobe Illustrator 22.0.0, SVG Export Plug-In . SVG Version: 6.00 Build 0)  -->
<svg version="1.1" id="Capa_1" xmlns="http://www.w3.org/2000/svg" xmlns:xlink="http://www.w3.org/1999/xlink" x="0px" y="0px"
	 viewBox="0 0 79.1 61" style="enable-background:new 0 0 79.1 61;" xml:space="preserve">
<style type="text/css">
	.st0{fill:#5E5E5E;}
</style>
<g>
	<path class="st0" d="M7.1,13.6c0,0.2-0.1,0.4-0.2,0.5s-0.2,0.3-0.3,0.4s-0.3,0.2-0.4,0.3S5.8,15,5.6,15c-0.3,0-0.5-0.1-0.6-0.2
		s-0.2-0.4-0.2-0.6c0-0.2,0-0.4,0.1-0.6s0.2-0.3,0.3-0.5s0.3-0.3,0.5-0.3s0.4-0.1,0.6-0.1c0.3,0,0.5,0.1,0.6,0.2s0.2,0.3,0.2,0.6
		c0,0,0,0.1,0,0.1S7.1,13.6,7.1,13.6z M9.1,9.8c0,0.2-0.1,0.3-0.2,0.5s-0.2,0.3-0.3,0.4S8.3,10.9,8.1,11C8,11,7.8,11.1,7.6,11.1
		c-0.3,0-0.5-0.1-0.6-0.2s-0.2-0.4-0.2-0.6c0-0.2,0-0.4,0.1-0.6s0.2-0.3,0.4-0.5s0.3-0.3,0.5-0.3s0.4-0.1,0.6-0.1
		c0.3,0,0.4,0.1,0.6,0.2s0.2,0.3,0.2,0.6c0,0,0,0.1,0,0.1S9.1,9.7,9.1,9.8z"/>
	<path class="st0" d="M14.2,13.6c0,0.2-0.1,0.4-0.2,0.5s-0.2,0.3-0.3,0.4s-0.3,0.2-0.4,0.3S13,15,12.8,15c-0.3,0-0.5-0.1-0.6-0.2
		s-0.2-0.4-0.2-0.6c0-0.2,0-0.4,0.1-0.6s0.2-0.3,0.3-0.5s0.3-0.3,0.5-0.3s0.4-0.1,0.6-0.1c0.3,0,0.5,0.1,0.6,0.2s0.2,0.3,0.2,0.6
		c0,0,0,0.1,0,0.1S14.3,13.6,14.2,13.6z M16.3,9.8c0,0.2-0.1,0.3-0.2,0.5s-0.2,0.3-0.3,0.4s-0.3,0.2-0.5,0.3s-0.3,0.1-0.5,0.1
		c-0.3,0-0.5-0.1-0.6-0.2s-0.2-0.4-0.2-0.6c0-0.2,0-0.4,0.1-0.6s0.2-0.3,0.4-0.5s0.3-0.3,0.5-0.3s0.4-0.1,0.6-0.1
		c0.3,0,0.4,0.1,0.6,0.2c0.1,0.1,0.2,0.3,0.2,0.6c0,0,0,0.1,0,0.1S16.3,9.7,16.3,9.8z"/>
	<path class="st0" d="M26.8,12.3c-0.1,0.1-0.2,0.2-0.4,0.4s-0.4,0.4-0.6,0.6s-0.5,0.4-0.7,0.6s-0.5,0.4-0.8,0.6s-0.5,0.3-0.8,0.4
		S23,15,22.8,15c-0.2,0-0.4,0-0.5-0.1s-0.3-0.2-0.4-0.3s-0.2-0.3-0.2-0.5s-0.1-0.4-0.1-0.5c0-0.1,0-0.2,0-0.4s0-0.2,0.1-0.3
		c-0.2,0.2-0.4,0.5-0.6,0.8s-0.5,0.5-0.7,0.7s-0.5,0.4-0.8,0.5S18.9,15,18.6,15c-0.2,0-0.3,0-0.5-0.1s-0.4-0.2-0.6-0.3
		s-0.3-0.3-0.5-0.5s-0.2-0.5-0.2-0.8c0-0.2,0-0.5,0.1-0.9s0.2-0.7,0.3-1s0.3-0.7,0.6-1.1s0.5-0.7,0.8-0.9s0.7-0.5,1.1-0.7
		s0.9-0.3,1.4-0.3c0.3,0,0.5,0,0.7,0.1s0.4,0.1,0.5,0.2c0.2,0.1,0.3,0.2,0.4,0.3C22.8,9,22.9,8.9,23,8.9c0.1,0,0.2-0.1,0.3-0.1
		s0.2,0,0.3,0c0.2,0,0.4,0.1,0.5,0.2s0.2,0.3,0.2,0.4c0,0,0,0.1,0,0.1c0,0.1-0.1,0.3-0.1,0.4s-0.1,0.4-0.2,0.6s-0.2,0.4-0.2,0.7
		s-0.2,0.4-0.2,0.7s-0.1,0.4-0.2,0.6s-0.1,0.4-0.1,0.5c0,0.2,0,0.3,0.1,0.4s0.2,0.2,0.3,0.2c0.1,0,0.2,0,0.3-0.1s0.3-0.1,0.4-0.2
		s0.3-0.2,0.4-0.3s0.3-0.2,0.4-0.4c0.3-0.3,0.7-0.6,1-1c0.1-0.1,0.2-0.1,0.3-0.1c0.1,0,0.2,0.1,0.3,0.2s0.1,0.2,0.1,0.4
		C27,12,26.9,12.2,26.8,12.3z M20.7,10c-0.3,0-0.5,0.1-0.8,0.2s-0.5,0.3-0.7,0.6s-0.4,0.5-0.5,0.8s-0.2,0.6-0.2,0.9
		c0,0.1,0,0.2,0,0.4s0,0.2,0.1,0.3s0.1,0.2,0.2,0.3s0.2,0.1,0.4,0.1c0.1,0,0.3-0.1,0.5-0.2s0.4-0.3,0.5-0.4s0.4-0.4,0.5-0.6
		s0.3-0.4,0.5-0.6s0.3-0.4,0.3-0.6s0.1-0.3,0.1-0.4c0-0.1,0-0.2-0.1-0.3s-0.2-0.2-0.3-0.2s-0.2-0.1-0.4-0.1S20.8,10,20.7,10z"/>
	<path class="st0" d="M32,9.8c-0.3,0-0.6,0-0.9,0s-0.5,0-0.8,0s-0.5,0-0.8,0s-0.5,0-0.8,0c-0.2,0.3-0.3,0.6-0.5,1s-0.4,0.8-0.6,1.2
		S27.2,13,27,13.5s-0.4,0.9-0.6,1.3s-0.4,0.8-0.5,1.1s-0.3,0.6-0.4,0.8c-0.1,0.1-0.1,0.3-0.2,0.4s-0.2,0.2-0.3,0.3s-0.2,0.1-0.3,0.2
		s-0.2,0.1-0.3,0.1c-0.1,0-0.3,0-0.4-0.1s-0.2-0.2-0.2-0.3c0-0.1,0-0.2,0.1-0.3s0.1-0.2,0.1-0.4l3.1-6.6h-0.5c-0.3,0-0.5,0-0.7-0.1
		s-0.2-0.2-0.2-0.4c0-0.1,0.1-0.3,0.2-0.4s0.4-0.2,0.6-0.2h1c0.4-0.8,0.8-1.5,1.3-2.1s0.8-1,1.2-1.3s0.8-0.5,1.2-0.7
		s0.8-0.2,1.1-0.2c0.2,0,0.3,0,0.5,0.1s0.3,0.2,0.4,0.3s0.2,0.3,0.3,0.5s0.1,0.4,0.1,0.7c0,0.3,0,0.5-0.1,0.8c0,0.1-0.1,0.2-0.1,0.2
		s-0.1,0.1-0.2,0.1s-0.1,0.1-0.2,0.1s-0.1,0-0.2,0c-0.1,0-0.2,0-0.3-0.1S32.5,7.1,32.5,7c0-0.1,0-0.1,0-0.2s0-0.1,0-0.2
		c0-0.2,0-0.4-0.1-0.5S32.2,5.9,32,5.9c-0.2,0-0.4,0.1-0.6,0.2s-0.5,0.4-0.7,0.6s-0.5,0.6-0.7,0.9c-0.2,0.3-0.4,0.7-0.6,1h2
		c0.2,0,0.4,0,0.5,0c0.2,0,0.3,0,0.4,0.1s0.2,0.1,0.3,0.1s0.1,0.2,0.1,0.3c0,0.1,0,0.1,0,0.2s-0.1,0.1-0.1,0.2s-0.1,0.1-0.2,0.1
		S32.1,9.8,32,9.8z"/>
	<path class="st0" d="M33,9.9c-0.2,0.4-0.4,0.8-0.6,1.2s-0.4,0.8-0.5,1.1c-0.1,0.1-0.1,0.3-0.2,0.5s-0.1,0.3-0.1,0.5
		c0,0.1,0,0.1,0.1,0.2s0.1,0.1,0.2,0.1c0.1,0,0.3,0,0.5-0.1s0.4-0.2,0.6-0.3s0.4-0.3,0.7-0.4s0.5-0.3,0.7-0.5s0.5-0.3,0.7-0.5
		s0.4-0.3,0.6-0.5c0.1-0.1,0.2-0.1,0.3-0.1c0.1,0,0.2,0,0.2,0.1s0.1,0.2,0.1,0.3s0,0.3-0.1,0.4s-0.2,0.3-0.4,0.4
		c-0.4,0.3-0.8,0.7-1.2,1s-0.8,0.6-1.2,0.8s-0.8,0.4-1.1,0.6C31.8,15,31.4,15,31,15c-0.2,0-0.4,0-0.6-0.1s-0.3-0.1-0.4-0.3
		s-0.2-0.2-0.2-0.4s-0.1-0.3-0.1-0.5c0-0.3,0-0.6,0.1-0.9s0.2-0.6,0.3-0.9c0.2-0.4,0.4-0.7,0.5-1.1s0.3-0.7,0.5-1h-0.4
		c-0.3,0-0.6-0.1-0.7-0.2s-0.2-0.2-0.2-0.4c0-0.1,0-0.1,0.1-0.2s0.1-0.2,0.2-0.2s0.2-0.1,0.3-0.2s0.2-0.1,0.4-0.1h0.9l1.9-3.7
		c0.1-0.2,0.3-0.4,0.4-0.5s0.4-0.1,0.5-0.1c0.2,0,0.3,0,0.5,0.1s0.2,0.2,0.2,0.5c0,0.1,0,0.2-0.1,0.3s-0.1,0.2-0.2,0.4
		C35.1,5.9,35,6,34.9,6.1s-0.2,0.3-0.2,0.4s-0.2,0.3-0.3,0.5s-0.2,0.3-0.3,0.5c-0.2,0.4-0.4,0.8-0.6,1.2h2.9c0.1,0,0.3,0,0.4,0
		s0.2,0,0.3,0.1s0.2,0.1,0.2,0.2s0.1,0.2,0.1,0.3c0,0.1,0,0.1,0,0.2s-0.1,0.1-0.1,0.2S37.1,9.8,37,9.8s-0.2,0.1-0.4,0.1L33,9.9z"/>
	<path class="st0" d="M38.9,8.4c0.5,0,0.8,0.1,1.1,0.4s0.4,0.6,0.4,1c0,0.2-0.1,0.5-0.2,0.8s-0.4,0.5-0.7,0.8s-0.7,0.6-1.3,0.9
		s-1.2,0.6-2,0.9c0,0.2,0.1,0.3,0.3,0.4s0.4,0.1,0.6,0.1c0.3,0,0.6,0,0.9-0.1s0.6-0.2,0.9-0.3s0.6-0.3,0.9-0.4s0.5-0.3,0.8-0.4
		s0.4-0.2,0.6-0.3s0.3-0.2,0.3-0.2c0.1,0,0.1-0.1,0.1-0.1s0.1,0,0.1,0c0.1,0,0.1,0,0.2,0S42,11.9,42,12s0.1,0.1,0.1,0.1s0,0.1,0,0.1
		c0,0.1,0,0.1,0,0.2S42,12.6,42,12.7c0,0-0.1,0.1-0.3,0.2s-0.4,0.3-0.6,0.5s-0.6,0.4-0.9,0.6s-0.7,0.4-1.1,0.5s-0.8,0.3-1.2,0.4
		S36.9,15,36.5,15c-0.4,0-0.7-0.1-0.9-0.2s-0.5-0.3-0.7-0.5s-0.3-0.5-0.4-0.8s-0.1-0.6-0.1-0.9c0-0.3,0-0.5,0.1-0.8s0.2-0.6,0.4-0.9
		s0.4-0.6,0.7-0.9s0.6-0.5,0.9-0.8s0.7-0.4,1.1-0.5S38.5,8.4,38.9,8.4z M38.6,9.6C38.6,9.6,38.6,9.6,38.6,9.6c-0.1,0-0.1,0-0.2,0
		c-0.2,0-0.4,0-0.6,0.1s-0.4,0.2-0.5,0.3s-0.3,0.3-0.4,0.5s-0.2,0.4-0.3,0.5s-0.2,0.4-0.3,0.5s-0.1,0.3-0.2,0.4
		c0.2-0.1,0.4-0.2,0.6-0.4s0.4-0.3,0.6-0.4s0.4-0.2,0.5-0.3s0.2-0.2,0.3-0.2c0.3-0.2,0.4-0.3,0.5-0.5s0.1-0.3,0.1-0.4
		c0-0.1,0-0.2-0.1-0.2S38.7,9.6,38.6,9.6z"/>
	<path class="st0" d="M44.2,9.7c0.2-0.1,0.5-0.3,0.7-0.4s0.5-0.2,0.7-0.3s0.4-0.2,0.7-0.2s0.4-0.1,0.6-0.1c0.3,0,0.5,0.1,0.6,0.2
		s0.2,0.3,0.2,0.6c0,0.1,0,0.1,0,0.2s0,0.2,0,0.2c0,0.2-0.1,0.3-0.3,0.5s-0.3,0.4-0.5,0.6s-0.4,0.4-0.6,0.7s-0.4,0.4-0.6,0.6
		s-0.3,0.4-0.5,0.5s-0.2,0.2-0.2,0.3c0,0,0,0.1,0,0.1s0,0,0.1,0c0.3-0.1,0.7-0.3,1.1-0.5s0.8-0.4,1.2-0.6s0.8-0.4,1.1-0.6
		s0.6-0.4,0.9-0.5c0.1,0,0.1-0.1,0.2-0.1s0.1,0,0.2,0c0.1,0,0.2,0,0.3,0.1s0.1,0.2,0.1,0.3c0,0.1-0.1,0.3-0.2,0.5s-0.3,0.4-0.6,0.5
		c-0.2,0.1-0.4,0.3-0.7,0.4s-0.5,0.3-0.8,0.5s-0.6,0.3-0.8,0.5s-0.6,0.3-0.8,0.4s-0.5,0.2-0.7,0.3s-0.4,0.1-0.6,0.1
		c-0.4,0-0.7-0.1-0.9-0.3s-0.3-0.4-0.3-0.7c0,0,0-0.1,0-0.1c0-0.3,0.1-0.5,0.2-0.7s0.2-0.5,0.4-0.7s0.3-0.4,0.4-0.6s0.3-0.4,0.4-0.6
		s0.2-0.3,0.3-0.5s0.1-0.3,0.1-0.4c0,0,0-0.1,0-0.1s0,0-0.1,0c-0.1,0-0.2,0-0.3,0.1s-0.3,0.1-0.5,0.2s-0.4,0.2-0.5,0.3
		s-0.3,0.2-0.4,0.4c-0.1,0.2-0.2,0.4-0.3,0.6s-0.3,0.5-0.4,0.8s-0.3,0.5-0.4,0.8s-0.2,0.5-0.3,0.7c-0.1,0.2-0.2,0.3-0.3,0.5
		s-0.2,0.2-0.4,0.3s-0.3,0.2-0.4,0.2S40.8,15,40.7,15c-0.1,0-0.2,0-0.3-0.1s-0.1-0.2-0.1-0.3c0-0.1,0-0.1,0-0.2s0.1-0.2,0.1-0.3
		c0.1-0.2,0.2-0.4,0.3-0.7s0.2-0.5,0.4-0.8s0.3-0.6,0.5-1s0.4-0.8,0.7-1.3c-0.1-0.1-0.2-0.2-0.2-0.3s-0.1-0.2-0.1-0.4
		c0-0.1,0-0.3,0.1-0.4s0.1-0.2,0.2-0.3s0.2-0.1,0.3-0.1s0.3,0,0.4,0c0.2,0,0.3,0,0.5,0s0.3,0.1,0.4,0.1s0.2,0.1,0.3,0.2
		s0.1,0.2,0.1,0.3c0,0,0,0,0,0.1s0,0.1,0,0.1S44.2,9.6,44.2,9.7C44.2,9.6,44.2,9.7,44.2,9.7C44.2,9.7,44.2,9.7,44.2,9.7L44.2,9.7
		L44.2,9.7z"/>
	<path class="st0" d="M60,1.6c0.1,0,0.1,0,0.2,0.1s0.1,0.1,0.1,0.2c0,0.1,0,0.2-0.1,0.3S60.1,2.4,60,2.5s-0.2,0.2-0.3,0.2
		s-0.3,0.1-0.4,0.1c-0.4,0-0.7,0-1,0.1S57.8,3,57.7,3.1s-0.3,0.3-0.5,0.5S56.9,4,56.8,4.3l-1.3,2.4c-0.2,0.4-0.4,0.7-0.6,1
		c-0.2,0.2-0.3,0.4-0.5,0.6s-0.3,0.2-0.5,0.3s-0.4,0.1-0.7,0.1c0.1,0.1,0.2,0.3,0.3,0.4s0.1,0.3,0.1,0.5c0,0.2,0,0.4-0.1,0.6
		s-0.2,0.4-0.3,0.7l-1.9,3.6c-0.1,0.1-0.1,0.2-0.1,0.3c0,0.2,0.1,0.3,0.4,0.4s0.6,0.1,1,0.1c0.1,0,0.2,0,0.3,0.1s0.1,0.2,0.1,0.3
		s0,0.2-0.1,0.3s-0.1,0.2-0.2,0.3s-0.2,0.2-0.3,0.2s-0.3,0.1-0.4,0.1c-0.7,0-1.3-0.1-1.6-0.3s-0.6-0.5-0.6-1c0-0.1,0-0.1,0-0.2
		s0-0.1,0-0.2c0-0.1,0-0.2,0.1-0.2s0.1-0.2,0.1-0.3s0.1-0.2,0.2-0.4s0.2-0.4,0.3-0.6s0.3-0.6,0.5-1s0.5-0.9,0.7-1.4
		c0.1-0.2,0.2-0.4,0.3-0.6s0.1-0.4,0.1-0.6c0-0.1,0-0.2-0.1-0.3s-0.2-0.1-0.4-0.1c-0.1,0-0.2,0-0.3-0.1S51.2,9.1,51.2,9
		c0-0.1,0-0.2,0.1-0.3s0.1-0.2,0.2-0.3s0.2-0.2,0.3-0.2s0.3-0.1,0.5-0.1c0.2,0,0.4,0,0.5-0.1s0.3-0.1,0.5-0.3s0.3-0.3,0.4-0.5
		S53.9,7,54,6.7L55.4,4c0.3-0.5,0.5-0.9,0.8-1.3S56.7,2.2,57,2s0.6-0.3,1-0.4s0.8-0.1,1.4-0.1L60,1.6z"/>
	<path class="st0" d="M7.9,30.8c0,0.2,0,0.4-0.1,0.6s-0.1,0.4-0.2,0.6s-0.2,0.4-0.4,0.5s-0.3,0.2-0.5,0.2c-0.1,0-0.2,0-0.2-0.1
		s0-0.1,0-0.2c0-0.1,0-0.1,0-0.2s0-0.2,0-0.3c0-0.1,0-0.2,0-0.3s-0.1-0.1-0.2-0.1c-0.1,0-0.3,0.1-0.5,0.2S5.4,32,5.2,32.1
		s-0.3,0.4-0.5,0.6s-0.3,0.4-0.4,0.6S4.1,33.8,4,34s-0.1,0.4-0.1,0.5c0,0.2,0.1,0.4,0.2,0.5s0.3,0.2,0.6,0.2c0.3,0,0.5,0,0.8-0.1
		s0.6-0.2,0.9-0.3s0.6-0.3,0.9-0.4s0.5-0.3,0.8-0.5c0.2-0.1,0.4-0.3,0.6-0.4s0.3-0.2,0.3-0.2c0.1,0,0.2-0.1,0.3-0.1
		c0.1,0,0.1,0,0.2,0s0.1,0.1,0.1,0.1s0,0.1,0.1,0.1s0,0.1,0,0.1c0,0.1,0,0.1,0,0.2S9.5,33.9,9.4,34c0,0-0.1,0.1-0.3,0.3
		s-0.4,0.3-0.6,0.5s-0.5,0.4-0.9,0.6S6.9,35.8,6.5,36s-0.8,0.3-1.2,0.5s-0.8,0.2-1.2,0.2c-0.3,0-0.6,0-0.8-0.1S3,36.3,2.8,36.1
		s-0.3-0.4-0.4-0.6s-0.1-0.4-0.1-0.7c0-0.3,0.1-0.6,0.2-0.9s0.3-0.7,0.5-1.1s0.5-0.7,0.8-1.1s0.6-0.7,1-0.9s0.7-0.5,1.1-0.7
		S6.6,30,6.9,30c0.1,0,0.3,0,0.4,0s0.2,0.1,0.3,0.1s0.2,0.1,0.2,0.3S7.9,30.7,7.9,30.8z"/>
	<path class="st0" d="M12.4,30c0.2,0,0.5,0,0.7,0.1s0.5,0.2,0.7,0.3s0.4,0.3,0.5,0.6s0.2,0.5,0.2,0.9c0,0.2,0,0.4-0.1,0.6
		s-0.1,0.5-0.2,0.7c0.1,0.1,0.1,0.1,0.2,0.1s0.2,0,0.2,0c0.1,0,0.3,0,0.4-0.1s0.3-0.2,0.5-0.3s0.3-0.2,0.5-0.4
		c0.2-0.1,0.3-0.3,0.4-0.4s0.3-0.3,0.4-0.4s0.2-0.2,0.3-0.3c0,0,0.1-0.1,0.1-0.1c0.1,0,0.2,0,0.2,0.1s0.1,0.2,0.1,0.4s0,0.3-0.1,0.5
		S17.3,32.8,17,33c-0.1,0.2-0.3,0.3-0.5,0.5s-0.4,0.4-0.6,0.6c-0.2,0.2-0.4,0.3-0.6,0.4s-0.4,0.2-0.7,0.2c-0.2,0-0.3,0-0.4-0.1
		s-0.3-0.1-0.4-0.2c-0.2,0.3-0.5,0.6-0.7,0.9s-0.6,0.5-0.9,0.7s-0.7,0.3-1.1,0.5s-0.8,0.2-1.2,0.2c-0.2,0-0.4,0-0.6-0.1
		s-0.4-0.2-0.6-0.3s-0.4-0.3-0.5-0.6S8,35.1,8,34.8c0-0.2,0-0.5,0.1-0.8s0.2-0.7,0.3-1s0.4-0.7,0.6-1s0.5-0.7,0.8-0.9
		s0.7-0.5,1.1-0.7S11.9,30,12.4,30z M12,31.6c-0.3,0-0.5,0.1-0.8,0.2s-0.5,0.3-0.7,0.5s-0.4,0.5-0.5,0.8S9.8,33.7,9.8,34
		c0,0.1,0,0.2,0,0.4s0.1,0.3,0.1,0.4s0.1,0.2,0.2,0.3s0.2,0.1,0.4,0.1c0.3,0,0.5-0.1,0.8-0.2s0.5-0.3,0.7-0.6s0.4-0.5,0.5-0.8
		s0.2-0.6,0.2-0.9c0-0.1,0-0.2,0-0.4s0-0.2-0.1-0.3s-0.1-0.2-0.2-0.3S12.1,31.6,12,31.6z"/>
	<path class="st0" d="M17.4,31.1c0.1-0.3,0.3-0.4,0.4-0.6s0.3-0.2,0.5-0.2c0.1,0,0.3,0.1,0.4,0.2s0.2,0.3,0.2,0.5c0,0.1,0,0.2,0,0.2
		s0,0.2-0.1,0.3c0.1-0.2,0.3-0.3,0.6-0.5s0.5-0.3,0.8-0.5s0.6-0.3,0.9-0.3s0.6-0.1,0.9-0.1c0.3,0,0.6,0.1,0.8,0.2S23,30.7,23,31
		c0,0.2,0,0.4-0.1,0.7s-0.1,0.5-0.3,0.7s-0.2,0.5-0.3,0.7s-0.3,0.4-0.4,0.6s-0.2,0.4-0.3,0.5s-0.2,0.3-0.2,0.4
		c-0.1,0.1-0.1,0.2-0.1,0.3c0,0,0,0.1,0,0.1s0.1,0.1,0.1,0.1c0,0,0.1,0,0.1,0s0.1,0,0.2-0.1c0.3-0.1,0.6-0.3,1-0.4s0.6-0.4,1-0.6
		s0.6-0.4,0.8-0.6s0.5-0.4,0.6-0.5c0,0,0.1-0.1,0.1-0.1s0.1,0,0.1,0c0.1,0,0.2,0,0.2,0.1s0.1,0.2,0.1,0.3c0,0.2-0.1,0.4-0.2,0.6
		s-0.3,0.4-0.5,0.6c-0.3,0.2-0.6,0.5-0.9,0.7s-0.6,0.4-0.9,0.6s-0.6,0.3-0.9,0.5s-0.7,0.3-1.2,0.4c-0.2,0-0.3,0.1-0.4,0.1
		s-0.2,0-0.3,0c-0.3,0-0.5-0.1-0.7-0.3s-0.2-0.4-0.2-0.7c0,0,0-0.1,0-0.1s0-0.1,0-0.1c0-0.2,0.1-0.4,0.1-0.6s0.2-0.4,0.3-0.7
		s0.2-0.5,0.4-0.7s0.3-0.4,0.4-0.6s0.2-0.4,0.3-0.5s0.1-0.3,0.1-0.4c0-0.1,0-0.2-0.1-0.2s-0.1-0.1-0.2-0.1c-0.4,0-0.7,0.1-1.1,0.3
		s-0.7,0.5-0.9,0.8s-0.6,0.7-0.8,1s-0.5,0.7-0.7,1c-0.1,0.2-0.2,0.4-0.3,0.6s-0.2,0.4-0.3,0.6s-0.2,0.3-0.4,0.5s-0.3,0.2-0.5,0.2
		c-0.2,0-0.4-0.1-0.5-0.2s-0.2-0.3-0.2-0.5c0-0.1,0-0.3,0.1-0.5s0.2-0.5,0.3-0.8s0.3-0.6,0.4-0.9c0.2-0.3,0.3-0.7,0.5-1
		s0.3-0.6,0.5-0.9S17.4,31.3,17.4,31.1z"/>
	<path class="st0" d="M27,31.5c-0.2,0.4-0.4,0.8-0.6,1.2s-0.4,0.8-0.5,1.1c-0.1,0.1-0.1,0.3-0.2,0.5s-0.1,0.3-0.1,0.5
		c0,0.1,0,0.1,0.1,0.2s0.1,0.1,0.2,0.1c0.1,0,0.3,0,0.5-0.1s0.4-0.2,0.6-0.3s0.4-0.3,0.7-0.4s0.5-0.3,0.7-0.5s0.5-0.3,0.7-0.5
		s0.4-0.3,0.6-0.5c0.1-0.1,0.2-0.1,0.3-0.1c0.1,0,0.2,0,0.2,0.1s0.1,0.2,0.1,0.3s0,0.3-0.1,0.4s-0.2,0.3-0.4,0.4
		c-0.4,0.3-0.8,0.7-1.2,1s-0.8,0.6-1.2,0.8s-0.8,0.4-1.1,0.6s-0.7,0.2-1.1,0.2c-0.2,0-0.4,0-0.6-0.1s-0.3-0.1-0.4-0.3
		s-0.2-0.2-0.2-0.4s-0.1-0.3-0.1-0.5c0-0.3,0-0.6,0.1-0.9s0.2-0.6,0.3-0.9c0.2-0.4,0.4-0.7,0.5-1.1s0.3-0.7,0.5-1H25
		c-0.3,0-0.6-0.1-0.7-0.2s-0.2-0.2-0.2-0.4c0-0.1,0-0.1,0.1-0.2s0.1-0.2,0.2-0.2s0.2-0.1,0.3-0.2s0.2-0.1,0.4-0.1h0.9l1.9-3.7
		c0.1-0.2,0.3-0.4,0.4-0.5s0.4-0.1,0.5-0.1c0.2,0,0.3,0,0.5,0.1s0.2,0.2,0.2,0.5c0,0.1,0,0.2-0.1,0.3s-0.1,0.2-0.2,0.4
		c-0.1,0.1-0.1,0.2-0.2,0.4s-0.2,0.3-0.2,0.4s-0.2,0.3-0.3,0.5s-0.2,0.3-0.3,0.5c-0.2,0.4-0.4,0.8-0.6,1.2h2.9c0.1,0,0.3,0,0.4,0
		s0.2,0,0.3,0.1s0.2,0.1,0.2,0.2s0.1,0.2,0.1,0.3c0,0.1,0,0.1,0,0.2s-0.1,0.1-0.1,0.2s-0.1,0.1-0.2,0.1s-0.2,0.1-0.4,0.1L27,31.5z"
		/>
	<path class="st0" d="M33,30c0.5,0,0.8,0.1,1.1,0.4s0.4,0.6,0.4,1c0,0.2-0.1,0.5-0.2,0.8s-0.4,0.5-0.7,0.8s-0.7,0.6-1.3,0.9
		c-0.5,0.3-1.2,0.6-2,0.9c0,0.2,0.1,0.3,0.3,0.4s0.4,0.1,0.6,0.1c0.3,0,0.6,0,0.9-0.1c0.3-0.1,0.6-0.2,0.9-0.3s0.6-0.3,0.9-0.4
		s0.5-0.3,0.8-0.4s0.4-0.2,0.6-0.3s0.3-0.2,0.3-0.2c0.1,0,0.1-0.1,0.1-0.1s0.1,0,0.1,0c0.1,0,0.1,0,0.2,0s0.1,0.1,0.1,0.1
		s0.1,0.1,0.1,0.1s0,0.1,0,0.1c0,0.1,0,0.1,0,0.2s-0.1,0.2-0.1,0.3c0,0-0.1,0.1-0.3,0.2s-0.4,0.3-0.6,0.5s-0.6,0.4-0.9,0.6
		s-0.7,0.4-1.1,0.5s-0.8,0.3-1.2,0.4c-0.4,0.1-0.8,0.2-1.2,0.2c-0.4,0-0.7-0.1-0.9-0.2s-0.5-0.3-0.7-0.5s-0.3-0.5-0.4-0.8
		s-0.1-0.6-0.1-0.9c0-0.3,0-0.5,0.1-0.8s0.2-0.6,0.4-0.9s0.4-0.6,0.7-0.9s0.6-0.5,0.9-0.8s0.7-0.4,1.1-0.5C32.1,30.1,32.5,30,33,30z
		 M32.7,31.2C32.6,31.2,32.6,31.2,32.7,31.2c-0.1,0-0.1,0-0.2,0c-0.2,0-0.4,0-0.6,0.1c-0.2,0.1-0.4,0.2-0.5,0.3S31,32,30.9,32.2
		s-0.2,0.4-0.3,0.5s-0.2,0.4-0.3,0.5s-0.1,0.3-0.2,0.4c0.2-0.1,0.4-0.2,0.6-0.4s0.4-0.3,0.6-0.4s0.4-0.2,0.5-0.3
		c0.1-0.1,0.2-0.2,0.3-0.2c0.3-0.2,0.4-0.3,0.5-0.5s0.1-0.3,0.1-0.4c0-0.1,0-0.2-0.1-0.2S32.7,31.2,32.7,31.2z"/>
	<path class="st0" d="M36.6,31.1c0.1-0.3,0.3-0.4,0.4-0.6s0.3-0.2,0.5-0.2c0.1,0,0.3,0.1,0.4,0.2s0.2,0.3,0.2,0.5c0,0.1,0,0.2,0,0.2
		s0,0.2-0.1,0.3c0.1-0.2,0.3-0.3,0.6-0.5s0.5-0.3,0.8-0.5s0.6-0.3,0.9-0.3s0.6-0.1,0.9-0.1c0.3,0,0.6,0.1,0.8,0.2s0.3,0.4,0.3,0.8
		c0,0.2,0,0.4-0.1,0.7s-0.1,0.5-0.3,0.7s-0.2,0.5-0.3,0.7s-0.3,0.4-0.4,0.6s-0.2,0.4-0.3,0.5s-0.2,0.3-0.2,0.4
		c-0.1,0.1-0.1,0.2-0.1,0.3c0,0,0,0.1,0,0.1s0.1,0.1,0.1,0.1c0,0,0.1,0,0.1,0s0.1,0,0.2-0.1c0.3-0.1,0.6-0.3,1-0.4s0.6-0.4,1-0.6
		s0.6-0.4,0.8-0.6s0.5-0.4,0.6-0.5c0,0,0.1-0.1,0.1-0.1s0.1,0,0.1,0c0.1,0,0.2,0,0.2,0.1S45,33,45,33.1c0,0.2-0.1,0.4-0.2,0.6
		s-0.3,0.4-0.5,0.6c-0.3,0.2-0.6,0.5-0.9,0.7s-0.6,0.4-0.9,0.6s-0.6,0.3-0.9,0.5s-0.7,0.3-1.2,0.4c-0.2,0-0.3,0.1-0.4,0.1
		s-0.2,0-0.3,0c-0.3,0-0.5-0.1-0.7-0.3s-0.2-0.4-0.2-0.7c0,0,0-0.1,0-0.1s0-0.1,0-0.1c0-0.2,0.1-0.4,0.1-0.6s0.2-0.4,0.3-0.7
		s0.2-0.5,0.4-0.7s0.3-0.4,0.4-0.6s0.2-0.4,0.3-0.5s0.1-0.3,0.1-0.4c0-0.1,0-0.2-0.1-0.2s-0.1-0.1-0.2-0.1c-0.4,0-0.7,0.1-1.1,0.3
		s-0.7,0.5-0.9,0.8s-0.6,0.7-0.8,1s-0.5,0.7-0.7,1c-0.1,0.2-0.2,0.4-0.3,0.6S36.1,35.8,36,36s-0.2,0.3-0.4,0.5s-0.3,0.2-0.5,0.2
		c-0.2,0-0.4-0.1-0.5-0.2s-0.2-0.3-0.2-0.5c0-0.1,0-0.3,0.1-0.5s0.2-0.5,0.3-0.8s0.3-0.6,0.4-0.9s0.3-0.7,0.5-1s0.3-0.6,0.5-0.9
		S36.5,31.3,36.6,31.1z"/>
	<path class="st0" d="M46.2,31.5c-0.2,0.4-0.4,0.8-0.6,1.2s-0.4,0.8-0.5,1.1c-0.1,0.1-0.1,0.3-0.2,0.5s-0.1,0.3-0.1,0.5
		c0,0.1,0,0.1,0.1,0.2s0.1,0.1,0.2,0.1c0.1,0,0.3,0,0.5-0.1s0.4-0.2,0.6-0.3s0.4-0.3,0.7-0.4s0.5-0.3,0.7-0.5s0.5-0.3,0.7-0.5
		s0.4-0.3,0.6-0.5c0.1-0.1,0.2-0.1,0.3-0.1c0.1,0,0.2,0,0.2,0.1s0.1,0.2,0.1,0.3s0,0.3-0.1,0.4s-0.2,0.3-0.4,0.4
		c-0.4,0.3-0.8,0.7-1.2,1s-0.8,0.6-1.2,0.8s-0.8,0.4-1.1,0.6s-0.7,0.2-1.1,0.2c-0.2,0-0.4,0-0.6-0.1s-0.3-0.1-0.4-0.3
		s-0.2-0.2-0.2-0.4S43,35.6,43,35.4c0-0.3,0-0.6,0.1-0.9s0.2-0.6,0.3-0.9c0.2-0.4,0.4-0.7,0.5-1.1s0.3-0.7,0.5-1h-0.4
		c-0.3,0-0.6-0.1-0.7-0.2s-0.2-0.2-0.2-0.4c0-0.1,0-0.1,0.1-0.2s0.1-0.2,0.2-0.2s0.2-0.1,0.3-0.2s0.2-0.1,0.4-0.1h0.9l1.9-3.7
		c0.1-0.2,0.3-0.4,0.4-0.5S47.8,26,48,26c0.2,0,0.3,0,0.5,0.1s0.2,0.2,0.2,0.5c0,0.1,0,0.2-0.1,0.3s-0.1,0.2-0.2,0.4
		c-0.1,0.1-0.1,0.2-0.2,0.4S48,28,47.9,28.2s-0.2,0.3-0.3,0.5s-0.2,0.3-0.3,0.5c-0.2,0.4-0.4,0.8-0.6,1.2h2.9c0.1,0,0.3,0,0.4,0
		s0.2,0,0.3,0.1s0.2,0.1,0.2,0.2s0.1,0.2,0.1,0.3c0,0.1,0,0.1,0,0.2s-0.1,0.1-0.1,0.2s-0.1,0.1-0.2,0.1s-0.2,0.1-0.4,0.1L46.2,31.5z
		"/>
	<path class="st0" d="M52.4,35.2c0,0.2-0.1,0.4-0.2,0.5S52,36,51.9,36.1s-0.3,0.2-0.4,0.3s-0.3,0.1-0.5,0.1c-0.3,0-0.5-0.1-0.6-0.2
		s-0.2-0.4-0.2-0.6c0-0.2,0-0.4,0.1-0.6s0.2-0.3,0.3-0.5s0.3-0.3,0.5-0.3s0.4-0.1,0.6-0.1c0.3,0,0.5,0.1,0.6,0.2s0.2,0.3,0.2,0.6
		c0,0,0,0.1,0,0.1S52.4,35.2,52.4,35.2z M54.4,31.4c0,0.2-0.1,0.3-0.2,0.5s-0.2,0.3-0.3,0.4s-0.3,0.2-0.5,0.3s-0.3,0.1-0.5,0.1
		c-0.3,0-0.5-0.1-0.6-0.2s-0.2-0.4-0.2-0.6c0-0.2,0-0.4,0.1-0.6s0.2-0.3,0.4-0.5s0.3-0.3,0.5-0.3s0.4-0.1,0.6-0.1
		c0.3,0,0.5,0.1,0.6,0.2s0.2,0.3,0.2,0.6c0,0,0,0.1,0,0.1S54.4,31.3,54.4,31.4z"/>
	<path class="st0" d="M61.1,24.4c-0.2,0.3-0.5,0.7-0.7,1S60,26,59.7,26.3s-0.4,0.6-0.7,0.9s-0.5,0.6-0.7,1c-0.1,0.1-0.2,0.2-0.3,0.3
		s-0.2,0.1-0.3,0.1s-0.2,0-0.2-0.1s-0.1-0.1-0.1-0.2c0,0,0-0.1,0-0.1c0.1-0.3,0.3-0.7,0.4-1s0.2-0.6,0.3-0.9s0.2-0.6,0.3-0.9
		s0.2-0.6,0.4-1c0-0.1,0.1-0.2,0.2-0.3s0.2-0.2,0.3-0.2s0.3-0.1,0.4-0.1s0.3,0,0.4,0c0.1,0,0.2,0,0.3,0s0.2,0.1,0.3,0.1
		s0.1,0.1,0.2,0.1s0.1,0.1,0.1,0.2C61.2,24.2,61.2,24.3,61.1,24.4z M64.4,24.4c-0.2,0.3-0.5,0.7-0.7,1s-0.4,0.6-0.7,0.9
		s-0.4,0.6-0.7,0.9s-0.5,0.6-0.7,1c-0.1,0.1-0.2,0.2-0.3,0.3s-0.2,0.1-0.3,0.1s-0.2,0-0.2-0.1s-0.1-0.1-0.1-0.2c0,0,0-0.1,0-0.1
		c0.1-0.3,0.3-0.7,0.4-1s0.2-0.6,0.3-0.9s0.2-0.6,0.3-0.9s0.2-0.6,0.4-1c0-0.1,0.1-0.2,0.2-0.3s0.2-0.2,0.3-0.2s0.3-0.1,0.4-0.1
		s0.3,0,0.4,0c0.1,0,0.2,0,0.3,0s0.2,0.1,0.3,0.1s0.1,0.1,0.2,0.1s0.1,0.1,0.1,0.2C64.5,24.2,64.5,24.3,64.4,24.4z"/>
	<path class="st0" d="M69.4,24.4c-0.2,0.3-0.5,0.7-0.7,1S68.2,26,68,26.3s-0.4,0.6-0.7,0.9s-0.5,0.6-0.7,1c-0.1,0.1-0.2,0.2-0.3,0.3
		s-0.2,0.1-0.3,0.1s-0.2,0-0.2-0.1s-0.1-0.1-0.1-0.2c0,0,0-0.1,0-0.1c0.1-0.3,0.3-0.7,0.4-1s0.2-0.6,0.3-0.9s0.2-0.6,0.3-0.9
		s0.2-0.6,0.4-1c0-0.1,0.1-0.2,0.2-0.3s0.2-0.2,0.3-0.2s0.3-0.1,0.4-0.1s0.3,0,0.4,0c0.1,0,0.2,0,0.3,0s0.2,0.1,0.3,0.1
		s0.1,0.1,0.2,0.1s0.1,0.1,0.1,0.2C69.4,24.2,69.4,24.3,69.4,24.4z M72.7,24.4c-0.2,0.3-0.5,0.7-0.7,1s-0.4,0.6-0.7,0.9
		s-0.4,0.6-0.7,0.9s-0.5,0.6-0.7,1c-0.1,0.1-0.2,0.2-0.3,0.3s-0.2,0.1-0.3,0.1s-0.2,0-0.2-0.1s-0.1-0.1-0.1-0.2c0,0,0-0.1,0-0.1
		c0.1-0.3,0.3-0.7,0.4-1s0.2-0.6,0.3-0.9s0.2-0.6,0.3-0.9s0.2-0.6,0.4-1c0-0.1,0.1-0.2,0.2-0.3s0.2-0.2,0.3-0.2s0.3-0.1,0.4-0.1
		s0.3,0,0.4,0c0.1,0,0.2,0,0.3,0s0.2,0.1,0.3,0.1s0.1,0.1,0.2,0.1s0.1,0.1,0.1,0.2C72.8,24.2,72.7,24.3,72.7,24.4z"/>
	<path class="st0" d="M76.1,34.4l-3.5,4.5h-0.9l2.3-4.5H76.1z M77.2,31.4c0,0.2-0.1,0.3-0.2,0.5s-0.2,0.3-0.3,0.4s-0.3,0.2-0.4,0.3
		s-0.3,0.1-0.5,0.1c-0.3,0-0.5-0.1-0.6-0.2s-0.2-0.4-0.2-0.6c0-0.2,0-0.4,0.1-0.5s0.2-0.3,0.3-0.5s0.3-0.2,0.5-0.3s0.3-0.1,0.5-0.1
		c0.3,0,0.5,0.1,0.6,0.2s0.2,0.4,0.2,0.6C77.2,31.3,77.2,31.3,77.2,31.4C77.2,31.3,77.2,31.3,77.2,31.4z"/>
	<path class="st0" d="M2.3,59.8c-0.1,0-0.2,0-0.2-0.1s-0.1-0.1-0.1-0.2c0-0.1,0-0.2,0.1-0.3c0-0.1,0.1-0.2,0.2-0.3s0.2-0.2,0.3-0.2
		s0.3-0.1,0.4-0.1c0.4,0,0.7,0,1-0.1c0.2,0,0.5-0.1,0.6-0.2c0.2-0.1,0.3-0.3,0.5-0.5s0.3-0.4,0.4-0.7l1.3-2.4c0.2-0.4,0.4-0.7,0.6-1
		s0.3-0.4,0.5-0.6s0.3-0.2,0.5-0.3s0.4-0.1,0.6-0.1c-0.1-0.1-0.2-0.3-0.3-0.4c-0.1-0.1-0.1-0.3-0.1-0.5c0-0.2,0-0.4,0.1-0.6
		s0.2-0.4,0.3-0.7l1.9-3.6c0.1-0.1,0.1-0.2,0.1-0.3c0-0.2-0.1-0.3-0.4-0.4S10,46,9.5,46c-0.1,0-0.2,0-0.3-0.1s-0.1-0.2-0.1-0.3
		s0-0.2,0.1-0.3s0.1-0.2,0.2-0.3c0.1-0.1,0.2-0.2,0.3-0.2c0.1-0.1,0.3-0.1,0.4-0.1c0.7,0,1.3,0.1,1.6,0.3s0.6,0.5,0.6,1
		c0,0.1,0,0.2,0,0.4c0,0.1,0,0.2-0.1,0.2s0,0.2-0.1,0.3s-0.1,0.2-0.2,0.4s-0.2,0.4-0.3,0.6s-0.3,0.6-0.5,1s-0.4,0.9-0.7,1.4
		c-0.1,0.2-0.2,0.4-0.3,0.6s-0.1,0.4-0.1,0.6c0,0.1,0,0.3,0.1,0.3c0.1,0.1,0.2,0.1,0.4,0.1c0.1,0,0.2,0,0.3,0.1s0.1,0.2,0.1,0.3
		c0,0.1,0,0.2-0.1,0.3s-0.1,0.2-0.2,0.3s-0.2,0.1-0.3,0.2s-0.3,0.1-0.4,0.1c-0.4,0-0.7,0.1-1,0.3s-0.5,0.6-0.8,1.1l-1.4,2.7
		c-0.3,0.5-0.5,0.9-0.7,1.3s-0.5,0.6-0.8,0.8c-0.3,0.2-0.6,0.3-1,0.4C4,59.8,3.5,59.8,3,59.8L2.3,59.8z"/>
</g>
</svg>
