<?xml version="1.0" encoding="utf-8"?>
<!-- Generator: Adobe Illustrator 22.0.0, SVG Export Plug-In . SVG Version: 6.00 Build 0)  -->
<svg version="1.1" id="Capa_1" xmlns="http://www.w3.org/2000/svg" xmlns:xlink="http://www.w3.org/1999/xlink" x="0px" y="0px"
	 viewBox="0 0 1366 768" style="enable-background:new 0 0 1366 768;" xml:space="preserve">
<style type="text/css">
	.st0{fill:#FFFFFF;}
</style>
<path class="st0" d="M0,0v169.8c6.1-2.1,12.3-4.2,18.6-5.6c16.2-3.5,32.7-5.6,48.1-12.5c6.1-2.7,12.9-4.8,20-1.8
	c1.7,0.7,4.4-1,8.2-2c-3.9-2.7-5.8-4-8-5.5c6.7-3.4,8.2-2.9,11.4,3.8c0.9,0,2,0,3-0.2c15.8-3.6,30.9-10.6,47.8-8.9
	c2.1,0.2,4.6-1.7,6.6-3.1c3.6-2.4,6.7-5.5,10.5-7.6c6.3-3.4,15.1-1.2,19.8-8.6c0.4-0.6,2.2-1.1,2.9-0.8c5.2,2.3,8.3-1.4,11.5-4
	c4.3-3.4,8.2-7.1,12.3-10.7c9.4-8.4,23.3-7,31.2,2.7c1.2,1.5,4.7,2.6,6.6,2.1c8.9-2.4,16.8-18.2,14.8-27.3
	c-3.2-14.7-2.1-28.6,9.4-40c1.6-1.6,3.3-4.5,3-6.5c-1.3-7.5,1.9-13.3,5.5-19.3c1.7-2.7,2.5-6,4.1-8.7c1-1.7,2.6-3.4,4.3-4.2
	c6.5-3.2,22.8,0.2,28.4,4.8c4.1,3.3,8.7,6.3,13.5,8.4c8.4,3.7,15.6,8.6,21.1,15.6c-1.4,0.5-3.2,0.5-3.6,1.4c-3.4,6.2,3.8,7.1,5.4,12
	c1.2-2.6,2-4.2,2.7-5.8c0.7-0.2,1.3-0.4,2-0.6c2.8,6.4,5.7,12.8,8.5,19.2c-0.6,0.4-1.3,0.7-1.9,1.1c-4.7-2.6-9.5-5.2-14.2-7.7
	c-3.5-1.9-14.2,0.9-16.2,4.3c-0.4,0.7-0.7,1.5-0.8,2.3c-0.9,9.6-2.6,11-12.1,14.1c-4.6,1.5-9.1,4.3-12.7,7.6
	c-1.8,1.7-2.7,6.5-1.6,8.6c4,7,9.2,13.3,13.5,20.2c1.2,1.9,1.7,5.1,1.1,7.3c-1.2,4.4-3.5,8.5-5.5,13.3c2.8,0,5.8-0.4,8.5,0.2
	c1.3,0.2,3.3,2.8,3,3.4c-0.7,1.6-2.7,4.1-3.9,3.9c-4.4-0.6-6.3,0.6-5.4,4.9c-2.9-0.3-6.9-1.6-7.6-0.6c-3.7,5.3-6.4,1.8-8.8-0.7
	c-3.3-3.5-6-7.4-8-9.9c-9.2-1-10.2,5.9-12.9,10.7c-2.8,5-5.1,10.2-7.7,15.4c-0.7,0-1.3-0.1-2-0.1c-1.1-3.7-2.8-7.3-3.1-11
	c-1.3-15.2-3.4-17.4-18.7-17.4c-7.9,0-17.8,9-19.5,16.7c-0.6,2.9-2.6,6-4.9,8c-6.1,5.4-12.8,10.1-18.8,15.4c-1.4,1.2-2.6,4.9-1.8,6
	c1.1,1.6,4.2,2.9,6.3,2.7c5.1-0.5,10.4-1.4,15.2-3.3c7.7-3,9.4-3.1,12.3,4.4c1.9,5.1,5.4,5.2,9.4,4.8c1.6-0.2,3.1-0.8,5-1.3
	c0.6,2.1,1.1,3.8,1,3.7c6.9,3.1,13.6,4.5,18,8.4c9.8,8.8,20.7,11,33.1,9.1c4.9-0.7,10-1.5,14.9-1c30.2,3.3,60.3,6.9,90.6,0.5
	c11.3-2.4,22.7-3.9,30.2-14.2c2.4-3.2,5.6-3.9,9.6-0.7c6.7,5.4,14.2,3.6,21.3,0.1c1.3-0.7,1.9-2.8,2.9-4.3c-1.6-0.6-3.3-1.7-4.9-1.6
	c-3.1,0.1-6.2,1.1-9.3,1.2c-2.2,0-4.4-1-6.7-1.6c1.2-1.8,2.1-4.3,3.8-5.2c7.5-4,15.3-7.3,22.8-11.3c13.6-7.2,27.3-14.3,40.6-22.3
	c11.1-6.7,15.2-17,12.6-29.9c-0.5-2.3,0.3-6,1.9-7.5c10.2-9.8,10.7-23.3,14.1-35.6c1.3-4.8-0.2-9.5-4.8-13.2
	c-5.7-4.6-10.5-10.2-15.7-15.3c0.5-0.6,1-1.2,1.5-1.8c7.3,4.5,14.5,8.9,21.8,13.4c-9.7-9.3-6.2-22.9-12.3-33.1
	c0.9-0.3,1.8-0.6,2.7-0.9c2.2,8.1,4.4,16.2,6.7,24.2c0.6-0.1,1.2-0.3,1.8-0.4c0.2-1.7,0.4-3.4,0.8-6.4c2.7,5.4,4.9,9.5,7,13.7
	c0.2,0.3,0.2,1,0,1.2c-4.8,3.8-0.4,7.5-0.1,11.3c0.1,1.9-0.3,3.8-0.6,5.7c-0.5,3.1-2.4,6.7-1.4,9.1c0.7,1.6,5.4,1.5,8.4,2
	c0.6,0.1,1.3-0.2,3.4-0.6c-5.3,10.3-10,19.4-15.2,29.5c2.4-1.1,4.1-1.9,6-2.7c1,6.3-4.4,8.2-7.6,11.4
	c-28.3,27.9-56.7,55.8-85.3,83.5c-2.6,2.6-6.7,4.4-10.3,5.1c-9,1.7-18.2,2.5-27.3,3.9c-24.1,3.9-48.1,8.9-72.4,11.5
	c-12.6,1.4-26.2,5.5-38.4-3.1c-1-0.7-2.8,0.1-4.3-0.1c-14.7-1.2-28.6,2.3-42.5,6.4c-16,4.7-32,9.3-48,14c0.1,0.7,0.3,1.3,0.4,2
	c8.9,2.8,17.6,3.2,26.4-1.3c8.3-4.3,16.6-8.9,27.2-7.9c-5.8,15.4-12,29.4-27.9,36.7c-6.6,3-12.6,7.5-18.3,11.9
	c-11.5,8.7-22.7,17.8-33.8,26.9c-3.5,2.9-6.9,6.1-9.7,9.6c-5.7,7.2-11.1,14.7-16.4,22.2c-5.1,7.4-9.5,15.3-14.8,22.5
	c-6.6,8.9-3.4,16.1,2.6,23.5c8.6,10.6,16.9,21.4,25,32.3c1.8,2.4,2.5,5.7,3.7,8.6c-3-0.4-6.2-0.2-8.8-1.5c-6.6-3.2-13.7-6.3-19.2-11
	c-4.4-3.8-6.8-10-10-15.1c-6.6-10.6-7.4-22.8-9.7-34.5c-0.9-4.5-0.9-9.1-1.5-13.7c-1.4-9.8-7.6-16.1-16.4-22
	c4.6,7.3,8.4,13.4,13,20.7c-8.6-9.5-16-17.8-23.3-26c-0.4,0.3-0.9,0.7-1.3,1c2.5,5.1,5,10.3,7.8,16.1c-7.8,0.6-15,3.2-19.4-5.2
	c-0.2-0.4-0.6-0.9-0.8-0.9c-2.1,0.3-5.7,0.4-5.9,1.2c-1.4,7-5.8,11.2-12.5,13.8c12.9-1,25.4-5.2,38-1c-5.2,0.9-10.4,1.4-15.5,1.5
	c-10.5,0.1-21,0.6-30.3,6.1c-1.5,0.9-3.6,3.6-3.2,4.7c2.9,8.3,6.5,16.3,9.7,24.4c4.9,12.5,15.2,19.9,25,28.2
	c11.4,9.6,23.1,19.3,29.8,33.5c6.9,14.5,14.5,28.7,21.6,43.2c6.9,14.1,13.2,28.4,20.4,42.3c6,11.6,12.7,22.8,19.4,33.9
	c2.4,4,1.6,11.3-2.3,14.3c-3.6,2.7-7.1,5.5-10.6,8.4c-7.5,6.2-12.3,15.6-22.5,18.5c-1.4,0.4-2.3,2.7-3.2,4.3c-1,1.8-1.6,3.9-2.6,5.6
	c-7.2,12.1-14.4,24.3-21.9,36.2c-3.2,5-6.5,10.2-11,13.9c-3.8,3.2-10.7,12.2-10,17c0.2,1.4,1.9,2.4,2.5,3.8c0.8,1.9,1.4,4,1.4,6.1
	c0,1.3-1.6,2.5-1.8,3.9c-3.2,15.9-6.3,31.9-9.5,48.7c-10.1,1.7-19.9,3.4-30.1,5.2c0.4-3.4,0.9-5.7,0.8-8c-0.6-7.4,2.3-13.3,6-19.8
	c5.6-9.8,10.5-20.2,12.4-31.9c2-11.8,6.9-23.1,10.1-34.7c2.3-8.2,4-16.6,5.9-24.9c0.9-4.2,0.3-9.1,2.3-12.5
	c10.3-17,20.9-33.8,32.3-50.1c4-5.8,4.4-10.8,2.7-17c-4.4-16.8-14.5-30.3-24.2-44.3c-9.2-13.3-24.1-22.9-25.5-41.8
	c-0.5-7-7.1-13.9-11.7-20.3c-6.5-9.1-14.3-17.3-20.4-26.6c-7.9-12.1-14.2-25-14.6-40.6c-1.1,1.4-1.9,2.4-2.7,3.5
	c-1.4-3.5-3.3-6.7-3.8-10c-2.7-19.1,0.7-36.9,13-52.1c12.1-15,26.4-27.7,42.4-38.7c18.6-12.8,34.6-28.4,48.2-46.5
	c7.2-9.5,14.4-19,21.2-28.8c1.6-2.3,2-5.6,2.8-8.5c0.7-2.8,1-8,1.9-8.1c5.5-0.7,4.2-5.2,4.8-7.9c1.4-5.8,1.9-11.9,2.4-17.9
	c0.3-3.6,0.1-7.3,0.1-11.7c-14.7,0.7-28.8-0.5-42.3,4.1c-17,5.8-33.6,13.4-51.1,17c-23.3,4.8-47.2,6.4-70.8,9.8
	c-6.2,0.9-12.3,2.4-18.4,4.2V768h412.4c-1-1.4-2-2.9-3-4.4c-6-9.9-13.6-18.4-25.4-22.1c-2.8-0.9-5.5-2.2-7.9-3.7
	c-5.7-3.5-7.6-9.5-5.7-15.3c4.5,0.8,9,1.2,13.2,2.3c6.2,1.7,12.3,3.8,18.2,6.2c1.4,0.6,3.1,4,2.6,4.6c-3.5,4.7-1.1,8.4,1.9,11.6
	c3,3.4,6.7,8.9,9.9,8.8c6.8-0.3,12,9,19.3,2.9c7.6,1.6,14.4,4.8,20.5,9.1h910V0H0z M337.3,125.3c-0.5-3.5-0.9-6.9-1.3-10.2
	c4,2.7,7.1,4.8,10.4,7.1C343.7,123.2,340.9,124.1,337.3,125.3z M356.9,95.1c-3.6,7.2-10.3,9.1-18.5,10.4c-1.6-4.5-3.3-8.5-4.5-12.6
	c-1.5-5.3,0.2-6.9,5.5-6.2c4.3,0.5,8.6,0.7,12.9,0.9C356.9,87.7,359,90.8,356.9,95.1z M559.5,8.7c0.6-0.1,1.1-0.1,1.7-0.2
	c0.9,10.6,1.8,21.1,2.6,31.7C557.5,30.2,561.2,19.2,559.5,8.7z M368.1,713.9c-2.9-5.2-5-12.2-9.5-16.5c-8.7-8.1-18-16-28.5-21.4
	c-20.5-10.7-39.5-23.4-58.1-37.1c-11.8-8.7-21.3-19.1-27.9-31.8c-16.7-32-35-63.4-45-98.4c-0.6-2-1-4-1.9-7.2
	c19.6,15.2,33.8,32.9,45.6,52.5c2,3.4,1.8,8.5,1.4,12.7c-0.1,0.9-5.7,1.2-8.8,1.8c-0.2,0-0.4,0.2-2.1,1.1c1.8,2.6,3,5.1,4.9,7.1
	c11,11.6,22.5,22.8,33.3,34.7c6.7,7.4,13.7,13.8,23.1,17.6c2.7,1.1,5.9,4.9,5.9,7.5c0.1,4.4,1.9,6.5,4.9,8.6
	c5.5,3.8,11.4,7.2,16.2,11.8c14.6,14,28.7,28.7,43.2,42.8C371.7,706.5,371.9,706.3,368.1,713.9z M1105,114c-26,0-47-21-47-47
	s21-47,47-47s47,21,47,47S1131,114,1105,114z M1261,172c-42,0-76-34-76-76s34-76,76-76s76,34,76,76S1303,172,1261,172z"/>
</svg>
