<?xml version="1.0" encoding="utf-8"?>
<!-- Generator: Adobe Illustrator 22.0.0, SVG Export Plug-In . SVG Version: 6.00 Build 0)  -->
<svg version="1.1" id="Capa_1" xmlns="http://www.w3.org/2000/svg" xmlns:xlink="http://www.w3.org/1999/xlink" x="0px" y="0px"
	 viewBox="0 0 73.4 237" style="enable-background:new 0 0 73.4 237;" xml:space="preserve">
<style type="text/css">
	.st0{fill:#FFFFFF;}
</style>
<g>
	<path class="st0" d="M5.7,45.3c21.5,0,32.2,4.9,32.2,14.6c0,9.7-10.7,14.6-32.2,14.6c-1.6,0-3.1,0-4.6-0.1v43.1
		c1.5,0.1,3,0.1,4.6,0.1c13.8,0,25.8-2.5,35.8-7.4c10-4.9,17.7-11.7,22.9-20.4c5.3-8.7,7.9-18.7,7.9-29.9c0-11.3-2.6-21.3-7.9-29.9
		c-5.3-8.7-12.9-15.5-22.9-20.4c-10-4.9-21.9-7.4-35.8-7.4c-1.6,0-3.1,0-4.6,0.1v43.1C2.6,45.4,4.1,45.3,5.7,45.3z"/>
	<polygon class="st0" points="69.4,225.1 69.4,181.1 1.1,133.9 1.1,179.7 	"/>
	<rect x="1.1" y="194.4" class="st0" width="15.5" height="40.4"/>
</g>
</svg>
