<?xml version="1.0" encoding="utf-8"?>
<!-- Generator: Adobe Illustrator 22.0.0, SVG Export Plug-In . SVG Version: 6.00 Build 0)  -->
<svg version="1.1" id="Capa_1" xmlns="http://www.w3.org/2000/svg" xmlns:xlink="http://www.w3.org/1999/xlink" x="0px" y="0px"
	 viewBox="0 0 95.4 361.6" style="enable-background:new 0 0 95.4 361.6;" xml:space="preserve">
<style type="text/css">
	.st0{fill:#C1C1C1;}
	.st1{fill:#05E0B6;}
	.st2{opacity:0.2;fill:#666666;enable-background:new    ;}
	.st3{fill:#FFFFFF;}
	.st4{fill:#E5E5E5;stroke:#999999;stroke-width:0.25;stroke-miterlimit:10;}
	.st5{fill:#FFFFFF;stroke:#999999;stroke-width:0.25;stroke-miterlimit:10;}
	.st6{opacity:0.8;fill:#4F4F4F;enable-background:new    ;}
	.st7{fill:#FF3939;}
	.st8{fill:#FFEC3B;}
	.st9{fill:#45BC39;}
</style>
<g>
	<g>
		<rect x="25" y="152.7" class="st0" width="45.3" height="57.2"/>
		<g>
			<rect x="31.7" y="185.2" class="st1" width="25.8" height="2.3"/>
			<rect x="31.7" y="179.7" class="st1" width="32.1" height="2.3"/>
			<rect x="31.7" y="159.4" class="st1" width="32.1" height="17.2"/>
		</g>
		<rect x="31.7" y="200.9" class="st1" width="21.1" height="2.3"/>
		<rect x="31.7" y="190.7" class="st1" width="25.8" height="7"/>
		<polygon class="st2" points="70.4,152.7 25,209.9 25,152.7 		"/>
		<path class="st3" d="M69.4,148.3H26c-1.6,0-2.9,1-2.9,2.1v66.1c0,1.2,1.3,2.1,2.9,2.1h43.5c1.6,0,2.9-1,2.9-2.1v-66.1
			C72.3,149.2,71,148.3,69.4,148.3z M70.4,209.9H25v-57.2h45.3L70.4,209.9L70.4,209.9z"/>
		<g>
			<circle class="st4" cx="47.7" cy="214.3" r="3.1"/>
			<circle class="st4" cx="47.7" cy="214.3" r="2.6"/>
		</g>
	</g>
	<g>
		<rect x="33.4" y="271" class="st0" width="28.5" height="48.4"/>
		<g>
			<g>
				<rect x="34.7" y="298.6" class="st1" width="20.9" height="1.9"/>
				<rect x="34.7" y="294.2" class="st1" width="26" height="1.9"/>
				<rect x="34.7" y="277.7" class="st1" width="26" height="14"/>
			</g>
			<rect x="34.7" y="310.8" class="st1" width="16.9" height="1.9"/>
			<rect x="34.7" y="302.7" class="st1" width="20.6" height="5.6"/>
		</g>
		<polygon class="st2" points="62,271 33.4,319.4 33.4,271 		"/>
		<path class="st3" d="M61.4,267.3H34c-1,0-1.8,0.8-1.8,1.8V325c0,1,0.8,1.8,1.8,1.8h27.4c1,0,1.8-0.8,1.8-1.8v-55.9
			C63.2,268.1,62.4,267.3,61.4,267.3z M62,319.4H33.4V271H62V319.4z"/>
		<circle class="st4" cx="47.7" cy="323.1" r="1.9"/>
		<g>
			<circle class="st4" cx="51.4" cy="269.4" r="0.9"/>
			<path class="st5" d="M48.7,269.1h-5.5c-0.1,0-0.2,0.1-0.2,0.2v0.2c0,0.1,0.1,0.2,0.2,0.2h5.5c0.1,0,0.2-0.1,0.2-0.2v-0.2
				C48.9,269.2,48.8,269.1,48.7,269.1z"/>
		</g>
	</g>
	<g>
		<rect x="4.5" y="34.7" class="st0" width="86.4" height="63.4"/>
		<g>
			<rect x="7" y="47.3" class="st1" width="47.7" height="25.6"/>
			<rect x="56.3" y="47.3" class="st1" width="32.1" height="2.3"/>
			<rect x="56.3" y="53.6" class="st1" width="25.8" height="2.3"/>
			<rect x="56.3" y="70" class="st1" width="21.1" height="2.3"/>
			<rect x="56.3" y="59.8" class="st1" width="25.8" height="7"/>
			<rect x="6.6" y="78.1" class="st1" width="81.4" height="4.7"/>
		</g>
		<g>
			<rect x="4.3" y="35.1" class="st6" width="86.9" height="5.5"/>
			<rect x="80.2" y="36.6" class="st7" width="2.3" height="2.3"/>
			<rect x="83.3" y="36.6" class="st8" width="2.3" height="2.3"/>
			<rect x="86.4" y="36.6" class="st9" width="2.3" height="2.3"/>
		</g>
		<polygon class="st2" points="91.1,35.1 4.3,96.1 4.3,35.1 		"/>
		<path class="st3" d="M91.1,34.3H4.3c-0.4,0-0.8,0.4-0.8,0.8v65.7c0,0.4,0.4,0.8,0.8,0.8h86.8c0.4,0,0.8-0.4,0.8-0.8V35.1
			C91.9,34.6,91.6,34.3,91.1,34.3z M90.9,96.1H4.5v-61h86.4V96.1z"/>
	</g>
</g>
</svg>
