<?xml version="1.0" encoding="utf-8"?>
<!-- Generator: Adobe Illustrator 22.0.0, SVG Export Plug-In . SVG Version: 6.00 Build 0)  -->
<svg version="1.1" id="Capa_1" xmlns="http://www.w3.org/2000/svg" xmlns:xlink="http://www.w3.org/1999/xlink" x="0px" y="0px"
	 viewBox="0 0 1366 768" style="enable-background:new 0 0 1366 768;" xml:space="preserve">
<style type="text/css">
	.st0{fill:#FFFFFF;}
</style>
<g>
	<g>
		<path class="st0" d="M449.7,336.2h-39.2v131.4h39.2c20.1,0,36.1-5.7,48.1-17.2c12-11.5,18-27.6,18-48.5c0-20.8-6-37-18-48.5
			C485.8,341.9,469.7,336.2,449.7,336.2z"/>
	</g>
	<g>
		<path class="st0" d="M1349,415.1c4.1-3.7,8.5-7.2,13.2-10.2c1.2-0.8,2.5-1.5,3.8-2.3v-28.3c-3.9,7.5-7.9,15-11.9,22.4
			c-5.3,9.9-10.8,19.6-16.6,29.3C1341.1,422.5,1344.9,418.9,1349,415.1z"/>
	</g>
	<g>
		<path class="st0" d="M1356.4,533.3c-5.5-4.2-8.3-10.8-8.3-19.8c0-6.6,1.1-12.8,3.4-18.7c2.3-5.9,5-11.5,8.3-17
			c2-3.3,4-6.5,6.2-9.6v-38c-2.9,0.9-5.7,2.1-8.4,3.7c-6.4,3.7-12.4,8.5-17.8,14.3c-5.4,5.8-10.4,12.1-15.1,19
			c-4.6,6.9-9,13.5-13,19.8c-1.8,2.8-3.6,6.1-5.5,9.8c-1.9,3.7-3.8,7.4-5.8,11.3c-2,3.9-4.1,7.7-6.3,11.5c-2.2,3.8-4.5,7.2-6.9,10.1
			c-2.4,3-4.9,5.3-7.5,7.2c-2.6,1.8-5.4,2.7-8.2,2.7c-4.5,0-8-1.3-10.4-4c-2.4-2.6-3.7-6-3.7-10c0-3,0.5-6.1,1.5-9.4
			c1-3.3,2.7-7.3,5-12.1c3.1-6.6,6.6-13.9,10.6-21.9c4-8.1,8-16,12.1-24c4.1-7.9,7.9-15.5,11.5-22.6c3.6-7.2,6.6-13.2,9.1-18.3
			l41.8-82.2c-0.5-0.2-1-0.3-1.5-0.5c-1.9-0.8-3.4-1.9-4.7-3.3c-1.3-1.4-1.9-3.3-1.9-5.6c0-1.2,0.6-2.8,1.7-4.9
			c1.2-2.1,2.4-4.4,3.8-6.9c1.4-2.4,2.6-4.8,3.8-7.2c1.2-2.3,1.7-4.3,1.7-5.8c0-4.4-3.1-7.6-9.3-9.6c-6.2-2-16.6-3-31.1-3
			c-14.6,0.5-27.7,1.4-39.4,2.6c-11.7,1.2-22.6,2.8-32.5,4.6c-9.9,1.9-19.2,4-27.8,6.5c-8.6,2.4-17.1,5.1-25.5,7.8
			c-8.4,2.8-16.8,5.7-25.4,8.9c-8.6,3.2-17.7,6.3-27.4,9.6c-0.9,0.3-1.8,0.5-2.6,0.8c-0.8,0.3-1.6,0.4-2.2,0.4
			c-2.1,0-3.9-0.4-5.6-1.4c-1.7-0.9-3.1-2.1-4.3-3.7c-1.2-1.5-2.2-3.3-2.9-5.2c-0.7-1.9-1.1-3.9-1.1-6c0-3.3,2.7-7.1,8.1-11.3
			c5.4-4.2,12.8-8.4,22.2-12.7c9.4-4.3,20.5-8.4,33.2-12.5c12.8-4.1,26.5-7.7,41.3-10.8c14.8-3.2,30.2-5.7,46.2-7.5
			c16-1.9,32.1-2.8,48-2.8c13.8,0,25.7,1.1,35.8,3.3c6.1,1.3,11.5,3,16.3,4.9V0H0v768h1366V538
			C1362.4,537,1359.2,535.4,1356.4,533.3z M293.8,540H18V264.2h275.8V540z M590.4,475.5c-13.1,20.9-31.4,36.9-55,48.1
			c-23.6,11.2-50.9,16.8-81.7,16.8H317.1V263.3h136.6c30.9,0,58.1,5.6,81.7,16.8c23.6,11.2,42,27.3,55,48.1
			c13.1,20.9,19.6,45.4,19.6,73.6C610,430.1,603.5,454.7,590.4,475.5z M737.5,540.4H644V263.3h93.4V540.4z M961.5,540.4h-91.8
			L752.5,263.3h100.6l66.1,161.9l67.7-161.9h91.8L961.5,540.4z M1242.2,377.4c-4.5,9.3-9.2,19-14.1,29c-4.9,10-9.7,19.9-14.5,29.8
			c-4.8,9.9-9.4,19.4-14,28.6c-4.6,9.2-8.8,17.8-12.8,25.6c-3.9,7.9-7.5,14.9-10.6,21c-3.2,6.1-5.8,10.9-7.8,14.4
			c-1.9,3.9-4.3,7.3-7,10.2c-2.7,3-5.6,5.4-8.7,7.3c-3.1,1.9-6.3,3.4-9.5,4.3c-3.2,1-6.3,1.5-9.1,1.5c-4.1,0-7.6-1.1-10.4-3.2
			c-2.8-2.1-4.3-5.3-4.3-9.4c0-1.4,0.2-3,0.5-4.7c0.3-1.7,1-3.6,2-5.7c9.8-20.2,19.6-39.7,29.3-58.4c9.7-18.7,19.1-36.1,28.2-52.4
			c9.1-16.2,17.7-31,25.8-44.4c8.1-13.3,15.5-24.7,22.1-34.2c6.6-9.5,12.3-16.8,17-21.9c4.7-5.2,8.1-7.7,10.3-7.7
			c4.5,0,7.9,1.3,10.1,3.9c2.2,2.6,3.3,5.6,3.3,9.1c0,2.8-0.7,5.7-2.1,8.5c-3.2,6.6-6.9,14-10.9,22.3
			C1251,359.2,1246.7,368,1242.2,377.4z"/>
	</g>
</g>
</svg>
