<?xml version="1.0" encoding="utf-8"?>
<!-- Generator: Adobe Illustrator 22.0.0, SVG Export Plug-In . SVG Version: 6.00 Build 0)  -->
<svg version="1.1" id="Capa_1" xmlns="http://www.w3.org/2000/svg" xmlns:xlink="http://www.w3.org/1999/xlink" x="0px" y="0px"
	 viewBox="0 0 1366 768" style="enable-background:new 0 0 1366 768;" xml:space="preserve">
<style type="text/css">
	.st0{fill:#FFFFFF;}
	.st1{fill:#464438;}
	.st2{fill:#48463B;}
	.st3{fill:#F1F1F0;}
	.st4{fill:#F8F8F7;}
	.st5{fill:#EEEEED;}
	.st6{fill:#555348;}
	.st7{fill:#F0F0EF;}
	.st8{fill:#68675D;}
	.st9{fill:#EFEFEE;}
	.st10{fill:#58564C;}
	.st11{fill:#5D5B51;}
	.st12{fill:#E5E4E3;}
	.st13{fill:#F9F9F9;}
	.st14{fill:#535146;}
	.st15{fill:#E3E3E1;}
	.st16{fill:#BFBFBB;}
	.st17{fill:#DDDDDB;}
	.st18{fill:#CFCECB;}
	.st19{fill:#BDBCB8;}
	.st20{fill:#DFDEDC;}
	.st21{fill:#E7E7E5;}
	.st22{fill:#A4A49E;}
	.st23{fill:#BBBBB6;}
	.st24{fill:#B4B3AF;}
	.st25{fill:#B1B0AB;}
	.st26{fill:#EEEDEC;}
	.st27{fill:#DEDDDB;}
	.st28{fill:#E7E7E6;}
	.st29{fill:#C3C3BF;}
	.st30{fill:#94938C;}
	.st31{fill:#ECEBEA;}
	.st32{fill:#929089;}
	.st33{fill:#8E8D86;}
	.st34{fill:#C0BFBC;}
	.st35{fill:#A5A49E;}
	.st36{fill:#ABAAA5;}
	.st37{fill:#9E9D97;}
	.st38{fill:#49473B;}
	.st39{fill:#C4C3C0;}
	.st40{fill:#B9B8B4;}
	.st41{fill:#A1A09A;}
	.st42{fill:#8C8A83;}
	.st43{fill:#999791;}
	.st44{fill:#A6A59F;}
	.st45{fill:#B6B5B0;}
	.st46{fill:#A7A7A1;}
	.st47{fill:#BCBBB7;}
	.st48{fill:#A7A6A0;}
	.st49{fill:#AFAFA9;}
	.st50{fill:#ECECEB;}
	.st51{fill:#88877F;}
	.st52{fill:#979690;}
	.st53{fill:#9A9992;}
	.st54{fill:#B4B3AE;}
	.st55{fill:#D8D7D5;}
	.st56{fill:#CECDCA;}
	.st57{fill:#A8A7A1;}
	.st58{fill:#CAC9C6;}
	.st59{fill:#B7B6B2;}
	.st60{fill:#BAB9B5;}
	.st61{fill:#D6D6D3;}
	.st62{fill:#C7C6C3;}
	.st63{fill:#B7B6B1;}
	.st64{fill:#A5A59F;}
	.st65{fill:#C8C7C4;}
	.st66{fill:#9F9E98;}
	.st67{fill:#ABAAA4;}
	.st68{fill:#AAA9A4;}
	.st69{fill:#84827B;}
	.st70{fill:#97958F;}
	.st71{fill:#BEBEB9;}
	.st72{fill:#CACAC6;}
	.st73{fill:#84837B;}
	.st74{fill:#92908A;}
	.st75{fill:#BFBEBA;}
	.st76{fill:#BBBAB6;}
	.st77{fill:#919089;}
	.st78{fill:#95948D;}
	.st79{fill:#CDCDCA;}
	.st80{fill:#C8C8C4;}
	.st81{fill:#8F8E86;}
	.st82{fill:#C0C0BC;}
	.st83{fill:#C2C1BD;}
	.st84{fill:#C9C9C5;}
	.st85{fill:#C1C0BD;}
	.st86{fill:#929189;}
	.st87{fill:#B2B1AD;}
	.st88{fill:#E8E8E6;}
	.st89{fill:#68665D;}
	.st90{fill:#C3C2BE;}
	.st91{fill:#C6C5C1;}
	.st92{fill:#514F44;}
	.st93{fill:#E6E6E4;}
	.st94{fill:#ACABA6;}
	.st95{fill:#E4E4E3;}
	.st96{fill:#B0AFAA;}
	.st97{fill:#75746B;}
	.st98{fill:#B5B4AF;}
	.st99{fill:#F5F5F4;}
	.st100{fill:#BEBDB9;}
	.st101{fill:#E1E1DF;}
	.st102{fill:#646359;}
	.st103{fill:#E1E0DE;}
	.st104{fill:#636157;}
	.st105{fill:#7A7971;}
	.st106{fill:#616056;}
	.st107{fill:#4F4D42;}
	.st108{fill:#EBEBE9;}
	.st109{fill:#EAEAE9;}
	.st110{fill:#D1D0CD;}
	.st111{fill:#66645A;}
	.st112{fill:#9C9B95;}
	.st113{fill:#79776F;}
	.st114{fill:#7B7971;}
	.st115{fill:#FDFDFC;}
	.st116{fill:#565449;}
	.st117{fill:#CBCAC7;}
	.st118{fill:#5B594F;}
	.st119{fill:#DBDBD8;}
	.st120{fill:#85847C;}
	.st121{fill:#444236;}
	.st122{fill:#F2F2F1;}
	.st123{fill:#F1F1F1;}
	.st124{fill:#DDDDDA;}
	.st125{fill:#CECECB;}
	.st126{fill:#9B9B94;}
	.st127{fill:#C6C6C2;}
	.st128{fill:#F4F4F4;}
	.st129{fill:#77756D;}
	.st130{fill:#474539;}
</style>
<g>
	<g>
		<path class="st0" d="M1337.3,628.4c-9.9-5.5-17.3-12.3-22.4-20.4c-5.1-8.1-8.3-16.6-9.6-25.5c-1.3-8.9-1.9-22.2-1.9-40v-76.8
			c0-24.7,1.3-42.6,4-53.8c2.7-11.2,10.3-21.4,22.9-30.7c9.7-7.2,21.7-11.6,35.8-13.2v-54.3c-10.2,4.1-21.9,6.1-35.1,6.1
			c-19.3,0-35.2-3.4-47.7-10.3s-20.8-16.3-24.9-28.4c-4.1-12.1-6.1-30.3-6.1-54.7v-72.5c0-17.9,0.6-31.3,1.9-40.2
			c1.3-8.9,5-17.6,11.2-25.8c6.2-8.3,14.8-14.8,25.8-19.5c11-4.8,23.6-7.1,37.9-7.1c14.1,0,26.4,2,37,5.9V0H0v768h1366V636.6
			C1355.8,636.1,1346.2,633.4,1337.3,628.4z M1132.6,66.6h64.5v198.5h39.2v49.7h-103.8V66.6z M485.7,357.5c-0.8-0.7-2-0.8-3-1.4
			c-19.4-10.3-25-8.7-34.5,10.2c0,0,0,0,0,0c-0.3,4.4,0.4,8.4,2.8,12.4c49,82.9,17,186.9-70.8,226.4
			C287,647.1,177.1,597.3,154.3,493c-15-68.6,17.7-141.9,85.8-176.1c68.5-34.4,150.2-15.1,196.7,42.1c0,0.6,0,1.2,0,1.7
			c0-0.5,0-1,0-1.6c4.9,3.4,7.5,1.9,9.2-3.7c3.2-10.1,6.8-20.1,10.5-30.1c1.4-3.9,3-8.7,7.8-2.3c3.9,5.1,9.6,2.8,14.4,2.7
			c11.4-0.3,20,3.1,24.9,14.1c5,11.2,14.9,15.2,26,17.1c0.2,1.1,0.2,1.1,0.4,2.2C514.9,368.5,500,370.1,485.7,357.5z M922.1,605.8
			c-4.3,8.7-12.6,16-25,21.9c-12.3,5.9-26.7,8.9-43.1,8.9c-18,0-33.3-3.4-46-10.2c-12.7-6.8-21-15.5-25-26
			c-3.9-10.5-5.9-25.5-5.9-44.9v-16.9h62.4v31.4c0,9.7,0.9,15.9,2.6,18.7c1.8,2.8,4.9,4.1,9.3,4.1c4.5,0,7.8-1.8,10-5.3
			c2.2-3.5,3.3-8.7,3.3-15.6c0-15.2-2.1-25.2-6.2-29.8c-4.3-4.7-14.7-12.5-31.4-23.5c-16.7-11.1-27.8-19.1-33.2-24.1
			c-5.4-5-9.9-11.9-13.5-20.7c-3.6-8.8-5.3-20.1-5.3-33.8c0-19.8,2.5-34.3,7.6-43.4c5.1-9.2,13.2-16.3,24.5-21.5
			c11.3-5.2,24.9-7.7,40.9-7.7c17.4,0,32.3,2.8,44.6,8.5c12.3,5.6,20.4,12.7,24.4,21.3c4,8.6,6,23.1,6,43.7V451h-62.4v-19.2
			c0-8.9-0.8-14.6-2.4-17.1c-1.6-2.4-4.3-3.7-8-3.7c-4,0-7.1,1.7-9.2,5c-2.1,3.3-3.1,8.3-3.1,15c0,8.6,1.2,15.1,3.5,19.5
			c2.2,4.4,8.6,9.6,19,15.8c29.9,17.8,48.8,32.3,56.5,43.7c7.8,11.4,11.7,29.7,11.7,55.1C928.5,583.5,926.4,597.1,922.1,605.8z
			 M932.8,241c0,22.3-1.1,37.2-3.2,44.7c-2.1,7.5-5.9,13.4-11.2,17.6c-5.3,4.2-11.9,7.2-19.7,8.9c-7.8,1.7-19.6,2.5-35.3,2.5h-83
			V66.6h49.3c31.8,0,53.3,1.4,64.5,4.3c11.2,2.9,19.7,7.6,25.6,14.1c5.8,6.5,9.5,13.8,10.9,21.8c1.5,8,2.2,23.8,2.2,47.3V241z
			 M1103.2,524.1c0,26-0.6,44.3-1.8,55.1c-1.2,10.8-5.1,20.7-11.5,29.6c-6.4,8.9-15.1,15.8-26.1,20.6c-11,4.8-23.7,7.2-38.3,7.2
			c-13.8,0-26.3-2.3-37.3-6.8c-11-4.5-19.9-11.3-26.6-20.4c-6.7-9-10.7-18.9-12-29.5c-1.3-10.6-1.9-29.3-1.9-55.9v-44.2
			c0-26,0.6-44.3,1.8-55.1c1.2-10.8,5.1-20.7,11.5-29.6c6.4-8.9,15.1-15.8,26.1-20.6c11-4.8,23.7-7.2,38.3-7.2
			c13.8,0,26.3,2.3,37.3,6.8c11,4.5,19.9,11.3,26.6,20.4c6.7,9,10.7,18.9,12,29.5c1.3,10.6,1.9,29.3,1.9,55.9V524.1z M1105.7,232.4
			c0,18.8-0.6,32-1.8,39.6c-1.2,7.6-4.9,15.4-10.9,23.5c-6,8-14,14.1-23.8,18.2c-9.9,4.1-21.5,6.2-34.9,6.2
			c-14.8,0-27.9-2.5-39.2-7.4c-11.3-4.9-19.8-11.3-25.4-19.2c-5.6-7.9-8.9-16.2-10-24.9c-1-8.7-1.5-27.1-1.5-55.1V66.6h64.5v186.1
			c0,10.8,0.6,17.8,1.8,20.8c1.2,3,3.5,4.5,7.1,4.5c4.1,0,6.7-1.7,7.9-5c1.2-3.3,1.8-11.2,1.8-23.5V66.6h64.5V232.4z M1278.3,631.2
			h-58.9l-35-117.5v117.5h-56.2V372.8h56.2l37.7,116.4V372.8h56.2V631.2z"/>
	</g>
	<g>
		<path class="st0" d="M1025.7,411.1c-3.5,0-6.2,1.4-8.1,4.1c-1.9,2.7-2.8,10.7-2.8,24v120.7c0,15,0.6,24.3,1.8,27.8
			c1.2,3.5,4.1,5.3,8.5,5.3c4.6,0,7.5-2,8.8-6.1c1.3-4,1.9-13.7,1.9-28.9V439.2c0-12-0.7-19.7-2-23.1
			C1032.6,412.8,1029.9,411.1,1025.7,411.1z"/>
	</g>
	<g>
		<path class="st0" d="M860.8,111.3c-2.6-1.5-7.5-2.2-14.7-2.2v163.3c9.5,0,15.3-1.9,17.5-5.6c2.2-3.7,3.3-13.9,3.3-30.4v-96.4
			c0-11.2-0.4-18.4-1.1-21.6C865.1,115.1,863.4,112.7,860.8,111.3z"/>
	</g>
	<g>
		<path class="st0" d="M1339.9,108c-1.4-3.1-4.5-4.7-9.3-4.7c-5.4,0-8.9,1.9-10.3,5.7c-1.5,3.8-2.2,12-2.2,24.5v115.3
			c0,12.1,0.7,19.9,2.2,23.6c1.5,3.7,4.7,5.5,9.9,5.5c4.9,0,8.1-1.8,9.6-5.5c1.5-3.7,2.3-12.3,2.3-26v-31.2h24v-40.6h-24v-43.1
			C1342,119,1341.3,111.1,1339.9,108z"/>
	</g>
</g>
<path class="st1" d="M2801.4,836.5c-1.5,3-3,5.9-4.5,8.9c-7.7,2.6-15.9,3.9-22.6,8.9c-4.8,4.2-10.8,6.3-15.9,9.8
	c-5.1,3.7-11,6.4-16,10.3c-5.8,3.3-10.9,8-17.9,8.6c-2.4-0.6-4.2-1.9-5.5-4c-3.6-8.7-1.6-16.2,5.1-22.5c5-5.7,12.8-8.6,16.4-15.8
	c6.4-3.9,11.3-9.3,15-15.8c5.9-4.5,10.4-10.3,15.3-15.8c12.6-8.7,25-17.6,34.7-29.6c5-5.2,11.4-7.7,17.9-10.2
	c6.9-2.3,13.9-3,21.1-1.8c4.6,1.1,9.2,2.3,13.9,3c9.5,1.2,18.6,3.9,27.6,7.1c12.6,6.6,26.5,9.3,40.2,12.7c6,1.4,11.5,3.9,16.6,7.2
	c6.2,4.1,12.7,8,18.1,13.3c11.1,11.7,12.9,25.5,8.9,40.5c-2.1,5.3-6.2,8.3-11.5,9.7c-8.6,1.7-17.3,1.4-26,0.2
	c-2.3-0.4-4.5-1.2-6.6-2.2c-7.3-4.6-13.4-11.3-22.2-13.7c-9.1-3.8-18-8.1-23.5-17c-4.8-7.3-13.7-10.2-18.9-17
	c-2.5-1.6-5.1-3.3-7.6-4.9c-7.1,0.5-14.6-1.8-20.9,3.7c-6.1,4.8-11.2,10.5-16.2,16.4l0.3-0.3C2812.5,831.2,2807,833.9,2801.4,836.5z
	"/>
<path class="st1" d="M2861.3,870.1c3.1-4.1,6.3-8.1,9.4-12.2c3.1-5.7,8.4-7.3,14.3-8.1c9.9-0.2,19.8-1.1,29.5,1.3
	c4.1,1.2,8,2.7,11.4,5.3l-0.4-0.3c14.9,5.8,20.3,14.4,8.8,28.3c-5.9,7.2-13.3,12.6-20.5,18.5c-4,3.9-8.1,7.7-12.1,11.7
	c-10.8,8.9-12.7,18.6-2.8,29.6c5,5.5,9,11.7,11.7,18.7c7.4,23.8,17.1,47,19,72.3c-3.7,9.4-8.6,16.2-20,9.6
	c-3.5-3.6-3.6-8.7-5.4-13.1c-4.1-10.1-10.8-18.8-15.5-28.5c-4.6-4.5-6.9-10.5-10.4-15.6c-5-7.9-12.3-14-17.2-22
	c-1.6-3.2-3.3-6.5-4.9-9.7c-8.4-4.9-14.5-11.7-17.6-21c-0.3-2.4-0.3-4.8,0.1-7.3C2842.5,906.8,2848,886.9,2861.3,870.1z"/>
<path class="st2" d="M2731.3,622.6c17.7-26.1-6.5-23-19.4-27.7c6.6-13.8,22.5-10.9,32.7-18.2c13.7-10.1,28.8-12.7,45.1-8.7
	c15.9,4.5,17.8,17.3,17.9,30.9c0.1,11.9,1.3,23.1,14.8,27.8c2.3,1,4.4,2.3,6.4,3.8c6.7,6,12.7,12.3,9.5,22.4
	c-5.5,8.9-14.5,11.9-23.8,14.7c-6.9,1.3-12.5,5-17,10.4c-8.2,10.5-18.1,16.9-32.1,14.3c-6.6-1.5-11.4-4.8-12.4-12
	c-1.7-7.9,6.5-12.4,7.1-19.7c-10.2-3-25.4-0.8-19-19.4c6.6-6.2,17-2.5,23.4-9c5.6-8.9,6.7-17-3.6-23.3c-1.9-0.7-3.7-1.4-5.5-2
	c-7.5-0.9-6.7,5-7.6,9.5c-1,7.2-1.1,14.7-9.1,18.3c-2.6,0.5-5.1,0-7.4-1.3C2729,629.8,2728.7,626.2,2731.3,622.6z"/>
<path class="st3" d="M2766.7,686.7c13.3,1.8,21.9-5.4,29.2-15c9.4-5.1,13.6,1.2,17.6,8c1,8,1.7,16.8,12,5.7
	c13.5,2.8,23.9,10.4,32.7,20.7c2.7,6,1.1,12-0.2,18c-0.9,4.9-2.2,9.6-5.5,13.5c-2.3,1.4-4.5,1.3-6.7-0.1
	c-7.1-6.6-11.6-13.6-22.6-1.3c-8,8.9-24,10.7-36.4,15.6c-1.4-1.8-2.2-3.7-2.4-6c0.4-7.5-3.4-14.2-4.6-21.2c-0.2-1,3.4-4.4-1.7-2.6
	c-10.2,3.1-18.5,1.2-23.6-9c-0.2-2.3,0.3-4.5,1.3-6.5c3.4-4.5,13.2-4.7,9.1-14.1C2764.3,690.1,2765,688.2,2766.7,686.7z"/>
<path class="st4" d="M3051.2,929.9c19.4-0.5,36.9,5.1,53.2,15.3c7.8,4.9,15.9,10.4,14.2,20.7c-2.2,13-14.9,12.7-23.6,12.6
	c-13.6-0.1-27.8-1.3-39.9-9.6c-6-4.1-11.3-9.9-19.7-7.9c-4.4,0.9-7,0.1-5-5.2c3.4-9.9,6.8-19.8,10.2-29.6
	C3045.9,922.7,3047.6,928.9,3051.2,929.9z"/>
<path class="st5" d="M3040.1,811.2c-6.1,7.6-13.7,14.4-15.4,24.8c-6.3,2-7.7-3-9.9-6.8c-2.2-5.1-3.7-10.5-3.7-16.1
	c0.5-6.9,3.7-13.8,0.5-20.8c-1.6-3.9-3.5-7.6-5.2-11.4c-3.5-7.6-3.9-15.4-0.8-23.2c1.9-4.6,4.8-8.1,9.6-9.9
	c6.7-2.3,13.8-1.8,20.6-3.3c16.8-8.3,19.7,2.9,21.8,15.5c0.3,2.3,0.1,4.6-0.3,6.9c-2.3,6.4-6.6,12-8.6,18.6
	C3045.2,793.8,3047.8,804.2,3040.1,811.2z"/>
<path class="st6" d="M2880.8,526.9c15.2-4.5,30.3-9,45.5-13.5c-5,7.3,7.5,8.8,5.1,15.2c-3.1,8.8-11.9,11.4-18.1,16.9
	c-5.7,3.4-7.7,9.3-10.2,15c-2.1,4.2-4.6,8.1-9,10.4c-7.2,3.1-14.7,3.1-22.2,2.7c-3.8-0.2-7.6-0.9-11.3-1.9
	c-10.1-4.6-23.7,0.4-31.2-11.4c-1.4-5.3,0.5-9.4,4.4-12.9c10.5-5.5,23.7,3.8,33.4-6c2.2-2.1,4.5-4.1,6.8-6
	C2876.8,533.1,2880.9,531.7,2880.8,526.9z"/>
<path class="st7" d="M2910.4,1040.5c9.3,10.6,12.2,1.5,15.8-5.2c3.2-5.2,6.2-11.2,13.5-4.6c20.8,12.3,21.2,23.6,0.1,37.1
	c-6.8,4.4-12.3,12.1-19.7,17c-5.4,4-10.6,4-15.5-0.9c2.1-9.3-8.8-10.1-11.1-16.5c0-4.6-0.3-9.2,1.6-13.5c-0.5-1.3-0.3-2.5,0.7-3.6
	C2900.4,1046.5,2901.2,1037.2,2910.4,1040.5z"/>
<path class="st8" d="M2781.7,722.3c1.1,8.5,20.1,13.2,5.4,25.1c-5.6,3.6-11.1,3.6-16.4-0.6c-3.3,1.4-6.6,2.9-10,4.3
	c-5.9-6.6-14.6-9-21.4-14.4c-4.9-5.3-10.1-10.3-11.4-17.9c-0.2-14.5,8-17.9,20.6-15.4c4,1.5,6,5,8.3,8.1c7.5,4.4,14.1,14,24,4
	C2783.6,717.5,2783.8,719.7,2781.7,722.3z"/>
<path class="st9" d="M2731.8,632.4c1.2,0.6,2.5,1,3.8,1.2c3.7,1.5,4.4,4.4,3.7,7.9c-2,7.9-7.1,15.4-3.4,24.2c0.4,4.8-0.2,9.2-3.5,13
	c-6,4.5-13.2,4.3-20.1,5.6c-5.4,0.6-9.8,6.4-15.9,3.1c-15.9-16-11.4-28.4,7.1-37.7c8-4,17-6.5,18.1-17.4
	C2725.1,629.3,2728.5,629.5,2731.8,632.4z"/>
<path class="st10" d="M3015.5,811.1c1.2,4.6,2.5,9.3,3.7,13.9c-1.8,6.1-1.5,12.8-5.5,18.2c-3.6,5.3-8.3,9.6-13.6,13.2l-2.4,0
	l-2.4-0.1c-5.9,4.9-12.3,5.7-19.1,2c-2.1-1.9-3.3-4.3-3.6-7.1c1.8-12.9,6.1-25.2,12.8-36.1C2993,802.7,3003.2,795.1,3015.5,811.1z"
	/>
<path class="st11" d="M3043.8,782c3.8-5.2,7.5-10.3,11.3-15.5c13.8-9.6,25-4.2,35.2,6.3c3.1,4.6,6.3,9.3,9.4,13.9
	c-4.6,2.7-9.3,5.2-13.3,8.8c-3.7,2.6-7.6,5-11.9,6.6C3043,805.7,3043,805.7,3043.8,782z"/>
<path class="st12" d="M2981.2,627c12.3,11.9,37.9-4.9,44,20.4c-9.3,19.6-26.5,9.2-40.6,10.6c-6.9-1.4-12.3-5.5-17.8-9.7
	c-6.3-4.7-13.7-8.5-14.6-17.7C2959.8,612.8,2971.6,628.6,2981.2,627z"/>
<path class="st13" d="M2836.6,548.5c-1.9,2.9-3.8,5.7-5.7,8.6c-1,1.7-2.1,3.4-3.2,5.1c-2.9,4-6.1,7.8-7.8,12.6
	c-2.7,7.3,0.2,13.9,3,20.4c3.5,7.4,10.1,12.4,14.3,19.3c3.5,11,6.7,21.8-11.9,18.9l0.5,0.3c-32.5-14.5-21.3-42-19.7-66.6
	c1.5-3,3-6.1,4.5-9.1c-3.6-7.1,0.4-11.3,5.8-15c4.6-0.3,9.2-0.5,13.7-0.8C2836.2,540.3,2837.6,543.1,2836.6,548.5z"/>
<path class="st14" d="M2687.8,910.4c-22-2-46.1,11.2-65.5-9.1c2.3-2.9,5.5-3.7,9-3.7c9.6,3.2,16.2-5.8,25-6.2
	c5.7-0.2,11.4-0.5,16-4.6c9.2-5,17.4-13.9,29.5-7.6c2.8,2.5,3.9,5.7,4,9.3C2705.2,900.2,2692.1,901.7,2687.8,910.4z"/>
<path class="st15" d="M2696.4,687.4c3.7-3.3,7.4-6.6,11.2-9.9c6.3,10.2,18.2,2,25.9,7.8c6,7.4,19.2,9.2,17.9,22.4
	c-11.1-2.2-21.3-3.1-19,13.5c0.4,9.4-4.4,8.8-10.7,5.7C2713.4,713.8,2704.9,700.6,2696.4,687.4z"/>
<path class="st16" d="M2939.7,1030.7c-4.5,1.5-9,3.1-13.5,4.6c-7-24.8-14-49.6-20.9-74.4c0.7-4.2,1.4-8.3,5.7-10.5
	C2926,975.2,2926.7,1005.1,2939.7,1030.7z"/>
<path class="st17" d="M2702.8,890.6c-0.4-3.1-0.7-6.2-1.1-9.3c-3.6-4.8-4.5-9.8-1.4-15.2c3.3-2.6,7.2-3.2,11.3-3.2
	c10.9,0.9,3.9,14.5,12.2,17.3l1.6-0.3c6-1.6,11.9-3,11.6,6.5c-2.4,10.4-8.5,16.2-19.7,15.1C2706.2,906.4,2704.4,898.7,2702.8,890.6z
	"/>
<path class="st18" d="M2747.3,583.4c-10.5,7.7-23.9,6.7-35.4,11.6c-8-0.9-10.5,12.2-19.9,7.9c-5.3-7.2-1.5-11.3,4.9-14.5
	c15.8-0.1,23.3-13.7,34.4-21.3c5.2-2,9,0.5,12.6,3.7C2747.2,574.4,2749.7,578.3,2747.3,583.4z"/>
<path class="st16" d="M2910.9,950.4c-0.2,4.4-1.1,8.4-5.7,10.5c-3.4-4.5-6-9.9-10.2-13.4c-18-15.2-13.8-26.9,4.9-37
	c5.2-2,6.4,0.6,5.8,5.2C2894.6,929.1,2901.8,939.9,2910.9,950.4z"/>
<path class="st19" d="M2930.4,885.9c7.5-11.5,6.1-21.5-4.9-29.9c9.8,0.4,19.5,0.8,29.3,1.2c3.9,2.2,9.1,0.3,12.4,4.2
	c1.4,3.5,1.2,6.5-2.4,8.6c-12.7-0.1-17,14.5-28.7,16.2C2934.1,888,2932.2,887.8,2930.4,885.9z"/>
<path class="st20" d="M2925.2,597.7c-1.1,6.8-9.6,13.9,0.5,20.5c6.1,2.5,9.1,6.8,7.9,13.6c-2,6.7-5.2,12.5-11.2,16.4
	c-9.3,2-10.2-5.9-13.3-11.3c-1-1.9-1.8-3.9-2.6-5.9c-2.1-5.1-4.1-10.2-3.5-16c1.9-8.1,5.3-15.2,12.8-19.6
	C2919.3,594.4,2922.6,594.8,2925.2,597.7z"/>
<path class="st21" d="M2864.5,1080.8c-17.2,9.2-18.3-6.4-23.7-15.4c-1.4-5.4,1.1-6.8,5.9-5.9c11.3,5.5,20.5,15.6,34.2,15.7
	c7.1,3.7,10,8.6,4.9,16C2874.9,1095.7,2869.8,1087.9,2864.5,1080.8z"/>
<path class="st22" d="M2861.3,870.1c-6.5,20.5-13,41-19.5,61.5c-8-5.3-0.5-14.1-4.6-20.3C2839.9,894.5,2844.1,878.5,2861.3,870.1z"
	/>
<path class="st23" d="M2885.8,856.1c-5,0.6-10.1,1.2-15.1,1.8c-1.7-10.7,13.2-19.5,3.6-31.1c2.3-2.6,4.9-3,7.8-1.2
	c7.9,5.3,15.7,10.6,23.6,15.9c1.6,9.7-6.8,8.2-11.8,10.5C2891.1,853.2,2888.1,854,2885.8,856.1z"/>
<path class="st24" d="M2807.1,782.8c-7.3,15.2-19.5,24.6-35.2,29.9c-2.9-3-3.4-5.9,0.4-8.6c4.6-15.1,19.9-18.2,30.2-27
	C2806.6,777,2809.3,778,2807.1,782.8z"/>
<path class="st25" d="M2747.3,583.4c-1.9-3-3.9-6-5.8-9c0.3-1.1,0.6-2.2,0.9-3.3c7.5-7.2,17.5-10,26.1-15.4
	c4.9-1.7,8.8,1.2,12.9,2.9c4.4-1,8.3-0.7,10.1,4.4c2.9,2.9,3,5.9,0.4,9C2776.6,574,2759.4,569,2747.3,583.4z"/>
<path class="st26" d="M2791.9,572c-0.1-3-0.3-6-0.4-9c4.7,1.9,8.7,6.6,14.6,4c1.5,23.7-6.6,50.2,19.7,66.6
	c-20.4-0.5-25.4-13.8-25.6-31C2800,591.7,2804.3,579.6,2791.9,572z"/>
<path class="st27" d="M2836.6,548.5c-2.2-2.1-4.3-4.3-6.5-6.4c5.9-5.1,13.2-4.5,20.2-4.8c7.9-0.7,17.7-8.3,21.2,6.2
	C2861.9,559,2849,551.7,2836.6,548.5z"/>
<path class="st28" d="M2990.6,529.1c2.8,1.4,5.8,2.6,8.4,4.2c6.6,4,20.8,4.3,13.4,16.7c-5.7,9.4-15.2,5.5-22-2.1
	C2986.8,541.6,2986.6,535.3,2990.6,529.1z"/>
<path class="st15" d="M3090.2,772.9c-11.7-2.1-23.5-4.2-35.2-6.3c-0.2-1.7-0.3-3.3-0.5-5c0.7-0.7,1.3-1.5,2-2.2
	c3.4-2.1,7.2-2.9,10.8-4.6c4.3-2.6,7-6.9,10.6-10.3c3.5-2.5,7-5.3,11.6-2.6C3089.8,752.3,3090,762.6,3090.2,772.9z"/>
<path class="st29" d="M2930.4,630.8c-1.6-4.2-3.1-8.4-4.7-12.6c19.3-2.1,38.2-1.9,55.5,8.8c-7.5,6.3-19.3-9.5-25.3,4.8
	C2947.2,635.9,2938.7,636.9,2930.4,630.8z"/>
<path class="st30" d="M2781.4,558.6c-4.1,5.2-7.1-0.4-10.6-1.1c-7.5-2.4-13.7,6.1-21.4,2.5c-0.8-0.7-1.7-1.3-2.5-2
	c2.3-3.3,4.2-7.1,7.1-9.8c6.8-6.2,15.3-12.2,24.2-9.5C2788.7,542.1,2773.5,552.8,2781.4,558.6z"/>
<path class="st31" d="M3043.8,782c-2.4,30.8,20.3,11.6,31.3,15.7c5.2,12.5-4.4,12.1-11.8,13.7c-1.1,0.1-2.2,0.1-3.3,0.1
	c-6.6-0.1-13.2-0.2-19.8-0.3C3041.5,801.5,3036.9,791.1,3043.8,782z"/>
<path class="st32" d="M2930.3,527.3c-2.8-4.2-10.5-7-4.1-13.9c15.4,0.5,31.7-3.9,44.6,8.9c1.6,1.3,2,2.5,1.4,3.7
	c-0.6,1.1-1.3,1.6-1.9,1.6c-6.5,0.3-13,0.5-19.5,0.8c-6.2-6.7-11.9,0.6-17.8,0.8C2932.2,528.5,2931.3,527.9,2930.3,527.3z"/>
<path class="st33" d="M2617.7,900.1c-9.6-1.2-27,6.8-26.9-5.3c0.2-14.1,18.4-6.8,28.9-8.4c2.6-0.4,5.7,2.4,8.5,3.8
	C2626.2,895.1,2620.3,895.9,2617.7,900.1z"/>
<path class="st34" d="M2980.6,652.7c14.7-3.4,30.8,5.5,44.6-5.3c1.7,0,3.5-0.1,5.2-0.1c6.3,5.3,17,3.3,20.7,12.7
	c-1.6,4-4.8,5.9-8.7,7.1c-20.3-0.4-40.6-1.4-60.2-7.2C2979.6,657.9,2979.1,655.5,2980.6,652.7z"/>
<path class="st35" d="M2702.2,866.5c-0.2,5-0.3,9.9-0.5,14.9c-11.8-2.7-20,5.5-29.5,9.7c-3-0.6-4.9-2.4-5.5-5.4
	c7.3-4.5,11.4-13.2,20.5-15.1C2692.2,869.1,2695.9,862.7,2702.2,866.5z"/>
<path class="st36" d="M2891.1,1000.3c8.5,8.2,12.8,18.5,15.1,29.8c-1.9,1.9-3.9,2.1-6,0.3c-6.5-7-12.6-14.2-14.7-23.9
	C2883.7,1001.2,2886.1,999.6,2891.1,1000.3z"/>
<path class="st37" d="M2702.8,890.6c3.6,5.3,7.2,10.6,14.6,10.9c-8.9,6.3-19.8,5.7-29.6,8.8C2680.8,894.7,2702.3,900.6,2702.8,890.6
	z"/>
<path class="st38" d="M3049.7,657.8c-7.2-2.1-14.6-3.9-19.3-10.6c12.8,5.7,30.9-3.4,39.6,14C3061.7,669.3,3055.3,665.9,3049.7,657.8
	z"/>
<path class="st39" d="M3089.5,741.9c-3.1,1.8-6.3,3.6-9.4,5.3c-2.1-1.6-3.6-3.7-4.5-6.2c-2.6-12.2,0.2-23.3,7.2-33.4
	c2.2-2.1,4.5-2.2,6.9-0.6C3092.2,718.7,3091.2,730.3,3089.5,741.9z"/>
<path class="st40" d="M2837.2,911.4c6.4,5.7,2.7,13.6,4.6,20.3c0.3,1.1,0.4,2.1,0.3,3.2c1.7,4.5,2.3,8.9-1.2,13
	C2823,937.4,2835.1,923.9,2837.2,911.4z"/>
<path class="st41" d="M3049.7,657.8c6.8,1.2,13.5,2.3,20.3,3.5c5.9,1.1,9.6,4.3,10.6,10.4c-1.6,2.3-3.8,3.8-6.5,4.6
	c-12.3,0.6-24.6,1.3-29.4-13.8C3046.4,660.9,3048.1,659.4,3049.7,657.8z"/>
<path class="st42" d="M2964.8,870c0.1-2.9,0.2-5.7,0.4-8.6c2.4-3.8,5.8-5.6,10.3-5.3c6.6,0,13.2,0.1,19.8,0.1
	C2990.6,872.8,2974.2,863.7,2964.8,870z"/>
<path class="st43" d="M3134.8,702.3c-10.8-11.9-3.1-21.3,4.1-30.8c3.3,0.3,3.8,3.2,5.1,5.3c-1,9.2-3,18-9.6,25.1L3134.8,702.3z"/>
<path class="st44" d="M3150,642.6c-0.1-9.2,4-16.5,10.3-27c6.9,15.4-1.2,23.3-5.7,31.9C3152.3,646.5,3150.9,644.8,3150,642.6z"/>
<path class="st45" d="M3115,752.3c-2.5,8-5,16-7.5,24c-10.1-12.3-2.7-20.7,2.6-29.4C3114.6,746.1,3117.3,746.8,3115,752.3z"/>
<path class="st46" d="M2772.4,804.1c-0.2,2.9-0.3,5.7-0.5,8.6c-1.4,8.7-7.8,12.1-15.1,14.6c-2.9-3.5-3.2-6.9,0.3-10.1
	C2760.7,811,2763.6,804.1,2772.4,804.1z"/>
<path class="st47" d="M3051.2,929.9c-3.5-1.2-7-2.5-10.5-3.7c-0.1-9.6,4.4-17.4,9.5-25c2.2,1,3.9,2.5,5,4.7
	C3053.8,913.9,3052.5,921.9,3051.2,929.9z"/>
<path class="st48" d="M2930.4,885.9c1.9,0.1,3.8,0.2,5.7,0.3c-2.1,11.1-12.9,13.9-19.9,20.3c-3.1-0.6-4.9-2.6-5.5-5.6
	C2916.9,895.3,2920.9,887,2930.4,885.9z"/>
<path class="st49" d="M3115,752.3c-1.6-1.8-3.3-3.6-4.9-5.4c0.7-9.4,3.5-17.9,9.4-25.3c3,0.4,3.4,3.2,4.6,5.2
	C3123,736,3121.7,745.1,3115,752.3z"/>
<path class="st50" d="M3084.7,791c3.4-7.3,9.6-4.2,15-4.2c-3.3,9.9-6.6,19.7-9.9,29.6c-4,1.8-5.9-0.5-7.4-3.7
	C3081.6,805.3,3081.9,798,3084.7,791z"/>
<path class="st51" d="M2846.5,771.4c-8.2,0.3-16.4,0.7-24.6,1c-1.4-1.1-2-2.3-1.7-3.6c0.3-1.3,0.7-2,1.1-2
	c8.8-6.6,19.3-4.5,29.2-5.8c1.7,1.2,2.5,2.8,2.4,4.9C2851.8,768.9,2849.7,770.8,2846.5,771.4z"/>
<path class="st52" d="M2816.3,826.5c-2.9-12.8,5.2-17,15.3-19.7c3,0.6,4.9,2.3,5.4,5.3C2831.4,818.9,2826.2,826.1,2816.3,826.5z"/>
<path class="st53" d="M3069.7,870.9c-1.3,9.2-3.7,17.9-9.3,25.5c-4.6-2.1-2.4-7.7-5.4-10.5c0.5-8.1,3.9-14.8,9.4-20.5
	C3067.6,865.8,3068.2,868.8,3069.7,870.9z"/>
<path class="st44" d="M2910.4,542.5c6.7-5,13.3-10.1,20-15.1c0.5,0.7,1,1.5,1.7,2.1c3.3,0.7,7.4-0.3,9.2,3.9
	c-6.8,4.9-13.6,9.7-20.4,14.6c-1.4,1.7-3.2,2.2-5.3,1.7C2912.7,548,2910.8,545.7,2910.4,542.5z"/>
<path class="st54" d="M2772.5,852c7.4-4.7,13.8-13.5,24.4-6.7c-5.3,6.1-12,9.8-19.9,11.3C2772.2,858.2,2771.4,856,2772.5,852z"/>
<path class="st25" d="M2850.9,766.3c-0.1-1.8-0.3-3.5-0.4-5.3c4-9.1-4.8-15.4-4.9-23.6c1.8-0.2,3.7-0.4,5.5-0.5
	c10.6-1.3,10.9,6.7,12.4,13.7c-0.6,6-2.1,11.8-6.2,16.5C2855,768.1,2852.9,767.9,2850.9,766.3z"/>
<path class="st55" d="M2885.7,1089.3c-1.6-4.7-3.1-9.4-4.7-14.2c11.1-2.9,9.5-14.2,14.2-21.5c0.3,5.5,0.5,11.1,0.8,16.6
	c1.6,1.7,2.3,3.6,2,5.9c-1.2,5.4-2.4,10.9-6.8,14.8C2888.9,1091.9,2887.1,1091.3,2885.7,1089.3z"/>
<path class="st48" d="M2821.3,766.8c0.2,1.9,0.4,3.7,0.6,5.6c-4.9,3.5-9.8,6.9-14.7,10.4c-1.5-1.9-3-3.8-4.6-5.7
	C2805.7,768,2813.3,767,2821.3,766.8z"/>
<path class="st53" d="M2742.6,842.6c-2,8.2-6.1,14-15.5,13.8c-2.1-0.7-3.3-2.1-3.7-4.3c3.4-8.5,11.5-11.4,18.4-15.7
	c1.4,1.2,2,2.5,1.8,3.9C2743.3,841.9,2743,842.6,2742.6,842.6z"/>
<path class="st42" d="M2742.6,842.6c-0.3-2.1-0.5-4.1-0.8-6.2c4.2-7.2,7.8-14.8,15.4-19.3c-0.1,3.4-0.2,6.8-0.3,10.1
	C2756.3,836.4,2750.2,840.2,2742.6,842.6z"/>
<path class="st56" d="M2941.2,533.3c-3.1-1.3-6.2-2.6-9.2-3.9c3.6-3.7,4-10.8,11.2-10.7c6.3,0.1,7.6,4.4,7.7,9.6
	C2947.7,530,2944.5,531.7,2941.2,533.3z"/>
<path class="st57" d="M3165.9,608.4c-2.8-11.2,1.4-16.7,7.6-28C3177.6,594.8,3176.8,601.9,3165.9,608.4z"/>
<path class="st58" d="M2925.2,597.7c-3,0-6,0-8.9,0c-6.8-4.9-7.7-12.3-8.7-19.8c0.2-2.2,1-4.2,2.3-6c1.9-1.2,3.9-1.8,6.1-1.9
	c2.3,0.5,3.7,1.9,4.2,4.2C2916.9,583.1,2927.3,589.1,2925.2,597.7z"/>
<path class="st59" d="M3124.1,726.8c-1.5-1.7-3.1-3.5-4.6-5.2c3.4-7.8,0.5-20.6,15.3-19.2c0,0-0.4-0.4-0.4-0.4
	C3131,710.2,3127.6,718.5,3124.1,726.8z"/>
<path class="st60" d="M2836.9,812.1c-1.8-1.8-3.6-3.6-5.4-5.3c7.1-8.6,14.4-5.2,21.8-0.3C2849.4,812.6,2842.9,811.7,2836.9,812.1z"
	/>
<path class="st61" d="M3084.8,811.7c1.7,1.6,3.3,3.1,5,4.7c-0.2,1.6-0.3,3.2-0.5,4.9c-3.1,2.8-6.3,3.3-9.6,0.2
	c-5.9-4.6-15-3-19.7-10c0.3-0.8,0.8-1.5,1.5-2C3069.3,810.2,3077.6,804.8,3084.8,811.7z"/>
<path class="st62" d="M2723.4,852.1c1.2,1.4,2.4,2.8,3.7,4.3c-3.6,7.6-8.9,15-3.2,23.9c-9.1-0.8-5.9-12.3-12.9-14.8
	c-1.1-5.7,3.3-7.1,7.1-8.9C2719.8,855.1,2721.6,853.6,2723.4,852.1z"/>
<path class="st1" d="M2718,856.6c-2.4,3-4.7,5.9-7.1,8.9c-2.9,0.3-5.8,0.7-8.7,1c-5,1.3-10,2.7-15,4
	C2694.4,859.1,2706.7,858.8,2718,856.6z"/>
<path class="st63" d="M2737.1,886.4c-2.2-5.1-7.3-5.1-11.6-6.5c4.1-4.9,8.8-9,15.6-9.6c5.6-1.2,7.3,1.5,6.5,6.6
	C2744.1,880.1,2740.6,883.3,2737.1,886.4z"/>
<path class="st64" d="M2882.2,825.6c-2.6,0.4-5.2,0.8-7.8,1.2c-8-2.1-13.5-6.3-13.4-15.4C2870.9,811.8,2875.8,819.8,2882.2,825.6z"
	/>
<path class="st59" d="M2657.2,895.3c-9.6-2.2-13.1,20.4-25.5,6.2c1.6-5.6,7.8-6.5,10.6-10.9c0.5-3,2.1-4.6,5.3-3.9
	C2650.2,890.2,2659.5,886.3,2657.2,895.3z"/>
<path class="st65" d="M2657.2,895.3c-3.2-2.9-6.4-5.7-9.6-8.6c6.4-0.4,12.7-0.8,19.1-1.1c1.8,1.8,3.7,3.6,5.5,5.4
	C2668.7,897.9,2662.6,895.3,2657.2,895.3z"/>
<path class="st66" d="M2861.1,965.4c9.2,4.2,15.6,11.1,20.1,20c-0.6,3.4-2.6,5.6-6,6.3C2869.7,983.3,2861.7,976.4,2861.1,965.4z"/>
<path class="st67" d="M2875.2,991.7c2-2.1,4-4.2,6-6.3c3.3,5,6.6,10,9.9,15c-1.9,2.1-3.8,4.1-5.7,6.2
	C2880.1,1002.9,2877,997.7,2875.2,991.7z"/>
<path class="st68" d="M2846.8,1059.5c-2,2-3.9,3.9-5.9,5.9c-4.7-5.3-9.4-10.6-14.1-16c-0.6-4.2,0.4-6.7,5.3-4.9
	C2838.2,1048.3,2846.2,1050.3,2846.8,1059.5z"/>
<path class="st69" d="M2970.4,527.6c0.2-1.7,0.3-3.5,0.5-5.3c7,1,15.2-1.4,19.7,6.7c-0.1,6.3-0.1,12.5-0.2,18.8
	C2983.7,541.2,2987.1,524.4,2970.4,527.6z"/>
<path class="st70" d="M2890.4,1089.6c1.2-5.1-0.9-11.5,5.6-14.6c3.7-2.6,5.3-0.2,6.6,2.8c-2.8,8.4,6.5,8.3,9.1,12.9
	c-6.5,5-13.8,4-21.1,3.1c-1.4-0.9-1.9-1.9-1.5-2.8C2889.5,1090.1,2890,1089.6,2890.4,1089.6z"/>
<path class="st71" d="M2742.5,735.4c7.5,3.6,18,3.7,18.3,15.7c-7.2-1.2-14.3-2.4-19.1-8.7C2739.4,739.7,2739.7,737.4,2742.5,735.4z"
	/>
<path class="st72" d="M2696.9,588.4c-1.6,4.8-3.3,9.6-4.9,14.5c-5.1,0.1-10-1.1-9.4-7.3C2683.5,586.3,2690.8,588.1,2696.9,588.4z"/>
<path class="st19" d="M2900.1,1030.4c2-0.1,4-0.2,6-0.3c2.9,2.9,5.3,5.9,4.2,10.3c-4.8,3.2-9.7,6.4-14.5,9.6
	C2897.3,1043.5,2898.7,1037,2900.1,1030.4z"/>
<path class="st73" d="M2772.5,852c1.5,1.6,3,3.1,4.5,4.7c-3.4,5.8-8.3,9.3-15.1,9.6c-3.1-0.6-5-2.4-5.6-5.5
	C2760.2,855.2,2766.5,853.9,2772.5,852z"/>
<path class="st74" d="M3000.1,856.3c3.4-5,6.9-10,10.3-14.9c3.7-0.2,7.7-4.6,10.8,1C3017.6,852.1,3010,856,3000.1,856.3z"/>
<path class="st75" d="M3079.7,821.5c3.2-0.1,6.4-0.2,9.6-0.2c-3.1,6.7-6.3,13.3-9.4,20c-2.2-0.9-3.5-2.5-4.2-4.7
	C3077,831.5,3078.3,826.5,3079.7,821.5z"/>
<path class="st76" d="M3089.7,707c-1.6,0-3.2,0-4.7,0c-7.3-2.7-9-8.2-8-15.2c1.5-5,3.7-9.5,9-11.6
	C3090.9,688.6,3090.2,697.8,3089.7,707z"/>
<path class="st77" d="M2840.9,947.8c0.4-4.3,0.8-8.6,1.2-13c4.7,6.9,9.4,13.9,14,20.8C2849.2,956.7,2842.9,956.5,2840.9,947.8z"/>
<path class="st78" d="M2756.1,860.8c1.9,1.8,3.8,3.7,5.6,5.5c-4.7,3.5-9.5,7.1-14.2,10.6c-2.2-2.2-4.4-4.4-6.5-6.6
	C2746.1,867.1,2751.1,864,2756.1,860.8z"/>
<path class="st79" d="M2911.6,1090.8c-3.7-3.7-18.9,3.6-11-11.4c1.4-1.7,2.9-1.7,4.5-0.1c3.3,6.6,9.4,5.2,14.9,5.5
	C2919.6,1089.9,2915.2,1089.8,2911.6,1090.8z"/>
<path class="st80" d="M2742.5,735.4c-0.3,2.3-0.6,4.6-0.9,7c-6.6-5.1-13.2-10.3-19.8-15.4c4.4-0.3,8.3-1.5,10.7-5.7
	C2735.8,725.9,2739.1,730.7,2742.5,735.4z"/>
<path class="st81" d="M2880.8,526.9c9.3,7.1,2.3,9.3-3.5,11.9c-5.2-3-11.7-2.1-16.5-6.1C2866,526,2874.1,528.7,2880.8,526.9z"/>
<path class="st82" d="M2890.4,1089.6c0.2,1.4,0.2,2.8,0.1,4.3c-11.2,0.7-24.7,6-26-13.1c7.3,2.1,11.4,12.4,21.1,8.5
	C2887.2,1089.6,2888.8,1089.7,2890.4,1089.6z"/>
<path class="st83" d="M3054.9,885.9c4.8,1.9,4.5,6.6,5.4,10.5c-1.7,3.2-3.5,6.3-5.2,9.5c-1.7-1.6-3.3-3.2-5-4.7
	C3051.8,896.1,3053.3,891,3054.9,885.9z"/>
<path class="st77" d="M2741.5,574.4c-3.4-2.4-6.8-4.9-10.1-7.3c3.2-6.3,7.8-10.4,15.5-9.1c0,0-0.2-0.2-0.2-0.2
	c5.7,6.9,1.4,10.8-4.4,14.2C2742.1,572.8,2741.8,573.6,2741.5,574.4z"/>
<path class="st47" d="M2731.8,632.4c-3.4,0-6.8-0.1-10.2-0.1c-2.8-4-4.5-8.5-0.3-12.2c3.7-3.2,6.8,0.8,9.9,2.5
	C2731.5,625.9,2731.6,629.2,2731.8,632.4z"/>
<path class="st60" d="M2801.4,836.5c3.7-5.5,7.1-11.3,15.2-10.3C2815.6,835.6,2812.8,842.4,2801.4,836.5z"/>
<path class="st84" d="M3021.2,842.3c-3.6-0.8-7.7,4.8-10.8-1c2.9-5.5,5.8-10.9,8.8-16.4c1.9,3.7,3.7,7.4,5.6,11.1
	C3025.8,839.4,3023.6,840.9,3021.2,842.3z"/>
<path class="st41" d="M3030.5,955.8c1.7,1.7,3.4,3.5,5,5.2c-1.2,5.3-2.2,14.4-8.6,10.9C3021.3,968.9,3023.6,960.2,3030.5,955.8z"/>
<path class="st39" d="M3144,676.8c-1.7-1.8-3.4-3.5-5.1-5.3c2.1-4.7,4.2-9.5,6.2-14.2c1.6-1.7,3.3-1.6,4.9,0
	C3148,663.9,3146,670.3,3144,676.8z"/>
<path class="st85" d="M3086,680.2c-1.8,4-3.6,7.9-5.3,11.9c-7.5-5-11.1-11.1-5.9-19.8c2-0.2,3.9-0.4,5.9-0.5
	C3085,672.9,3086.2,676.1,3086,680.2z"/>
<path class="st35" d="M2770.7,746.7c5.5,0.2,10.9,0.4,16.4,0.6c0,1.5-0.2,2.9-0.6,4.3C2777.9,760.9,2772.9,758.4,2770.7,746.7z"/>
<path class="st86" d="M2832.1,1044.5c-1.8,1.6-3.5,3.3-5.3,4.9c-5.3-2.2-12.8-6.6-8.7-11.2C2824.4,1031,2828.4,1039.8,2832.1,1044.5
	z"/>
<path class="st87" d="M2860.7,532.7c6,0.6,12.8-0.7,16.5,6.1c-1.9,1.5-3.8,3.1-5.7,4.6c-5-9.1-14.4-3.3-21.2-6.2
	C2853.8,535.7,2857.3,534.2,2860.7,532.7z"/>
<path class="st19" d="M3069.7,870.9c-1.8-1.9-3.6-3.7-5.4-5.6c0-5.6,2.2-10.2,5.9-14.2c2-1.6,3.9-1.4,5.7,0.4
	C3075.7,858.6,3074.1,865.2,3069.7,870.9z"/>
<path class="st88" d="M2642.3,890.7c-0.3,6.8-4.2,10.1-10.6,10.9c-3.1-0.1-6.3-0.2-9.4-0.3c0,0,0.8-1.2,0.8-1.2
	c-2.8-9.6,7.1-4.7,9.5-8.2C2635.8,891.4,2639,891,2642.3,890.7z"/>
<path class="st89" d="M2816.3,542.9c-1.9,5-3.8,10-5.8,15c-3.2-4.3-10-10.1-8.9-12.6C2803.9,539.9,2811.1,542.9,2816.3,542.9z"/>
<path class="st90" d="M2910.8,900.9c1.8,1.9,3.7,3.8,5.5,5.6c-2.6,4-4.7,8.7-10.5,9.1c-1.9-1.7-3.8-3.4-5.8-5.2
	C2902.5,906.1,2905.3,901.9,2910.8,900.9z"/>
<path class="st91" d="M3075.9,851.6c-1.9-0.1-3.8-0.3-5.7-0.4c-1.2-6,1.7-10.6,5.5-14.7c1.4,1.6,2.8,3.2,4.2,4.7
	C3078.6,844.7,3077.2,848.1,3075.9,851.6z"/>
<path class="st59" d="M2632.6,891.8c-3.2,2.7-6.3,5.5-9.5,8.2c-1.8,0-3.6,0-5.4,0.1c-6.1-13.5,6-7.7,10.5-9.9
	C2629.8,890.4,2631.2,891,2632.6,891.8z"/>
<path class="st1" d="M2920.2,574.3c-1.4-0.7-2.8-1.2-4.2-1.6c-6.1-8.2-7.9-16.2,0.8-23.9c1.3-0.3,2.7-0.6,4-0.9
	C2920.6,556.7,2920.4,565.5,2920.2,574.3z"/>
<path class="st92" d="M3010.3,780.1c2.2,3.9,4.3,7.8,6.5,11.7c-17,20.5-29.1,2.9-42.3-4.2c1.2,7.1,10.6,17.4-5.6,21.7
	c-8.5-0.7-14.7-7.2-22.7-9.1c-6.6-2.5-11.9-11.7-20.4-3.7c-13.4-4.4-28.7-3.5-39.9-14c1.2-2,2.9-3.4,5.1-4.3c3.4-0.9,6.8-0.7,10.2,0
	c5.6,1.8,10.6,1.4,14-4.3c6.1-6.9,14.3-10,22.6-13.1c8.6-2.5,15.5-8.1,23.2-12.4c11-3.4,20.5-10.2,31-14.7
	c9.1-1.2,17.7,0.7,25.2,5.7c5.1,3.4,5.3,7.7-1.5,10.1c-4.1,2.2-6.9,5.2-6,10.3C3000.8,766.9,3002.1,773.6,3010.3,780.1z"/>
<path class="st93" d="M2965.7,806.4c16.5-5.4,2.1-15.3,3.3-23.1c17-3.5,28.2,26.5,47.8,8.5c7.1,6.9,1.2,13-1.3,19.3
	c-15-10.9-23.6-6.3-27.7,10.9c-2.5,10.3-5.4,20.6-12.3,29c-3.3,3-6.3,3.2-8.9-0.9c-3.8-12.7,1.6-28.1-11.4-38
	C2954.6,802.8,2959.5,803.4,2965.7,806.4z"/>
<path class="st19" d="M2891.3,781c-1.8,0.5-3.6,1-5.5,1.5c-9.6-3.3-19.3-6.5-28.9-9.8c3.1-5.7,8.5-5.5,13.9-5.2
	c5.4,1.8,9.1-1.8,13.3-4.3c5.7-1.8,11.1-1.6,16.1,1.8C2905.7,775,2896.7,777,2891.3,781z"/>
<path class="st94" d="M2891,851.2c4.9-3.2,9.8-6.5,14.8-9.7c9.6,1,16.1,6.3,20.2,14.8c-2.7-0.3-5.5-0.5-8.2-0.8
	C2909.3,851.1,2899.2,856.6,2891,851.2z"/>
<path class="st58" d="M2965.7,806.4c-4.3,0.5-8.6,1-10.6,5.8c-5-3.3-10-6.7-14.9-10c-0.8-5.5,0.9-8.4,7-7
	C2955,796.1,2961.5,799.3,2965.7,806.4z"/>
<path class="st95" d="M2870.8,771.3c-4.6,0.5-9.2,0.9-13.8,1.4c-3.5-0.4-7-0.9-10.5-1.3c1.5-1.7,2.9-3.4,4.4-5.1
	c1.8,0.1,3.5,0.3,5.3,0.4c3.1-3.1,6-6.5,10.8-7c2.3,0.1,4.2,1.1,5.8,2.8C2874,765.8,2874.1,768.9,2870.8,771.3z"/>
<path class="st96" d="M2947.2,795.1c-2.3,2.3-4.7,4.7-7,7c-4.8-1.9-9.6-3.8-14.3-5.7C2931.9,779.2,2939.9,793.2,2947.2,795.1z"/>
<path class="st97" d="M2966.5,850.1c3,0.3,6,0.6,8.9,0.9c0,1.7,0.1,3.4,0.1,5c-2.1,4.3-6.2,4.9-10.3,5.3c-3.5-1.4-6.9-2.8-10.4-4.2
	C2959.3,855.8,2964.2,855.2,2966.5,850.1z"/>
<path class="st1" d="M2891,851.2c9,0.9,18.9-4,26.7,4.3c-10.6,0.2-21.2,0.4-31.9,0.6C2887.5,854.5,2889.2,852.9,2891,851.2z"/>
<path class="st98" d="M2731.7,662.4c-10.3-9.1-0.1-13.5,4.5-19.2c1-0.2,2-0.4,3-0.5c4.9,21.8,25.5,4.6,37.2,14.8
	c-5.9,7.8-16.4,10.7-19.7,19.8c-2.4,2.6-5.2,3-8.4,2c-5.3-3.7-4-11.3-8.9-15.1C2737.3,661.2,2735.3,658.2,2731.7,662.4z"/>
<path class="st99" d="M2746.8,677.3c3.3,0,6.5,0,9.8-0.1c1.3,5.4,4.7,8.5,10,9.5c0,1.5-0.1,3.1-0.1,4.6c0.5,7-2.6,11.6-9,14.2
	c-0.2,2-0.5,3.9-0.7,5.9c-1.8-1.2-3.6-2.5-5.4-3.7c-6.7-6.5-16.7-9.9-19.6-20.2C2734.2,680.3,2737.3,674.1,2746.8,677.3z"/>
<path class="st97" d="M2757.1,602.6c1.5-0.3,2.9-0.4,4.4-0.1c11.4,10.8,14.8,21.8,0.4,32.9c-12.8,1-14.8-7.4-15-17.3
	C2747.9,611.3,2745.5,602.3,2757.1,602.6z"/>
<path class="st26" d="M2825.3,633.4c15.5-3.1,9.9-12.3,6-21c18.6-5.4,16,9.5,18.7,19.5c0.8,4.5,1,9-0.4,13.4c-1.3,3.3-3.6,5.7-6.9,7
	c-1.1-0.1-2.3-0.2-3.4-0.3C2834.6,645.8,2830,639.6,2825.3,633.4z"/>
<path class="st69" d="M2739.2,642.6c-1,0.2-2,0.4-3,0.5c-0.2-3.2-0.3-6.4-0.5-9.6c8.3-5.3,4.4-14.3,6.5-21.5c4.3-1,6.1,1.4,6.8,5.1
	c0.8,8-3,19.1,11.8,17.7c3.3-0.1,6.6-0.4,9.6,1.4C2762,648.5,2749.4,639.5,2739.2,642.6z"/>
<path class="st17" d="M2839.3,652.1l-0.6,0.1c7.8,12.7-3.7,18-9.7,25.5c-2.1,1.1-4.4,1.5-6.8,1.2c-5.7-3.9-11.9-7.4-10.5-16
	C2820.9,659.3,2830.1,655.7,2839.3,652.1z"/>
<path class="st79" d="M2770.4,636.4c-2.9,0.2-5.8,0.3-8.7,0.5c-1.7-0.8-2.2-1.6-1.7-2.5c0.5-0.8,1.1-1.2,1.7-1.2
	c7.7-10.3,4.3-20.5-0.2-30.7C2785.4,608.3,2772.7,623.7,2770.4,636.4z"/>
<path class="st100" d="M2811.7,662.9c3.2,4.5,9.8,6.5,9.9,13.4c-2.6,5.4-7.3,6.4-12.6,6.3c-3.4-4.9-5.8-10.9-13.2-10.8
	C2799.5,665.9,2803.9,661.3,2811.7,662.9z"/>
<path class="st101" d="M2746.7,617.5c-1.5-1.8-3-3.6-4.5-5.4c0.5-5.2-3.2-12,4-14.8c4.7-1.8,9.7-1.4,10.9,5.3
	c-6.6,3-4.6,9.6-6.1,14.7C2749.7,619.8,2748.3,619.7,2746.7,617.5z"/>
<path class="st1" d="M2825.8,676.3c4.3-8,8.6-16.1,12.9-24.1c2.2-2.1,4.3-4.1,6.5-6.2c7.1-2.6,4.8-11.3,10-15.1
	c5.3-4,12.2-5.8,15.8-12.1c5.5-8.4-0.1-15.1-3.3-22.1c-0.8-2.3-1.3-4.7-1.5-7.1c-0.1-5.2,1-9.9,4.8-13.8c8-5.1,17.9-1.3,26-5.5
	c5.4-1.9,10.2-1.8,13.7,3.6c1.9,7.9,3.8,15.9,5.7,23.8c-3.8,6.5-7.6,12.9-11.4,19.4c-3.2,7.1,1.4,11.2,5.8,15.5l1.4-0.4
	c0.8,2.2,0.8,4.3,0,6.5c-2,10.2,0.6,19.9,2.9,29.7c3.9,14.6-5,23.9-13.4,33.5c-5.3,6.3-1.4,15-5.7,21.6c-2,1.3-4.1,2.1-6.4,2.4
	c-14-1-23.6-9.9-33.3-18.5c-10.2-6.2-20.4-12.3-30.6-18.5C2822.6,684.6,2823.3,680.4,2825.8,676.3z"/>
<path class="st102" d="M2870.9,762.3c-1.3-0.9-2.8-1.3-4.4-1.4c-4.9-0.5-6.9-3.4-6.5-8.1c-0.7-6.6-3.1-12.2-8.9-15.9c0-5,0-10,0-15
	c16.7-11,25.7,1.9,35.7,11.5c6,7.7,12.6,15,17.7,23.4c2.3,3.9,5.1,9.4-3.4,10.4c-6.7,0-13.4,0.1-20.1,0.1
	C2875.6,769.7,2873.9,764.6,2870.9,762.3z"/>
<path class="st103" d="M2885.1,738.4c-11.5-5.1-16.2-24.2-33.9-16.5c1.6-4.8,3.3-9.7,4.9-14.5c13.5,0.6,21.9,13.1,34.8,15.1
	C2893.4,729.4,2891.3,734.7,2885.1,738.4z"/>
<path class="st104" d="M2825.8,676.3c-0.1,4.2-0.2,8.4-0.3,12.6c-1.3,2.8-3.3,5.5-3.7,8.4c-0.9,6.3-3,11.5-10.2,10.2
	c-8.9-1.7-4.3-8.4-3.8-13.4c0.4-3.8,0.8-7.7,1.2-11.5c2.4-5.7,7.7-5.4,12.6-6.3C2823,676.7,2824.4,676.7,2825.8,676.3z"/>
<path class="st105" d="M2757.6,705.6c3-4.7,6-9.5,9-14.2c5.9,0.9,12.1,2.6,9.1,10.1C2772.1,710.5,2764.6,708.4,2757.6,705.6z"/>
<path class="st106" d="M2781.7,722.3c-0.3-2.3-0.5-4.5-0.8-6.8c0.2-3.3,1.3-6.4,4.9-6.5c1.3-0.1,4,2.6,3.9,4
	C2789.5,717.8,2787.5,721.9,2781.7,722.3z"/>
<path class="st107" d="M3015.7,749.6c-4-15.2-18.2-7.5-27-12c-16.8,2.7-17.5-8.6-17.7-20.3c4-11.7,7.7-23.7,20.2-29.6
	c13.1-3.3,25.1-1.2,35.7,7.3c9.9,17.5,27.1,33.5,11.5,56.2C3030.8,750.7,3023.2,750.1,3015.7,749.6z"/>
<path class="st108" d="M3038.3,751.2c9.5-21.4-7.7-35.7-13.9-53c-2.2-3.6-2.5-7.3-0.6-11c17.8-7.2,16.7,11.2,24.4,17.8
	c4.1,18.3,25.1,34.3,8,55.6c0,0-1.7,1-1.7,1C3048.1,759.7,3054,738.7,3038.3,751.2z"/>
<path class="st31" d="M3010.3,780.1c-6.2-3.9-14.6-7.7-14.6-15c0-6,9.6-2.1,14-5.3C3006.9,766.7,3008.6,773.4,3010.3,780.1z"/>
<path class="st109" d="M2910.6,573.9c-4.9-0.3-9.8-0.7-14.7-1c-1.4-1.2-2-2.6-1.7-4c0.3-1.5,0.6-2.2,1-2.2c0.1-3.8,0.3-7.5,4.2-9.5
	c5.3-0.9,4.6-11.9,9.2-8.7c8.2,5.8,5.7,15.2,2.1,23.6L2910.6,573.9z"/>
<path class="st65" d="M2895.2,566.7c0.2,2.1,0.5,4.1,0.7,6.2c-7.5,10.9-15.8,3.7-23.9,1.1c-2.6-1.9-2.6-3.8-0.2-5.8
	C2879.7,567.7,2887.4,567.2,2895.2,566.7z"/>
<path class="st110" d="M2910.6,572c-5.6-3.6,11.8-24.5-11.2-14.9c1.7-6.3,2.1-13.7,11-14.7c2.1,2.1,4.3,4.2,6.4,6.4
	c-0.3,8-0.5,15.9-0.8,23.9C2914.2,572.5,2912.4,572.3,2910.6,572z"/>
<path class="st111" d="M2826.9,558.1c1.3-0.2,2.7-0.6,4-1c7.7,11.3,22.6,0.6,30.9,10c-0.9,1.1-1.8,2.1-2.7,3.2
	c-2.4,1.5-5,2.5-7.8,3.1C2841,571.7,2824.3,580.3,2826.9,558.1z"/>
<path class="st111" d="M2871.9,568.2c0,1.9,0.1,3.9,0.1,5.8c-0.5,6.4-1,12.9-1.5,19.4c-13.4-4.4-11.8-14.7-9.8-25.1
	c0,0,1.1-1.2,1.1-1.2C2865.1,567.5,2868.5,567.8,2871.9,568.2z"/>
<path class="st112" d="M2905.1,1079.2l-2.2,0.3c0,0-2.2-0.1-2.2-0.1c-1.6-1.5-3.1-2.9-4.7-4.4c0-1.6,0-3.1,0-4.7
	c6.2,0.8,12.9-8.4,17.3-2.5C2918.3,1074.3,2906.5,1074.2,2905.1,1079.2z"/>
<path class="st113" d="M2746.8,677.3c-5,3.4-9.9,6.9-14.9,10.3c-7.3-5.3-25.8,16.4-24.3-10.1c7.2-0.2,14.3-0.5,21.5-0.7
	c9.6-0.4,0.4-17.5,13.3-14.9C2755.6,663.6,2750.9,670.5,2746.8,677.3z"/>
<path class="st114" d="M2742.4,661.9c-6.9,2.7-4.1,14.1-13.3,14.9c2.9-4.4,4.2-9.1,2.6-14.3C2734.5,647.5,2738.7,659.5,2742.4,661.9
	z"/>
<path class="st115" d="M3084.8,811.7c-7.8-0.7-15.6-1.4-23.3-2.1c4.1-4.5,13.9-2.3,13.6-11.8c3.2-2.2,6.4-4.5,9.6-6.7
	C3089,797.8,3089.5,804.7,3084.8,811.7z"/>
<path class="st116" d="M2930.4,630.8c8.6-3.4,17.2-5.1,25.5,1c2.6,6.1,8.4,8.3,13.6,11c6.5,12.2-13.8,11-10.7,21.6
	c7.9,16.5,4.9,27.4-15.2,29.4c-16.4-11.3-33.7-22.2-24-46.9C2923.2,641.5,2926.8,636.1,2930.4,630.8z"/>
<path class="st117" d="M2950,663c-8.4-7.5-1.3-9.1,4.3-10.4c6.3-1.6,13.5-1.2,15.2-9.8c3.7,3.3,7.4,6.6,11,9.9
	c-0.1,1.4-0.2,2.7-0.2,4.1c-0.9,4.9-4.4,6.9-8.8,7.8C2964.3,665.6,2957.3,662.8,2950,663z"/>
<path class="st6" d="M2875.9,622.1c-3.2,9.8-11.1,10.7-19.6,10.3c-3.3,3-6.7,3-10.1,0c-5.7-6.1,1.6-21.9-14.9-20
	c-4-5.3-12.5-6.9-12.5-15.4c-1-9.7,0.3-17.6,13-16.3c8.9-0.5,18.2-9.5,26.6,1.1c3.4,6.6,5.7,13.8,10.4,19.7
	C2873.7,607.5,2873.2,615.3,2875.9,622.1z"/>
<path class="st118" d="M2831.2,587.7c-11.8-7.1-8.4,6.1-12.5,9.3c0-8.3-15-15.1-2.5-24.6c5.9-5.1,12.5-2,18.8-1.4
	C2841.5,578.3,2834.9,582.7,2831.2,587.7z"/>
<path class="st119" d="M2835.8,573.5c-6.5-0.4-13.1-0.8-19.6-1.1c0.2-7.2,3.2-12.5,10.7-14.3c3.7,20.1,20.8,3.1,29.1,10.5
	c1.6,2.6,1.1,4.8-1.6,6.4C2848.2,575.3,2841.7,578.8,2835.8,573.5z"/>
<path class="st58" d="M2919.6,646.8c-0.9,20.7,13.2,32.6,26.4,44.9c-0.9,3.7-3.2,6.2-6.8,7.4c-20.6-5.3-21.8,12.5-28.4,23.9
	c-2.4,0.5-4.6,0.1-6.6-1.4c-7.7-4.6,3.4-18.7-10.3-20.3c8-10.2,23-17,16.3-34.2c-2.7-9.9-3.1-19.9,0.3-29.7c0.5-1.8,1-3.5,1.5-5.3
	C2914.5,637,2917.1,641.9,2919.6,646.8z"/>
<path class="st120" d="M2910.6,632.6c-4.6-0.4-10.8,1.8-12.8-4c-1.8-5.4,2.7-8.8,7-11.5C2906.8,622.3,2908.7,627.4,2910.6,632.6z"/>
<path class="st121" d="M2742.2,571.9c1.5-4.7,2.9-9.5,4.4-14.2c8.1,2.1,16-10.8,24.1-0.2C2763.4,566.6,2754,571.6,2742.2,571.9z"/>
<path class="st38" d="M2970.9,662.8c3.2-2,6.3-4,9.5-6c21.5,1.9,42.9,3.8,64.4,5.8c9,6.4,18.7,10.5,30,9.7c2,6.6,3.9,13.2,5.9,19.8
	c1.5,5,2.9,10,4.4,15c-0.9,11.4-7.5,21.9-5.5,33.7c-4.6,6.2-5,14.7-11,20.1c-4-0.1-8.1-0.2-12.1-0.3c6.8-19.9-9-34.8-11.6-52.6
	c-3.6-16.4-9.2-28.8-30.4-21.2c-7.4,2.7-16.1-1.5-24.2-2.8c-3.8-0.4-7.6-1.2-11.2-2.7C2972.1,676.9,2964.4,672.9,2970.9,662.8z"/>
<path class="st82" d="M3068.4,760.9c0.7-8.4,5.2-14.6,11-20.1c0.2,2.2,0.4,4.3,0.7,6.5C3076.3,751.9,3075.8,759.4,3068.4,760.9z"/>
<path class="st122" d="M2860,752.7c2.2,2.7,4.4,5.4,6.5,8.1c-2,4.6-5.9,5.7-10.4,5.8C2856.4,761.7,2856,756.6,2860,752.7z"/>
<path class="st123" d="M2885.1,738.4c2-5.3,3.9-10.6,5.9-15.9c0.9-1.1,2.1-1.5,3.5-1.4c12.5-1.2,10.8,10.7,15.5,16.8
	c3.3,6.5,5.8,13.2,7.1,20.4c0.8,4.7,2,9.5-0.2,14.1c-5,4.4-7.5,13.1-17,9.9c-2.8-0.4-5.7-0.9-8.5-1.3c3.3-4.6,6.5-9.2,9.8-13.8
	C2902.9,753.6,2885.3,750.9,2885.1,738.4z"/>
<path class="st27" d="M2975.2,716.9c0.7,9.4,2.1,18.2,13.5,20.7c-5.6,11.8-16.7,13.6-27.9,15c-4.5-2.5-6.4-6.7-7.4-11.4
	c-0.3-7.3,1.6-14.1,5.7-20.2C2963.6,716.9,2968.7,714,2975.2,716.9z"/>
<path class="st117" d="M2958.1,741.8c0.9,3.6,1.8,7.2,2.6,10.9c-4.7,7.7-12.2,11-20.3,13.3c-3.1-2.9-9-0.2-10.9-5.5
	c0.6-6.5,5.8-9,10.4-12.1C2945.7,745.6,2950.6,740,2958.1,741.8z"/>
<path class="st124" d="M2930.1,761.4c3.4,1.5,6.8,3,10.3,4.5c-8.2,3.6-16.3,7.2-24.5,10.8c-1.5-1.1-2.1-2.3-1.7-3.6
	c0.4-1.3,0.9-1.9,1.4-1.9c-1.4-3.4-2.9-6.9-4.3-10.3C2917.6,756.4,2923.9,755.7,2930.1,761.4z"/>
<path class="st17" d="M2915.6,771.3c0.1,1.8,0.2,3.6,0.3,5.5c0.6,3.1,2.6,8.4,1.7,9c-6.5,4.1-12.4,0.9-17.7-3.4
	C2905.1,778.6,2910.3,774.9,2915.6,771.3z"/>
<path class="st125" d="M2870.9,762.3c3.4,1.7,6.7,3.4,10.1,5c0.4,2.6,4.4,6.3,0.2,7.5c-2.9,0.8-6.9-2.2-10.4-3.5
	C2870.8,768.3,2870.9,765.3,2870.9,762.3z"/>
<path class="st80" d="M2746.7,617.5c1.4-0.1,2.9-0.2,4.3-0.2c1.6,6.6,0.5,15.1,10.7,15.9c0,1.2,0,2.5,0,3.7
	C2744.5,639.9,2745.1,629.1,2746.7,617.5z"/>
<path class="st126" d="M2846.2,632.4c3.4,0,6.7,0,10.1,0c-0.4,7.2-3.6,12.2-11.1,13.6C2845.5,641.4,2845.8,636.9,2846.2,632.4z"/>
<path class="st17" d="M2905.8,741.8c-8-4.6-1.8-17-11.4-20.7c-3.6-6.5-6.8-13-0.4-19.8c21.5-2.7,7.7,15.1,12.7,21.9
	C2911.6,729.7,2911.4,735.9,2905.8,741.8z"/>
<path class="st125" d="M2855.6,574.4c0.1-2,0.3-3.9,0.4-5.9c1.5-0.4,3.1-0.5,4.7-0.2c8.6,6.3,3.6,17.9,9.8,25.1c0,1.8,0,3.5,0,5.3
	c0.7,3.7-0.2,5.7-4.4,3.9c-8.5-3.9-7.3-13-10.3-19.8C2853.5,580,2853.3,577.3,2855.6,574.4z"/>
<path class="st127" d="M2866.1,602.6c1.5-1.3,2.9-2.6,4.4-3.9c15.4,4.7,12,13.7,5.4,23.5C2867.6,618.1,2868.6,609.5,2866.1,602.6z"
	/>
<path class="st116" d="M2910.5,637.4c-0.1,9.9-0.2,19.8-0.3,29.7C2903.7,657.2,2903.2,647.3,2910.5,637.4z"/>
<path class="st128" d="M2975.2,716.9c-4.5,1.6-8.9,3.2-13.4,4.8c-10.6-5-21.5-9.7-21.5-24.2c1.9-1.9,3.8-3.9,5.7-5.8
	c15.8-7.6,17.7-17.1,4-28.8c6.9-8,13.9-2.6,20.9-0.2c0.4,6.6,4.9,10.6,9.6,14.4c3.9,4.5,13.7,5.1,9.8,14.8
	C2985.3,700.3,2983.4,710.5,2975.2,716.9z"/>
<path class="st65" d="M2990.3,691.9c-3.3-4.9-6.6-9.9-9.8-14.8c2.9,0.2,5.9,0.3,8.8,0.5c10.2,9.8,24.8,4.1,36.1,10
	c-0.3,3.5-0.6,7.1-0.9,10.6C3013.7,692.7,3002.1,692.1,2990.3,691.9z"/>
<path class="st107" d="M3025.4,687.6c-12.2-2.9-26.7,2.9-36.1-10c10.3,1.5,21.5,6.2,30.8,3.8c27.1-7,27.3,7.7,24.7,26.6
	C3032.2,707,3042.2,684.6,3025.4,687.6z"/>
<path class="st129" d="M2855.6,574.4c0.1,2.8,0.2,5.6,0.2,8.4c-10.2-8.5-15.3,8.6-24.6,4.9c1.5-4.7,3.1-9.5,4.6-14.2
	C2842.4,573.8,2849,574.1,2855.6,574.4z"/>
<path class="st130" d="M2940.3,697.6c3.1,11.7,19.7,11.3,21.5,24.2c-1.2,6.7-2.5,13.3-3.7,20c-4.4,4.8-8.2,10.5-15.6,10.8
	c-27.2,6.6-34,0-31.8-31C2910.4,689.4,2914.1,686.4,2940.3,697.6z"/>
<path class="st92" d="M2910.7,721.5c1.9,19.3,7.6,34.7,31.8,31c-4.1,3-8.2,5.9-12.4,8.9c-6.3-0.1-12.6-0.3-18.9-0.4
	c1.1-7.2,0-13.8-5.4-19.1c0.3-6.2,0.6-12.4,0.9-18.6C2908,722.7,2909.3,722.1,2910.7,721.5z"/>
</svg>
