<?xml version="1.0" encoding="utf-8"?>
<!-- Generator: Adobe Illustrator 22.0.0, SVG Export Plug-In . SVG Version: 6.00 Build 0)  -->
<svg version="1.1" id="Capa_1" xmlns="http://www.w3.org/2000/svg" xmlns:xlink="http://www.w3.org/1999/xlink" x="0px" y="0px"
	 viewBox="0 0 1366 768" style="enable-background:new 0 0 1366 768;" xml:space="preserve">
<style type="text/css">
	.st0{fill:#FFFFFF;}
</style>
<g>
	<path class="st0" d="M30.8,543.4c0,4.9,1.4,9.8,4.3,14.6c3.9,6.4,9.5,10.7,16.6,13.1c8,2.6,18.9,1.8,27.1-4.6
		c-2.1-0.8-4.3-1.7-6.4-2.5C57.8,558,44,551.1,30.8,543.4z"/>
	<path class="st0" d="M522.5,187.8c1.4-5.5,0.6-10.8-1.9-15.8c-2.8-5.7-9.1-11-16.9-12c4.4,13.1,7.9,26.5,10.7,40.1
		C518.4,197.2,521.1,193.1,522.5,187.8z"/>
	<path class="st0" d="M298.7,614.4c0.9,1.7,1.6,3.3,2.5,4.9c2.4,4.3,4.9,8.6,7.3,13c1.9,3.4,3.6,6.9,5.6,10.3
		c2.7,4.7,2.7,4.6,7.4,2.6c2.6-1.1,2.8-1.8,1.8-4.5c-1.1-3-2-6-3-9c-1.3-4.2-2.5-8.5-3.8-12.7c-1.1-3.5-2.2-7-3.4-10.6
		C308.4,610.3,303.7,612.3,298.7,614.4z"/>
	<path class="st0" d="M541.6,477c4.6,1.6,9.2,3.4,13.8,5c6.4,2.1,6.4,2,9.1-3.7c1.5-3.1,1.1-4-2.1-5.7c-3.5-1.8-6.9-3.8-10.2-5.9
		c-4.8-2.9-9.4-5.8-14.2-8.7c-3.9-2.4-7.9-4.6-12-7c-2.7,5.8-5.5,11.6-8.4,17.7c2.3,0.9,4.3,1.7,6.4,2.4
		C529.9,473.1,535.8,475,541.6,477z"/>
	<path class="st0" d="M295.4,583c5.2-2.6,10.2-8,12.1-14.7c-12.7,4.7-25.6,8.5-38.8,11.6c2.6,2.4,5.9,4.1,9.9,5.1
		C284.5,586.4,290.1,585.7,295.4,583z"/>
	<path class="st0" d="M554.8,166.5c4.1-2.3,8.1-4.6,12.2-6.9c3.2-1.8,6.5-3.4,9.7-5.2c4.4-2.5,4.4-2.6,2.5-7c-1-2.4-1.7-2.6-4.3-1.7
		c-2.8,1-5.6,1.9-8.4,2.8c-4,1.2-8,2.4-12,3.6c-3.3,1-6.6,2.1-10,3.2c1.9,4.5,3.7,8.9,5.7,13.6C551.8,168.1,553.3,167.3,554.8,166.5
		z"/>
	<path class="st0" d="M3.1,652.4c-1.3-0.8-1.1-2.5,0.3-3.4c4.4-2.8,5.3-7.4,6.2-12c2.2-11,4.3-22,6.4-33c0.5-2.5,1.1-4.9,1.5-7.4
		c0.3-1.7-0.1-3.1-2-3.7c-0.6-0.2-1.2-0.5-1.9-0.8c-3.6-1.1-3.5-4.4-2.6-6.9c0.6-1.7,2-2.1,3.7-1.5c1.3,0.5,2.5,1,4.1,1.7
		c0.3-4.4,0.6-8.5,0.7-12.6c0.2-10.6-0.2-21.2-2.6-31.6c-0.6-2.6-1.3-5.2-1.9-7.7c-5.1-3.4-10.1-6.9-15-10.6v147.4
		c1.5-4.3,2.9-8.6,4.3-12.9C4.9,655.6,5.4,653.8,3.1,652.4z"/>
	<path class="st0" d="M19.7,649.1c3.2,1.3,4.1,0.8,5.6-2.4c1.7-3.6,3.5-7.1,5.3-10.5c2.6-4.9,5.3-9.8,7.9-14.7
		c2.1-4.1,4.2-8.2,6.4-12.4c-5.9-2.4-11.8-4.9-18.1-7.4c-0.7,2.3-1.5,4.4-2.1,6.5c-1.7,6-3.3,12-5,17.9c-1.3,4.7-2.9,9.3-4.2,14
		C13.7,646.7,13.8,646.7,19.7,649.1z"/>
	<path class="st0" d="M474.4,458c6.6-3.5,11.2-8.9,14-15.9c3.3-8.4,2.7-20.4-4.4-29.1c-8.8,16.9-18.8,32.7-30,47.4
		C460.7,462.4,467.5,461.7,474.4,458z"/>
	<path class="st0" d="M1366,0H390.6c0.2,0.6,0.3,1.3,0.5,1.9c0.2,0.6,0.3,1.2,0.4,1.9c38,28.6,68.5,64.9,90.4,105.6
		c1,0.2,2.2-0.2,3.1-0.6c7.4-3,14.9-6.1,22.2-9.3c1.2-0.5,2.2-1.7,3.2-2.6c1.5-1.4,2.8-2,5.1-1.3c1.8,0.6,4.2,0,6.2-0.7
		c6.3-2.3,12.4-4.8,18.6-7.2c7.2-2.7,14.4-5.4,21.6-8.1c6.4-2.4,12.8-4.7,19.1-7c8.3-3.1,16.4-6.4,24.8-9.3c8.2-2.9,16.4-6,25.3-6.7
		c0.5,0,1-0.2,1.5-0.1c0.4,0,0.9,0.2,1,0.4c0.1,0.3-0.1,0.9-0.3,1.1c-3.2,2.5-6.3,5.3-9.8,7.5c-3.6,2.1-7.5,3.6-11.3,5.3
		c-4.9,2.2-9.8,4.4-14.7,6.7c-5.4,2.4-10.8,4.9-16.2,7.3c-6.2,2.8-12.3,5.5-18.5,8.2c-5.5,2.5-11.1,5-16.6,7.4
		c-5.5,2.5-11,4.7-16.3,7.4c-2.9,1.5-6.2,2.6-8,5.7c-0.9,1.6-2.4,2.4-4.5,2c-1.2-0.2-2.7,0.2-3.9,0.6c-6.9,2.8-13.8,5.6-20.6,8.7
		c-0.9,0.4-1.8,1-2.6,1.6c3.5,7.6,6.8,15.4,9.7,23.3c5.9,0.9,11.8,1.1,17.7,0.7c4.6-0.3,9.1-0.6,13.7-0.9c0-0.7-0.2-1.2-0.1-1.7
		c0.2-1.3,0.4-2.7,2.2-2.9c2.7-0.3,3.3-0.1,4.2,1.9c0.6,1.4,1.6,1.5,2.9,1.3c5.1-1,10.1-2,15.2-3.1c6.4-1.3,12.9-2.7,19.3-3.9
		c1.8-0.3,2.7-1.5,3.6-2.7c1.7-2.3,2.3-2.4,4.3-0.5c1.5,1.4,3.1,0.4,4.6,0c5.5-1.4,10.9-3,16.3-4.6c3-0.9,5.8-2,8.8-2.9
		c4.4-1.4,8.8-2.7,13.1-4.1c1.3-0.4,2.7-0.7,4-1.3c0.6-0.3,1.1-1.2,1.4-1.9c0.5-1.5,4.3-3.7,5.6-2.9c0.9,0.5,1.4,1.7,2.2,2.8
		c5.5-1.9,11.1-3.8,16.7-5.7c0,0.1,0.1,0.2,0.1,0.3c-3.6,1.7-7.1,3.4-10.7,5.1c-1.5,0.7-3,1.5-4.5,2.3c-0.3,0.2-0.5,0.9-0.6,1.4
		c-0.2,1.1,0.2,2.7-0.4,3.2c-1.3,1-3.1,2.1-4.8,1.3c-1.7-0.8-3-0.1-4.3,0.6c-2.1,1.1-4.1,2.2-6.2,3.3c-4.6,2.4-9.2,4.8-13.8,7.2
		c-1.5,0.8-3,1.5-4.5,2.3c-4.7,2.4-9.5,4.7-14.2,7.1c-1.3,0.6-2.5,1.3-2,3.3c0.3,1.1-0.8,1.9-1.9,1.7c-3.9-0.9-6.8,1.1-9.7,3
		c-7,4.7-14,9.5-21,14.2c-1.6,1.1-3.2,2.1-4.7,3.1c-1.1,0.7-1.6,1.7-0.9,3c0.2,0.4,0.4,1,0.6,1.4c1.3,2.5-0.5,4.2-2.3,5.1
		c-1.2,0.6-2.2,0.1-2.8-1.1c-0.4-0.9-0.8-1.9-1.3-3.1c-2.5,2.2-4.9,4.2-7.1,6.3c-5.8,5.5-11.2,11.4-15.5,18.2
		c-1.7,2.7-3.2,5.5-4.9,8.2c-0.3,0.6-0.7,1.1-1.2,1.6c6.1,41.2,4.2,83.9-6.4,126c2,1.5,3.7,3.4,4.9,5.9c0.6,1.3,2.2,2.3,3.5,2.9
		c9.6,4.7,19.2,9.3,28.9,13.7c1.6,0.7,3.6,0.7,5.4,0.8c2.7,0.2,4.5,1,5.8,3.9c1,2.3,3.7,4.2,6.1,5.5c7.8,4.2,15.8,8,23.6,12
		c9.1,4.7,18.1,9.4,27.1,14.2c8,4.2,15.9,8.5,23.9,12.6c10.4,5.4,20.9,10.6,31.1,16.2c10.2,5.5,20.5,10.9,29,19
		c0.5,0.5,1.1,0.9,1.5,1.4c0.3,0.4,0.6,1,0.5,1.4c-0.1,0.3-0.9,0.7-1.3,0.6c-5.4-1-10.9-1.5-16.1-3.1c-5.3-1.6-10.2-4.2-15.3-6.5
		c-6.5-2.9-13.1-5.7-19.6-8.6c-7.2-3.2-14.3-6.3-21.5-9.5c-8.2-3.6-16.3-7.3-24.5-10.9c-7.3-3.3-14.7-6.5-22-9.8
		c-7.3-3.2-14.4-6.7-21.8-9.6c-4-1.5-8-3.8-12.7-2.9c-2.4,0.5-4.5-0.3-5.9-2.7c-0.8-1.4-2.5-2.5-4-3.2c-8.9-4.3-17.7-8.7-26.8-12.6
		c-2.5-1.1-5.6-1.6-8.2-1.2c-0.2,0-0.3,0-0.5,0.1c-1.7,4.9-3.6,9.8-5.6,14.7c-1.8,4.4-3.7,8.6-5.6,12.9c0,0.1,0.1,0.1,0.1,0.2
		c4.6,7.6,10.1,14.4,16.5,20.5c4.4,4.2,8.7,8.5,13.1,12.8c0.7-0.7,1-1.2,1.6-1.6c1.5-1,3-2,4.8-0.4c2.7,2.4,3.1,3.2,1.8,5.8
		c-0.9,1.8-0.1,3,1.3,4c5.5,4.1,11,8.2,16.5,12.3c7,5.2,14,10.3,20.9,15.7c1.9,1.5,3.9,1.3,5.9,1.1c3.7-0.4,4.4,0.2,4.3,3.8
		c-0.1,2.8,2.4,3.4,4.1,4.5c6.2,4.1,12.6,8.1,18.9,12c3.5,2.1,7.1,4,10.6,6.1c5.2,3.1,10.4,6.2,15.7,9.4c1.6,1,3.1,2.1,4.8,2.7
		c0.9,0.3,2.2,0.1,3.1-0.3c2-0.8,7.5,1,7.8,3.1c0.2,1.3-0.4,2.8-0.7,4.6c6.7,3.8,13.5,7.7,20.4,11.5c-0.1,0.1-0.1,0.3-0.2,0.4
		c-4.8-2-9.7-4.1-14.5-6.1c-2.1-0.9-4.1-1.7-6.2-2.4c-0.5-0.2-1.3,0.3-1.8,0.6c-1.2,0.8-2.6,2.6-3.6,2.4c-2.2-0.4-4.8-1.2-5.5-3.7
		c-0.7-2.4-2.6-3-4.4-3.7c-2.9-1.1-5.8-2.1-8.8-3.2c-6.5-2.4-12.9-4.8-19.4-7.3c-2.1-0.8-4.2-1.6-6.2-2.4c-6.5-2.6-13-5.2-19.5-7.7
		c-1.8-0.7-3.6-1.3-5.1,1c-0.9,1.3-2.6,1-3.4-0.4c-2.6-4.6-7.1-5.7-11.6-6.9c-10.9-2.8-21.7-5.5-32.6-8.2c-2.4-0.6-4.8-1.3-7.3-1.9
		c-1.7-0.4-3.1-0.1-3.8,1.8c-0.2,0.6-0.6,1.2-0.9,1.8c-1.3,3.5-4.6,3.3-7.1,2.2c-1.6-0.7-2-2.1-1.3-3.7c0.5-1.2,1.1-2.4,1.9-4
		c-4.4-0.5-8.4-1.1-12.5-1.4c-10.6-0.8-21.2-0.9-31.7,0.8c-4.2,0.7-8.3,1.6-12.4,2.4c-0.9,0.2-1.9,0.3-2.8,0.3
		c-0.6,0-1.1-0.2-1.5-0.4c-22.7,25.9-49.2,47.7-78.2,64.9c0,0.9,0.3,1.9,0.6,2.7c3.2,7.9,6.5,15.8,9.9,23.6c0.6,1.3,1.8,2.3,2.8,3.4
		c1.5,1.6,2.1,3,1.4,5.4c-0.6,1.9,0,4.5,0.7,6.5c2.4,6.6,5.1,13.2,7.7,19.8c2.9,7.6,5.7,15.3,8.6,22.9c2.5,6.8,4.9,13.5,7.5,20.3
		c3.3,8.8,6.8,17.4,9.9,26.2c3.1,8.7,6.4,17.4,7.1,26.8c0,0.5,0.2,1.1,0.2,1.6c0,0.4-0.2,1-0.5,1.1c-0.3,0.1-0.9-0.1-1.1-0.3
		c-2.7-3.4-5.7-6.7-7.9-10.4c-2.3-3.8-3.8-8-5.7-12c-2.4-5.2-4.7-10.4-7.1-15.6c-2.6-5.7-5.1-11.4-7.7-17.2
		c-2.9-6.5-5.8-13.1-8.7-19.6c-2.6-5.9-5.3-11.7-7.9-17.6c-2.6-5.8-5-11.7-7.9-17.3c-1.6-3.1-2.7-6.5-6-8.5c-1.7-1-2.5-2.6-2.1-4.8
		c0.2-1.3-0.2-2.8-0.7-4.1c-3-7.3-5.9-14.6-9.2-21.8c-0.3-0.6-0.6-1.1-0.9-1.7c-8.4,4.4-17,8.3-25.8,11.9
		c-0.6,5.3-0.7,10.7-0.3,16.1c0.4,4.8,0.6,9.7,1,14.6c0.8,0,1.3-0.2,1.8-0.1c1.4,0.2,2.9,0.4,3.1,2.3c0.3,2.9,0.1,3.5-2,4.4
		c-1.5,0.6-1.6,1.7-1.4,3.1c1.1,5.4,2.2,10.8,3.2,16.1c1.4,6.8,2.8,13.6,4.1,20.5c0.3,1.9,1.6,2.9,2.9,3.8c2.4,1.8,2.5,2.5,0.6,4.6
		c-1.5,1.6-0.4,3.3,0,4.9c1.5,5.8,3.2,11.5,4.9,17.3c0.9,3.1,2.1,6.2,3.1,9.3c1.5,4.6,2.9,9.3,4.3,13.9c0.4,1.4,0.8,2.9,1.4,4.2
		c0.3,0.7,1.3,1.2,2,1.5c1.6,0.6,3.9,4.6,3,6c-0.6,0.9-1.8,1.5-2.9,2.4c2,5.8,4,11.8,6,17.7c-0.1,0.1-0.2,0.1-0.3,0.2
		c-1.8-3.8-3.6-7.6-5.4-11.4c-0.8-1.6-1.5-3.2-2.4-4.8c-0.2-0.4-0.9-0.5-1.4-0.6c-1.2-0.2-2.9,0.2-3.4-0.5c-1.1-1.4-2.2-3.3-1.3-5.1
		c0.8-1.8,0.1-3.1-0.6-4.5c-1.1-2.2-2.3-4.4-3.5-6.6c-2.6-4.9-5.1-9.8-7.7-14.7c-0.8-1.6-1.6-3.2-2.4-4.8c-2.5-5-4.9-10-7.5-15
		c-0.7-1.3-1.4-2.7-3.5-2.1c-1.2,0.3-2.1-0.8-1.8-2.1c0.9-4.1-1.2-7.2-3.2-10.3c-5-7.5-10-14.9-15-22.3c-1.1-1.7-2.2-3.4-3.3-5
		c-0.8-1.2-1.8-1.7-3.2-1c-0.5,0.3-1,0.4-1.5,0.6c-2.7,1.4-4.5-0.5-5.4-2.4c-0.6-1.3-0.1-2.3,1.2-2.9c1-0.5,2-0.8,3.2-1.4
		c-2.3-2.6-4.5-5.1-6.7-7.5c-5.9-6.1-12.1-11.8-19.3-16.4c-1.6-1-3.2-1.9-4.8-2.9c-32.6,6-66.4,7.1-100.2,2.7
		c-1.5,3.2-3.7,5.8-7,7.6c-1.2,0.7-2.1,2.3-2.7,3.7c-4.1,9.8-8.2,19.7-12.1,29.6c-0.6,1.6-0.5,3.6-0.5,5.5c0,2.7-0.7,4.5-3.6,6
		c-2.2,1.2-4,4-5.1,6.4c-3.8,8-7.1,16.2-10.7,24.2c-4.2,9.3-8.4,18.6-12.7,27.8c-3.8,8.2-7.6,16.3-11.3,24.5
		c-4.8,10.6-9.4,21.4-14.5,32c-2.4,5.1-4.8,10.2-7.5,15.1H1366V0z"/>
	<path class="st0" d="M60.9,751.9c2.5-6.7,5-13.4,7.6-20c2.8-7.3,5.6-14.7,8.4-22c3.2-8.3,6.4-16.7,9.6-25c2.9-7.5,5.7-15,8.6-22.5
		c2.8-7.4,5.9-14.8,8.4-22.3c1.3-4.1,3.4-8.2,2.2-12.8c-0.6-2.4,0-4.5,2.4-6.1c1.3-0.9,2.4-2.6,3-4.2c3.8-9.1,7.7-18.2,11.2-27.4
		c0.9-2.5,1.3-5.7,0.7-8.3c-0.1-0.4-0.2-0.9-0.2-1.3c-9.7-2.2-19.4-5-29-8.2c-7,4.8-13.2,10.6-18.7,17c-3.9,4.6-8,9.1-12,13.7
		c0.7,0.6,1.3,1,1.6,1.5c1.1,1.5,2.2,2.9,0.7,4.8c-2.2,2.8-3,3.2-5.7,2.1c-1.9-0.8-3,0.1-3.9,1.5c-3.8,5.7-7.6,11.4-11.4,17.1
		c-4.8,7.2-9.6,14.5-14.5,21.7c-1.4,2-1.1,3.9-0.8,5.9c0.6,3.7,0.1,4.4-3.5,4.5c-2.8,0.1-3.3,2.6-4.3,4.3c-3.8,6.4-7.4,13-11,19.6
		c-1.9,3.6-3.6,7.3-5.5,11c-1.5,2.9-3,5.7-4.5,8.6V768h55.2c0-0.2,0.1-0.3,0.1-0.5C56.6,762.2,58.9,757.1,60.9,751.9z"/>
	<path class="st0" d="M0,39v83.3C59,40.3,164.7,2.7,263.6,32c14.4-18.9,26-28.3,33-25.4c0.5,0.2,1,0.5,1.5,0.9
		c0.6,0.1,1.3,0.2,1.9,0.5c7.6,3.1,9.8,18.1,7.4,41.8c109,57,158.7,188.7,111.1,304.7C371,470.6,243.3,529.6,125.6,493.8
		c-14.8,18.6-26.9,27.7-34.6,24.6c-0.6-0.2-1.1-0.6-1.7-1c-0.6-0.1-1.2-0.2-1.7-0.4c-7-2.9-8.7-17.7-5.7-41.3
		C48.6,458,21,433.2,0,404.1v83.4c24,20.9,51.7,38.3,82.8,51c152,62.2,325.7-10.5,388-162.6C529.4,232.8,468.3,70.5,334.1,0H57
		C36.6,10.7,17.5,23.7,0,39z"/>
	<path class="st0" d="M233.7,78c-87.4-18.1-178.1,28-213.1,113.6c-35.1,85.6-2.7,182,72.3,230.4C105,374,125.9,312,153,245.8
		C180.1,179.5,208.7,120.7,233.7,78z"/>
	<path class="st0" d="M156.4,448.2c87.7,18.6,178.9-27.5,214.1-113.4s2.5-182.7-73.1-231c-11.7,48.2-32.2,110.4-59.4,176.7
		C210.9,347,181.9,405.7,156.4,448.2z"/>
	<path class="st0" d="M166.2,417.9c1.7-1.8,2.9-4,3.4-6.3C168.4,413.7,167.3,415.8,166.2,417.9z"/>
	<path class="st0" d="M262.5,161.2c-0.3,0.2-0.6,0.5-0.9,0.7L237,130.1c-6.9-8.9-8.8-20.1-6.2-30.2c-6.9,11.9-6.4,27.4,2.6,39
		l22.4,29l0,0C258.4,165.9,260.6,163.6,262.5,161.2z"/>
	<path class="st0" d="M235.3,227.5c-0.3,0.2-0.6,0.5-0.9,0.7l-24.5-31.7c-6.9-8.9-8.8-20.1-6.2-30.2c-6.4,11.1-6.4,25.3,0.9,36.6
		l24.2,31.2l1.6-1.3C232.2,231.1,233.9,229.4,235.3,227.5z"/>
	<path class="st0" d="M208.2,293.8c-0.3,0.2-0.6,0.5-0.9,0.7l-24.5-31.7c-6.9-8.9-8.8-20.1-6.2-30.2c-6.3,10.8-6.4,24.5,0.3,35.6
		l24.8,32.1l2.2-1.7C205.5,297,206.9,295.4,208.2,293.8z"/>
	<path class="st0" d="M181,360.1c-0.3,0.2-0.6,0.5-0.9,0.7L155.6,329c-6.9-8.9-8.8-20.1-6.2-30.2c-6.1,10.5-6.4,23.7-0.3,34.6
		l25.5,32.9l2.7-2.1C178.6,362.9,179.9,361.5,181,360.1z"/>
	<path class="st0" d="M153.9,426.4c-0.3,0.2-0.6,0.5-0.9,0.7l-24.5-31.7c-6.9-8.9-8.8-20.1-6.2-30.2c-6,10.3-6.4,23.2-0.6,34
		l25.9,33.4l3.2-2.4C151.8,428.9,152.9,427.7,153.9,426.4z"/>
</g>
</svg>
