<?xml version="1.0" encoding="utf-8"?>
<!-- Generator: Adobe Illustrator 22.0.0, SVG Export Plug-In . SVG Version: 6.00 Build 0)  -->
<svg version="1.1" id="Capa_1" xmlns="http://www.w3.org/2000/svg" xmlns:xlink="http://www.w3.org/1999/xlink" x="0px" y="0px"
	 viewBox="0 0 1366 768" style="enable-background:new 0 0 1366 768;" xml:space="preserve">
<style type="text/css">
	.st0{fill:#FFFFFF;}
</style>
<g>
	<g>
		<polygon class="st0" points="897,399.2 937.7,399.2 917.5,352 		"/>
	</g>
	<g>
		<path class="st0" d="M1332.6,364.3v101.9h-36.3V303.6h34l35.7,46.8V0H0v768h1366V408.2L1332.6,364.3z M314.1,193.2
			c1.1,1.2,1.8,2.7,0.2,3.9c-1.2,0.9-2.5,0.1-3.4-1c-9.2-10.8-18.6-21.4-26.2-33.7C295.7,171.8,304.6,182.8,314.1,193.2z
			 M296.6,202.5c1.6,0,4.1,0.3,3.7,2.6c-0.3,2.1-2.6,1.9-4.3,1.7c-14.8-1.4-29.8-1.6-44.5-5.3C266.5,199.9,281.5,202.5,296.6,202.5z
			 M300.1,590.4c-4.6,0-7.2-0.9-7.4-6.3c-0.4-12.6-0.7-12.6-12.8-9.2c-15.4,4.3-30.7,8.8-46.1,13.1c-6.7,1.9-7.4,1.4-7.4-5.8
			c-0.1-20.5,0-41,0-61.6c0-8.8,0.9-9.4,9.3-7.8c16.9,3.3,33.9,6.4,50.8,10c5.8,1.2,7.6-0.8,7.2-6.1c-0.4-5.1,1.3-7.4,6.9-7.4
			c5.9,0,6.7,3.3,6.6,8c-0.1,11,0,23.9,0,33.3c0,0,0,0,0,0c0,12.6-0.2,22.2,0.1,33.4C307.3,589.3,304.8,590.4,300.1,590.4z
			 M531.2,544.3C531.2,544.3,531.2,544.3,531.2,544.3c-0.1,3.1,0.1,7.1-0.1,11.2c-0.2,4-3.5,4.8-6.1,3.1c-3.5-2.4-8.9-4.1-8.1-10.5
			c0.4-3.6,0.4-7.3,0-10.9c-0.7-5.8,3.8-8.5,7.2-11c3.1-2.3,6.9-0.1,7.2,4.8C531.4,535.1,531.2,538,531.2,544.3z M627.5,264.4
			c-0.2,6.5-0.7,12.9-1.6,19.3c-0.5,3.5-1.7,7-5.8,10.3c-1.2-8.1-3.4-14.8-7.3-21.1c-12.4-19.7-31.4-27.8-53.9-22.2
			c-1.8,0.5-4.4,0.8-3.8,3.3c0.5,2.1,3,1.2,4.5,1c4.5-0.5,8.9-1,13.5-0.8c22.1,1.4,29.8,18.7,39,34.5c0.7,1.2,1.6,3.3,0.1,4.1
			c-2.2,1.2-3.1-1.2-3.5-2.6c-3.7-10.8-15-14.8-21.4-23.3c0.1,0.6,0,1.2,0.2,1.7c0.5,1.8,3.2,3.2,1.7,5.1c-1.2,1.7-3.6,0.6-5.5,0.5
			c-11.5-0.7-22.7,0.3-35.4,3.9c7.5,3,13.5,0.8,19-0.1c10.4-1.8,19.1,1.5,27.7,6.4c2.1,1.2,5.9,2.2,4.6,5.2c-1.3,2.9-5,4.2-8.4,3.5
			c-3.6-0.7-7-2.1-10.6-3c-10.6-2.8-21.3-5.2-32.7-4.5c26.5,10.4,48.7,24.4,51.6,56.8c-3.3-0.1-3.5-2-4-3.2
			c-6.3-13.5-18.8-20.6-30-28.9c-0.9-0.7-2.4-1.7-3.5-0.4c-1,1.2,0.1,2.4,1,3.4c5.5,6.1,11.1,12.1,16.6,18.2
			c4.6,5.1,7.7,11.1,10.5,19c-6.7-3.1-12-5.4-15.3-10.5c-5-7.7-11.9-13.7-18.5-19.9c-2.6-2.5-5.7-3.8-10-2.9
			c6.1,10.9,14,20.9,13.3,35.4c-3.7-3.4-3.9-7.5-5.7-10.6c-1.3-2.2-2.2-4.7-3.6-6.9c-1.1-1.7-1.6-5.4-4.6-3.8
			c-2.3,1.2-0.7,3.9,0.2,5.8c0.5,1.1,1.1,2.3,2.1,4.4c-5.6-1.8-9-4.7-11.9-8.4c-2.8-3.6-5.5-7.2-8.4-10.7c-1.2-1.4-2.6-3.7-4.7-2.8
			c-2.4,1,0.5,3.5-0.9,5.5c-3.7,0.1-5.8-4.1-10.1-4.4c1.8,5.2,6.3,6.7,10,9.2c1.2,0.8,3,1.7,2.4,3.4c-0.7,1.8-2.8-0.1-5.1,1.3
			c11.5,2.9,16,12.2,21.2,20.6c1.9,3.1,4.6,6.6,2.2,10.8c-0.4,0.6-0.4,1.1,0.3,1.6c6.6,4.7,0.7,7.4-1.8,10.5c-1.6,2-6.1,2.7-1.2,6.3
			c1.7,1.3-0.6,4.1-1.9,5.6c-2.1,2.4-1.8,4.4-0.2,6.9c22.7,36.4,3.2,88.5-48.3,95.3c-4.8,0.6-9.5-0.2-14.2-1
			c-4.4-0.8-8.8-1.9-13.3-2.9c-0.5,1.2,4.4,3.2-0.3,3.9c-2.1,0.3-4.3,0.3-6.5,0.3c-31.1,0-62.2-2-93.4,1.1c2.1,0,4.3,0,6.4,0
			c45,0,89.9-0.1,134.9-0.1c11.1,0,12.6,1.4,12.6,12.7c0,33.5,0,67,0,100.5c0,8.9-0.3,9.2-9.1,9.2c-63.3,0-126.7-0.1-190-0.1
			c-8.5,0-8.7-0.3-8.7-8.8c0-34.2-0.1-68.3-0.1-102.5c0-10.1,1-11.1,11.1-11.1c7.1,0,14.3,0,21.4-0.1c5.9-0.1,12.3,1.7,16.2-5.3
			c-1.3-1.1-2.9-0.2-4.4,0.2c-27.9,6.9-65-6.3-75.2-42.2c-2-7.1-3.3-14.4-2.1-21.7c0.9-5.3-0.2-9.7-3.4-13.9
			c-5.6-7.6-8.9-16.3-9.7-25.7c-0.3-3.4-1.3-3.8-3.9-2.2c-1.6,1-3.3,3-5.2,1.4c-2.1-1.7-0.4-4,0.2-6c1.7-6.3,6.2-11.3,9.7-18.7
			c-5.7,2.9-9.9,5.2-14.3,7.1c-3.2,1.4-6.6,2.5-9.1-1.5c-2.5-4.1,0.2-6.2,2.8-8.7c4.3-4.2,9-7.8,15.1-10.4c-3.8-1.5-6.6,0.5-9.5,0.5
			c-3.8-0.1-4.9-1.5-2.5-4.7c5.5-7.2,11.9-13.4,21.7-13.7c6.6-0.2,6.2-5.3,5-8.2c-5-11.5-0.5-20.7,5.8-29.6
			c5.6-7.8,12.2-14.5,21-19.6c-1.6-1.4-3.1-2.5-4.3-3.9c-5.7-6.3-3.1-14.7,5.9-17.8c10.7-3.6,21.7-5.6,33.1-5.6c1.6,0,4,0.6,4.5-1.4
			c0.5-1.9-1.7-2.7-3-3.7c-5.8-4.5-11.7-8.9-17.4-13.5c-2.6-2.1-5.3-4.3-7.1-9c9.6,2.1,17.4,5.4,25.5,8.1c2.5,0.8,5.6,3.8,7.6,1.2
			c1.8-2.4-1.4-5-3-7.2c-5.2-7.3-11.2-14.2-15.7-22.1c2.6-2.3,4.5-0.5,6.3,0.1c11.1,4.1,22.3,8.3,33.3,12.6c5.1,2,7.1,1.3,6.1-4.9
			c-1-6.9,2.2-12.2,7.7-16.6c2.5,3.5-1,6.5,1.1,9.6c4.6-1.5,7.8-5.2,11.6-7.8c5.5-3.7,11.4-6.4,17.9-7.1c9.4-0.9,11.5,2.3,7.4,11.3
			c7.8,0.8,15.3-2,23-1.5c10.3,0.6,13,4.9,10.4,14.9c-1.6,6.1-3.7,12.3-2.9,19c0.6,4.9-2.6,5.8-6.8,4.8c-2.7-0.7-5.2-3-10.1-1.5
			c7.9,2.4,11.5,7.3,14.4,12.8c0.6,1.1,1.2,2.5,0.2,3.6c-1.1,1.4-2.3,0-3.5-0.3c-1.4-0.4-2.9-0.9-4.3-1.2c-6-1.1-6.6-0.4-4.6,5.4
			c0.8,2.4,1.3,5,2,7.5c0.4,1.6,0.3,3.9-1.4,3.5c-6.6-1.6-4.4,3.4-5.2,6.3c-0.5,2-0.4,5.1-2.8,5.3c-2.4,0.2-2-2.8-2.4-4.6
			c-0.7-3.3-2.2-5.8-5.4-7.3c-0.8,1.9,0.4,3.1,1.1,4.4c1.9,3.6,6.1,7.1-1.8,9.5c-2.7,0.8-2.4,6.1-3,9.4c-1.2,5.8-3.3,11.5,3,16.3
			c3,2.3,2,7,3.6,10.5c3.8,8.2,9.2,11.7,18,12.3c11.2,0.8,21.5-3.9,32.5-3.8c3.2,0,6.5-2.1,7.9-5.1c1.4-2.9-2.1-4.3-3.6-6.2
			c-11.6-14.2-15.9-30.9-17.2-48.7c-0.3-3.7-0.7-7.5-1.1-11.4c2.8,0.3,2.5,2.9,5.2,4c-9.7-25.5-2.5-47,11.6-68.2
			c15.1-22.5,37.6-27.6,62-31.1c-0.2,4.4-4.5,2.9-5.4,5.4c0.3,0.2,0.8,0.6,1,0.5c19.6-6.9,34.3,3.4,48.5,14.3
			c7.8,6,14.3,13.6,21.1,23.1c-11-2.6-19.9-7.4-29.8-7.9c-0.2,0.6-0.4,1.1-0.7,1.7c6.3,2.8,12.5,5.6,18.8,8.3
			c10.8,4.7,21.1,9.9,27.3,20.7C624,232.3,627.9,247.8,627.5,264.4z M706.7,444.4c-16.2-15.8-24.3-35.8-24.3-59.9
			c0-24.1,8.3-44.2,24.8-60.4c16.5-16.1,36.4-24.2,59.8-24.2c23.3,0,43.6,7.7,60.8,23l-18.8,27.2c-7.3-6.4-14-10.7-20.1-13.1
			c-6.1-2.4-12.8-3.6-19.9-3.6c-13.8,0-25.4,4.7-34.9,14.1c-9.5,9.4-14.2,21.8-14.2,37.1s4.5,27.6,13.6,36.9
			c9.1,9.2,19.9,13.8,32.5,13.8s23-2.4,31.4-7.2v-44.7h36.5v57.7c-16.1,18-38.5,27-67,27C742.9,468.1,722.9,460.2,706.7,444.4z
			 M966.6,466.2l-15.1-35.1h-68.2l-15.1,35.1h-38.6l70.3-162.6H935l70.3,162.6H966.6z M1115,466.2h-105.6V303.6h36.3v130.3h69.3
			V466.2z M1228.1,466.2h-105.6V303.6h36.3v130.3h69.3V466.2z M1272,466.2h-36.3V303.6h36.3V466.2z"/>
	</g>
</g>
</svg>
