<?xml version="1.0" encoding="utf-8"?>
<!-- Generator: Adobe Illustrator 22.0.0, SVG Export Plug-In . SVG Version: 6.00 Build 0)  -->
<svg version="1.1" id="Capa_1" xmlns="http://www.w3.org/2000/svg" xmlns:xlink="http://www.w3.org/1999/xlink" x="0px" y="0px"
	 viewBox="0 0 71.6 222" style="enable-background:new 0 0 71.6 222;" xml:space="preserve">
<style type="text/css">
	.st0{fill:#19CCAA;}
</style>
<g>
	<path class="st0" d="M3.1,44.5c21.5,0,32.2,4.9,32.2,14.6c0,9.7-10.7,14.6-32.2,14.6c-0.4,0-0.8,0-1.1,0v43.1c0.4,0,0.7,0,1.1,0
		c13.8,0,25.8-2.5,35.8-7.4c10-4.9,17.7-11.7,22.9-20.4c5.3-8.7,7.9-18.7,7.9-29.9c0-11.3-2.6-21.3-7.9-29.9
		c-5.3-8.7-12.9-15.5-22.9-20.4c-10-4.9-21.9-7.4-35.8-7.4c-0.4,0-0.8,0-1.1,0v43.1C2.3,44.5,2.7,44.5,3.1,44.5z"/>
	<path class="st0" d="M3.1,219.6c6.4-5.3,10.8-12.8,13.2-22.7l24,23.7h26.4v-95H34.4v45.5l-19.1-18.7H1.9v68.2
		C2.3,220.3,2.7,220,3.1,219.6z"/>
</g>
</svg>
