<?xml version="1.0" encoding="utf-8"?>
<!-- Generator: Adobe Illustrator 22.0.0, SVG Export Plug-In . SVG Version: 6.00 Build 0)  -->
<svg version="1.1" id="Capa_1" xmlns="http://www.w3.org/2000/svg" xmlns:xlink="http://www.w3.org/1999/xlink" x="0px" y="0px"
	 viewBox="0 0 95.4 131.1" style="enable-background:new 0 0 95.4 131.1;" xml:space="preserve">
<style type="text/css">
	.st0{fill:#C1C1C1;}
	.st1{fill:#05E0B6;}
	.st2{opacity:0.2;fill:#666666;enable-background:new    ;}
	.st3{fill:#FFFFFF;}
	.st4{fill:#E5E5E5;stroke:#999999;stroke-width:0.25;stroke-miterlimit:10;}
</style>
<g>
	<rect x="24.9" y="34.8" class="st0" width="45.3" height="57.2"/>
	<g>
		<rect x="31.6" y="67.3" class="st1" width="25.8" height="2.3"/>
		<rect x="31.6" y="61.8" class="st1" width="32.1" height="2.3"/>
		<rect x="31.6" y="41.5" class="st1" width="32.1" height="17.2"/>
	</g>
	<rect x="31.6" y="83" class="st1" width="21.1" height="2.3"/>
	<rect x="31.6" y="72.8" class="st1" width="25.8" height="7"/>
	<polygon class="st2" points="70.3,34.8 24.9,92 24.9,34.8 	"/>
	<path class="st3" d="M69.3,30.4H25.9c-1.6,0-2.9,1-2.9,2.1v66.1c0,1.2,1.3,2.1,2.9,2.1h43.5c1.6,0,2.9-1,2.9-2.1V32.5
		C72.3,31.3,70.9,30.4,69.3,30.4z M70.3,92H24.9V34.8h45.3L70.3,92L70.3,92z"/>
	<g>
		<circle class="st4" cx="47.7" cy="96.4" r="3.1"/>
		<circle class="st4" cx="47.7" cy="96.4" r="2.6"/>
	</g>
</g>
</svg>
