<?xml version="1.0" encoding="utf-8"?>
<!-- Generator: Adobe Illustrator 22.0.0, SVG Export Plug-In . SVG Version: 6.00 Build 0)  -->
<svg version="1.1" id="Capa_1" xmlns="http://www.w3.org/2000/svg" xmlns:xlink="http://www.w3.org/1999/xlink" x="0px" y="0px"
	 viewBox="0 0 95.4 131.1" style="enable-background:new 0 0 95.4 131.1;" xml:space="preserve">
<style type="text/css">
	.st0{fill:#C1C1C1;}
	.st1{fill:#05E0B6;}
	.st2{opacity:0.2;fill:#666666;enable-background:new    ;}
	.st3{fill:#FFFFFF;}
	.st4{fill:#E5E5E5;stroke:#999999;stroke-width:0.25;stroke-miterlimit:10;}
	.st5{fill:#FFFFFF;stroke:#999999;stroke-width:0.25;stroke-miterlimit:10;}
</style>
<g>
	<rect x="33.4" y="39.5" class="st0" width="28.5" height="48.4"/>
	<g>
		<g>
			<rect x="34.7" y="67.1" class="st1" width="20.9" height="1.9"/>
			<rect x="34.7" y="62.7" class="st1" width="26" height="1.9"/>
			<rect x="34.7" y="46.2" class="st1" width="26" height="14"/>
		</g>
		<rect x="34.7" y="79.3" class="st1" width="16.9" height="1.9"/>
		<rect x="34.7" y="71.2" class="st1" width="20.6" height="5.6"/>
	</g>
	<polygon class="st2" points="62,39.5 33.4,87.9 33.4,39.5 	"/>
	<path class="st3" d="M61.4,35.8H34c-1,0-1.8,0.8-1.8,1.8v55.9c0,1,0.8,1.8,1.8,1.8h27.4c1,0,1.8-0.8,1.8-1.8V37.6
		C63.2,36.6,62.4,35.8,61.4,35.8z M62,87.9H33.4V39.5H62V87.9z"/>
	<circle class="st4" cx="47.7" cy="91.6" r="1.9"/>
	<g>
		<circle class="st4" cx="51.4" cy="37.9" r="0.9"/>
		<path class="st5" d="M48.7,37.6h-5.5c-0.1,0-0.2,0.1-0.2,0.2V38c0,0.1,0.1,0.2,0.2,0.2h5.5c0.1,0,0.2-0.1,0.2-0.2v-0.2
			C48.9,37.7,48.8,37.6,48.7,37.6z"/>
	</g>
</g>
</svg>
