<?xml version="1.0" encoding="utf-8"?>
<!-- Generator: Adobe Illustrator 22.0.0, SVG Export Plug-In . SVG Version: 6.00 Build 0)  -->
<svg version="1.1" id="Capa_1" xmlns="http://www.w3.org/2000/svg" xmlns:xlink="http://www.w3.org/1999/xlink" x="0px" y="0px"
	 viewBox="0 0 293.8 302.7" style="enable-background:new 0 0 293.8 302.7;" xml:space="preserve">
<style type="text/css">
	.st0{opacity:0.1;fill:#588593;}
	.st1{fill:#6092A5;stroke:#588593;stroke-miterlimit:10;}
	.st2{fill:#588593;}
	.st3{fill:#4D7784;stroke:#426770;stroke-miterlimit:10;}
	.st4{fill:#36545B;}
	.st5{opacity:0.1;}
	.st6{fill:#6092A5;}
	.st7{fill:#FFFFFF;}
	.st8{fill:#4D7784;}
	.st9{fill:#FFFFFF;stroke:#939393;stroke-width:0.25;stroke-miterlimit:10;}
	.st10{fill:#283E42;}
</style>
<g>
	<ellipse class="st0" cx="143" cy="284.5" rx="137.3" ry="14.8"/>
	<path class="st1" d="M241.4,279.8c-1-2.2-3.3-4.1-5.8-5.6c-5.8-3.4-13.3-5.5-20.4-7.2c-3.6-0.8-7.2-1.5-10.9-2.1
		c-3.5-0.6-7.1-1.2-10.7-1.4c-1.9-0.1-3.9-0.2-5.8-0.3c-1.3,0-2.6,0-3.9,0.2c-0.2,0-0.4,0.1-0.6,0.1c-2.3-14.4-10.6-60.3-20.9-52.3
		c0,0-82.1-2.7-82.1-2.7c-1.7-0.1-6.4,13.4-7,15.3c-2.2,6.1-3.6,12.5-4.2,19c-0.3,3.9-0.9,12.2,0.3,18.9c-1.4,0.1-2.7,0.2-4.1,0.4
		c-2.5,0.4-5.1,1-7.5,1.7c-2.6,0.7-5.1,1.5-7.6,2.4c-5,1.8-10.2,4.1-14.2,7.6c-1.7,1.6-3.2,3.5-3.9,5.7c-0.7,2.3-0.2,4.8,0.9,6.9
		c0.8,1.5,1.7,3.4,3.4,4c2.8,1,6.6-0.1,9.5-0.3c3.8-0.3,7.6-0.6,11.4-1c4.8-0.4,9.5-0.8,14.3-1.2c2.4-0.2,4.9-0.4,7.3-0.6
		c2.7-0.2,2.3-2.5,2.3-4.7c-0.1-5.2-0.2-10.8-2.6-15.5c-0.2-0.4-0.4-0.7-0.6-1.1c-0.8-1.2-1.8-2.3-3-3.1c0-0.2,0-0.4,0-0.7
		c0-19.4,18-27.3,34.8-29.4c16.2-2,37.5-2.2,51,8.6c5,4,8.6,9.4,11.8,14.8c0.3,0.5,3.5,6.9,4.9,10.1c-0.4,0.4-0.8,0.8-1.2,1.3
		c-0.3,0.4-0.5,0.7-0.8,1.1c-3,4.8-2.8,10.4-2.5,15.6c0,0.8,0.1,1.7,0.2,2.5c0.1,0.5,0.1,1.8,0.8,2c0.1,0,0.2,0,0.3,0
		c2.9,0.1,5.8,0.2,8.6,0.3c8.4,0.3,16.7,0.5,25.1,0.8c8.3,0.3,16.9,0.9,25.2,0.8c4,0.1,5.8-1.7,7.2-4.1
		C242,284.5,242.5,282.1,241.4,279.8z"/>
	<path class="st2" d="M33.6,281.8c0.7-2.3,2.2-4.4,4.1-6c4.1-3.7,9.6-6.1,14.9-8c2.6-1,5.3-1.8,8-2.5c2.6-0.7,5.3-1.4,7.9-1.7
		c1.4-0.2,2.8-0.3,4.3-0.4c-1.2-7-0.7-15.7-0.3-19.8c0.6-6.8,2.2-13.5,4.4-20c0.6-1.6,3.8-11.1,6-14.7c-1.6-0.1-2.5-0.1-2.5-0.1
		c-1.7-0.1-6.4,13.4-7,15.3c-2.2,6.1-3.6,12.5-4.2,19c-0.3,3.9-0.9,12.2,0.3,18.9c-1.4,0.1-2.7,0.2-4.1,0.4c-2.5,0.4-5.1,1-7.5,1.7
		c-2.6,0.7-5.1,1.5-7.6,2.4c-5,1.8-10.2,4.1-14.2,7.6c-1.7,1.6-3.2,3.5-3.9,5.7c-0.7,2.3-0.2,4.8,0.9,6.9c0.4,0.8,0.8,1.6,1.4,2.4
		C33.4,286.6,33,284.2,33.6,281.8z"/>
	<path class="st1" d="M290.4,163.6c-0.8-21.1-69.6-78.3-69.6-78.3l-0.3,2.8c0,0-14.9,18.1-2.1,20.8c12.9,2.7,29.6,39.3,29.7,39.4
		c-0.3-0.6-6.1,5.7-6.6,6.6c-1.3,2.7-2.5,7.1,2,6.3c6.7-1.2,12.3-2.2,18,2.6c4.6,3.9,6.8,10.1,5.3,16c-0.7,2.7-4,5.7-2.3,7.9
		c6.9,8.9,12.5-10.2,13.2-14c-0.8,4.5-4.1,20.3,4.8,19.2C292.2,191.6,290.6,169.5,290.4,163.6z"/>
	<path class="st2" d="M278.2,174.9c-0.9,2.1-1.3,6.7-1.5,12.5c0.5,3.4,2.1,5.8,5.8,5.4c0.2,0,0.4-0.1,0.6-0.1
		C279.1,188.8,275.5,181.6,278.2,174.9z"/>
	<g>
		<path class="st2" d="M250.5,146.1c0,0-18-39.3-31.7-42.1c-2.9-0.6-4.5-2-5.2-3.7c-1,3.9-0.3,7.4,4.8,8.5
			c12.4,2.6,28.5,37,29.6,39.2C249.3,146.8,250.4,145.9,250.5,146.1z"/>
		<path class="st2" d="M268.1,188.2c-1.8-2.3,1.7-5.6,2.5-8.5c1.6-6.3-0.7-12.9-5.6-17.1c-6.1-5.1-12.1-4.1-19.3-2.7
			c-4.8,0.9-3.5-3.8-2.2-6.7c0.3-0.6,2.5-3.1,4.4-5c-1,0.3-6,5.8-6.4,6.6c-1.3,2.7-2.5,7.1,2,6.3c6.7-1.2,12.3-2.2,18,2.6
			c4.6,3.9,6.8,10.1,5.3,16c-0.7,2.7-4,5.7-2.3,7.9c1.7,2.2,3.4,2.7,4.9,2.1C269,189.3,268.6,188.8,268.1,188.2z"/>
	</g>
	<path class="st1" d="M9.8,239.1C2.6,220,40,144.8,40,144.8l1.3,2.4c0,0,19.6,10.8,9.6,17.8c-10,6.9-10.7,45.5-10.7,45.5
		c0,0.1,10.2,3.5,10.7,7.1c0.6,4.5-14.8,5.3-16.7,9.7c-0.3,0.7-0.4,1.5-0.5,2.2c-0.5,4.9,0.2,10.3,2.7,14.8c2.4,4.2,8.2,8.5-0.3,9.1
		c-5.6,0.4-8.8-6.3-11.8-10c15,23.6-1.1,18.2-1.1,18.2S17,258.1,9.8,239.1z"/>
	<path class="st2" d="M13.6,237.6c-6-15.8,16-66.5,27.3-91l-0.9-1.8c0,0-37.5,75.2-30.3,94.2c7.2,19,13.4,22.6,13.4,22.6
		s2.5,0.8,4.6,0.4C25.8,260.4,20.1,254.6,13.6,237.6z"/>
	<path class="st2" d="M25.2,243.5c2.7,6.7,7,7.4,9.3,10.6c0.3-0.1,0.5-0.1,0.8-0.2c2.1-0.6,3.6-1.2,4.6-1.8
		C33.3,251.1,30,246.6,25.2,243.5z"/>
	<path class="st2" d="M42.1,222.9c3.2-1,6.5-2,8-3.5C47,220.5,43.9,221.5,42.1,222.9z"/>
	<g>
		<path class="st3" d="M203.1,72.7c-7.1-10.5-16.2-18.8-26.4-24.9c1.8-1.9,3.8-3.6,6.1-5.2c16.6-11.2,39.1-6.9,50.4,9.7
			c11.2,16.6,6.9,39.1-9.7,50.4c-2.3,1.5-4.6,2.8-7.1,3.7C214.5,94.7,210.2,83.2,203.1,72.7z"/>
		<path class="st4" d="M206.9,70.1c-4.8-7-10.9-12.6-17.7-16.7c1.2-1.3,2.6-2.4,4.1-3.5c11.1-7.5,26.3-4.6,33.8,6.5
			c7.5,11.1,4.6,26.3-6.5,33.8c-1.5,1-3.1,1.8-4.7,2.5C214.6,84.9,211.7,77.2,206.9,70.1z"/>
	</g>
	<g>
		<path class="st3" d="M43.7,131.1c-0.8-12.6,1.2-24.8,5.6-35.8c-2.6-0.4-5.2-0.5-8-0.3c-20,1.3-35.1,18.6-33.8,38.6
			c1.3,20,18.6,35.1,38.6,33.8c2.7-0.2,5.3-0.7,7.8-1.4C48.2,155.5,44.6,143.8,43.7,131.1z"/>
		<path class="st4" d="M40.6,130c-0.6-8.5,0.8-16.7,3.7-24.1c-1.7-0.3-3.5-0.4-5.4-0.2c-13.4,0.9-23.6,12.5-22.7,25.9
			c0.9,13.4,12.5,23.6,25.9,22.7c1.8-0.1,3.6-0.4,5.3-0.9C43.6,146.4,41.2,138.5,40.6,130z"/>
	</g>
	<g class="st5">
		<path class="st4" d="M43.7,131.1c-0.8-12.6,1.2-24.8,5.6-35.8c-2.6-0.4-5.2-0.5-8-0.3c-20,1.3-35.1,18.6-33.8,38.6
			c1.3,20,18.6,35.1,38.6,33.8c2.7-0.2,5.3-0.7,7.8-1.4C48.2,155.5,44.6,143.8,43.7,131.1z"/>
		<path class="st4" d="M40.6,130c-0.6-8.5,0.8-16.7,3.7-24.1c-1.7-0.3-3.5-0.4-5.4-0.2c-13.4,0.9-23.6,12.5-22.7,25.9
			c0.9,13.4,12.5,23.6,25.9,22.7c1.8-0.1,3.6-0.4,5.3-0.9C43.6,146.4,41.2,138.5,40.6,130z"/>
	</g>
	<circle class="st2" cx="132.9" cy="127.8" r="102.3"/>
	<circle class="st6" cx="132.9" cy="127.8" r="99.6"/>
	<circle class="st7" cx="132.9" cy="127.8" r="43.1"/>
	<path class="st5" d="M95.2,126.4c0-15.9,8.1-29.9,20.5-38.1c-15.2,6.6-25.8,21.8-25.8,39.5c0,22.6,17.4,41.1,39.5,42.9
		C109.7,165.5,95.2,147.7,95.2,126.4z"/>
	<circle cx="132.9" cy="127.8" r="26.9"/>
	<circle class="st7" cx="149" cy="111.6" r="10.8"/>
	<circle class="st7" cx="132.9" cy="127.8" r="14.8"/>
	<path class="st8" d="M92.6,103.4c0,0,8.3-26,40.3-26.9c0,0,31,1.9,40.3,26.9c0,0-18.6-23.1-40.3-22.1
		C132.9,81.3,111.2,78.5,92.6,103.4z"/>
	<path class="st8" d="M173.2,151.9c0,0-8.3,26-40.3,26.9c0,0-31-1.9-40.3-26.9c0,0,18.6,23.1,40.3,22.1
		C132.9,174,154.6,176.9,173.2,151.9z"/>
	<ellipse transform="matrix(0.6629 -0.7487 0.7487 0.6629 0.4278 164.966)" class="st4" cx="183.4" cy="82" rx="8.1" ry="12.8"/>
	<ellipse transform="matrix(0.6629 -0.7487 0.7487 0.6629 9.9827 175.1704)" class="st4" cx="199.5" cy="76.5" rx="4" ry="6.4"/>
	<ellipse transform="matrix(0.6629 -0.7487 0.7487 0.6629 22.135 168.4581)" class="st4" cx="198.1" cy="59.6" rx="1.4" ry="2.2"/>
	<path class="st2" d="M130.6,39.5c0,0-30.4-28.8-33.2-37.5c0,0,3,36.8,12.7,39.5S130.6,39.5,130.6,39.5z"/>
	<path class="st6" d="M122.8,41.9c0,0-23.5-29.9-25.5-39.1c0,0,0.9,39.6,8.7,42.1S122.8,41.9,122.8,41.9z"/>
	<path class="st2" d="M139.4,31.6c0,0-24.3-13.1-22.7-23.7c0,0-9.4,14.5,2,32.7S139.4,31.6,139.4,31.6z"/>
	<path class="st6" d="M140.1,34.9c0,0-25.2-13.3-23.7-23.9c0,0-9.6,14.5,2.3,32.8S140.1,34.9,140.1,34.9z"/>
	<path class="st2" d="M151,28.4c0,0-17-8.7-15.9-16c0,0-5.1,23.1,1.5,27C143.2,43.3,151,28.4,151,28.4z"/>
	<path class="st6" d="M150.3,30.5c0,0-16.4-9-15.2-16.7c0,0-5.3,24.5,1.1,28.5S150.3,30.5,150.3,30.5z"/>
	<path class="st2" d="M256,129.9c0,0,23.1,4.2,28.2,2.6c0,0-18.8,11-23,7.5S256,129.9,256,129.9z"/>
	<path class="st2" d="M252.7,117.5c0,0,15.9,9.8,20.2,5.8c0,0-3,9.4-16,8.3C243.8,130.5,252.7,117.5,252.7,117.5z"/>
	<path class="st2" d="M250,111.6c0,0,11.9,5.3,14.8,2.7c0,0-10.1,9.8-14.3,7.5C246.2,119.4,250,111.6,250,111.6z"/>
	<path class="st2" d="M258.4,128.6c0,0,22.9,4.4,27.9,2.9c0,0-18.5,10.7-22.7,7.1C259.4,135.1,258.4,128.6,258.4,128.6z"/>
	<g>
		<path class="st6" d="M255.7,130c0,0,22.9,4.4,27.9,2.9c0,0-18.5,10.7-22.7,7.1C256.7,136.4,255.7,130,255.7,130z"/>
		<path class="st6" d="M252,118.5c0,0,16,10.1,20.2,6.2c0,0-2.8,9.4-15.9,8C243.3,131.4,252,118.5,252,118.5z"/>
		<path class="st6" d="M249.8,111.9c0,0,10.6,6.3,13.8,3.4c0,0-9.5,10.2-13.9,7.9S249.8,111.9,249.8,111.9z"/>
	</g>
	<path class="st2" d="M29.4,191.8c0,0-22.2,8.4-26.7,7.8c0,0,15.8,7.1,20.3,2.9S29.4,191.8,29.4,191.8z"/>
	<path class="st6" d="M28.6,193.9c0,0-18.4,7-22.2,6.5c0,0,13.2,5.9,16.9,2.4S28.6,193.9,28.6,193.9z"/>
	<path class="st6" d="M29.3,195.9c0,0-9.4-6.3-18.7-1.9c0,0,5.3-7,17.6-10.7C40.4,179.7,29.3,195.9,29.3,195.9z"/>
	<path class="st6" d="M21.4,186.2c0,0-3.6-0.4-5.2-4c0,0,0.1,3.4,2.6,7.5C21.3,193.7,21.4,186.2,21.4,186.2z"/>
	<path class="st6" d="M35.3,178.4c0,0-9.1,6.7-11.2,4.8c0,0,6.2,6.8,9.9,4.3C37.7,185,35.3,178.4,35.3,178.4z"/>
	<path class="st9" d="M106.1,201.4l-7.9-5.6c-1.4-1-1.8-3-0.7-4.4l9.9-13.9l13.1,9.3l-9.9,13.9C109.5,202.1,107.5,202.4,106.1,201.4
		z"/>
	<path class="st5" d="M117.3,184.6l-8.8,12.3c-1.4,1.9-4,2.4-5.9,1l-5.1-3.6c0.3,0.8,0.8,1.6,1.6,2.1l6.1,4.4c1.9,1.4,4.6,0.9,5.9-1
		l9.2-13L117.3,184.6z"/>
	<path class="st9" d="M124,204l-5-1.8c-1.6-0.6-2.5-2.4-1.9-4l3.9-10.8l10.9,3.9l-3.9,10.8C127.4,203.7,125.6,204.6,124,204z"/>
	<path class="st5" d="M129,190.3l-3.1,8.7c-0.8,2.2-3.2,3.4-5.4,2.6l-2.8-1c0.5,0.9,1.3,1.6,2.3,2l2.9,1.1c2.2,0.8,4.6-0.3,5.4-2.6
		l3.5-9.8L129,190.3z"/>
	<path class="st8" d="M97.9,165.4c0,0-10.8-12.1-10.8,8.1C87.1,173.5,88.5,160.1,97.9,165.4z"/>
	<path class="st8" d="M92.5,165.4c0,0,49.8,60.2,83.4,6C175.9,171.5,153.1,217.6,92.5,165.4z"/>
	<path class="st2" d="M45.4,121c0-29.6,12-56.5,31.4-76c-27.7,17.7-46.2,48.7-46.2,84c0,55,44.6,99.6,99.6,99.6
		c3.8,0,7.5-0.2,11.2-0.6C87.4,222.2,45.4,176.5,45.4,121z"/>
	<path class="st10" d="M188,76.6c3.9,3.4,6.1,7.7,6.2,11.3c0.7-3.5-1.3-8.3-5.5-12c-3.9-3.4-8.5-4.9-11.9-4.2
		C180.3,71.8,184.4,73.5,188,76.6z"/>
	<path class="st10" d="M202.2,73.5c-1.3-1.1-2.8-1.9-4.1-2.1c1,0.4,2,1,3,1.8c2.9,2.5,3.9,6.1,2.3,7.9c-0.2,0.2-0.4,0.4-0.6,0.5
		c0.6-0.1,1.1-0.4,1.5-0.9C205.8,79.1,204.8,75.8,202.2,73.5z"/>
</g>
</svg>
