<?xml version="1.0" encoding="utf-8"?>
<!-- Generator: Adobe Illustrator 22.0.0, SVG Export Plug-In . SVG Version: 6.00 Build 0)  -->
<svg version="1.1" id="Capa_1" xmlns="http://www.w3.org/2000/svg" xmlns:xlink="http://www.w3.org/1999/xlink" x="0px" y="0px"
	 viewBox="0 0 1366 768" style="enable-background:new 0 0 1366 768;" xml:space="preserve">
<style type="text/css">
	.st0{fill:#FFFFFF;}
</style>
<path class="st0" d="M1178,491c0,12.7,2.3,24.9,6.4,36.2c49.6-24.6,83.7-75.6,83.7-134.7c0-2.4-0.1-4.7-0.2-7.1
	C1216.9,393.6,1178,437.7,1178,491z"/>
<path class="st0" d="M1268.8,490.4c0,9.6,7.8,17.5,17.5,17.5s17.5-7.8,17.5-17.5c0-9.7-7.9-17.5-17.5-17.5
	S1268.8,480.7,1268.8,490.4z"/>
<path class="st0" d="M1080.7,484.5c0,113.1,92,205.1,205.2,205.1c27.9,0,54.8-5.5,80.2-16.3v-86.7c-22,18.7-50.5,29.9-81.6,29.9
	c-69.7,0-126.2-56.5-126.2-126.2c0-69.7,56.5-126.2,126.2-126.2c31.1,0,59.6,11.3,81.6,29.9v-98.5c-24.6-10.5-51.7-16.3-80.2-16.3
	C1172.7,279.3,1080.7,371.4,1080.7,484.5z"/>
<path class="st0" d="M1298.4,384.7c-0.1,2.6-0.2,5.1-0.2,7.8c0,52.5,27,98.7,67.8,125.6v-97.4C1349.1,401.2,1325.3,388,1298.4,384.7
	z"/>
<path class="st0" d="M1288.8,527.2c-33.1,0-63.8,10.7-88.6,28.9c19.6,25.5,50.4,42,85,42c32.2,0,61.1-14.3,80.7-36.9v-12.8
	C1343.5,535,1317.1,527.2,1288.8,527.2z"/>
<path class="st0" d="M909.4,264.2l-0.9,6.1l6.1,0.4c12.8,0.8,25.7,3.4,38.4,7.7l-30.3,359.6c-5.7,0.7-11.4,1-17.1,1
	c-36,0-70.1-12.8-98.7-36.9l34.2-316.9c11.5-5.5,23.7-9.5,36.3-11.9l4.1-0.8l0.5-4.1C895.2,159.1,951,64.4,1031.6,0H0v768h1042.4
	c-42.4-36.4-76.9-82.6-99.9-136.1l30.5-351.5c69.4-106.1,186.2-169.5,312.9-169.5c27.3,0,54.1,3,80.2,8.7V0h-288.2
	C988.9,58.3,925,153.1,909.4,264.2z M741.3,454.6c0-63,28.7-121.2,75.6-155l-30.4,281.8C757.6,547.3,741.3,501.8,741.3,454.6z"/>
</svg>
