<?xml version="1.0" encoding="utf-8"?>
<!-- Generator: Adobe Illustrator 22.0.0, SVG Export Plug-In . SVG Version: 6.00 Build 0)  -->
<svg version="1.1" id="Capa_1" xmlns="http://www.w3.org/2000/svg" xmlns:xlink="http://www.w3.org/1999/xlink" x="0px" y="0px"
	 viewBox="0 0 95.4 313.5" style="enable-background:new 0 0 95.4 313.5;" xml:space="preserve">
<style type="text/css">
	.st0{opacity:0.5;fill:#0F382C;}
	.st1{fill:#F4AEDF;}
	.st2{fill:#FCD6F2;}
	.st3{fill:#C1C0B0;}
	.st4{fill:#EADB57;}
	.st5{fill:#1E1E1E;}
	.st6{opacity:0.5;}
	.st7{fill:#FFFFFF;}
	.st8{fill:#686867;}
	.st9{fill:#8E8D8A;}
	.st10{fill:#A5A5A5;}
	.st11{fill:#CCCCCC;}
	.st12{opacity:0.1;fill:#588593;}
	.st13{fill:#6092A5;stroke:#588593;stroke-miterlimit:10;}
	.st14{fill:#588593;}
	.st15{fill:#4D7784;stroke:#426770;stroke-miterlimit:10;}
	.st16{fill:#36545B;}
	.st17{opacity:0.1;}
	.st18{fill:#6092A5;}
	.st19{fill:#4D7784;}
	.st20{fill:#FFFFFF;stroke:#939393;stroke-width:0.25;stroke-miterlimit:10;}
	.st21{fill:#283E42;}
	.st22{fill:#F2ED49;stroke:#F7F363;stroke-miterlimit:10;}
	.st23{fill:#EFE41B;stroke:#EFE41B;stroke-miterlimit:10;}
	.st24{fill:#3A3A3A;stroke:#A5A5A5;stroke-miterlimit:10;}
	.st25{fill:none;stroke:#4C4C4A;stroke-miterlimit:10;}
	.st26{fill:#AAAAAA;}
	.st27{fill:#AAAAAA;stroke:#A5A5A5;stroke-miterlimit:10;}
	.st28{fill:#141414;}
	.st29{opacity:0.5;fill:#FFFFFF;}
	.st30{opacity:0.5;fill:#AAAAAA;}
</style>
<g>
	<polygon class="st0" points="62.7,84.2 61.7,83.5 32.2,83.5 33.1,84.2 	"/>
	<path class="st1" d="M55,17.2l-2.3-0.7c-2.2-0.7-4.5,0.6-5.1,2.7l-0.2,0.6c-0.7,2.2,0.6,4.5,2.7,5.1l2.3,0.7
		c2.2,0.7,4.5-0.6,5.1-2.7l0.2-0.6C58.4,20.1,57.2,17.8,55,17.2z"/>
	<path class="st2" d="M57.1,17.8l-1.8-0.5c1,0.3,1.6,1.4,1.3,2.4l-1.4,4.7c-0.3,1-1.4,1.6-2.4,1.3l1.8,0.5c1,0.3,2.1-0.3,2.4-1.3
		l1.4-4.7C58.7,19.2,58.1,18.1,57.1,17.8z"/>
	<g>
		
			<rect x="21.2" y="44.3" transform="matrix(0.2922 -0.9563 0.9563 0.2922 -16.474 77.0453)" class="st3" width="45.2" height="10.7"/>
	</g>
	<g>
		
			<rect x="17.8" y="46.8" transform="matrix(0.2922 -0.9563 0.9563 0.2922 -17.8855 73.062)" class="st4" width="45.2" height="3.6"/>
	</g>
	<g>
		
			<rect x="21.2" y="47.9" transform="matrix(0.2922 -0.9563 0.9563 0.2922 -16.474 77.0453)" class="st5" width="45.2" height="3.6"/>
	</g>
	<g>
		
			<rect x="24.6" y="48.9" transform="matrix(0.2922 -0.9563 0.9563 0.2922 -15.0625 81.0287)" class="st4" width="45.2" height="3.6"/>
	</g>
	<g class="st6">
		
			<rect x="25.7" y="50.8" transform="matrix(0.2922 -0.9563 0.9563 0.2922 -14.9879 82.5482)" class="st7" width="45.2" height="1.1"/>
	</g>
	<g>
		<path class="st3" d="M41.7,68.8l-2.7,2.9l-0.6-4l-2.7,2.9l-0.6-4l-2.8,3l1,12.4c0.1,0.8,1,1.1,1.5,0.5l7.7-9.8L41.7,68.8z"/>
	</g>
	<path class="st8" d="M53.7,32.4l-8.4-2.6c-1-0.3-1.5-1.3-1.2-2.3l0.1-0.3c0.3-1,1.3-1.5,2.3-1.2l8.4,2.6c1,0.3,1.5,1.3,1.2,2.3
		L56,31.2C55.7,32.2,54.6,32.7,53.7,32.4z"/>
	<path class="st9" d="M54.9,28.6L46.3,26c-0.9-0.3-1.5-1.3-1.2-2.2l0.1-0.2c0.3-0.9,1.3-1.5,2.2-1.2L56,25c0.9,0.3,1.5,1.3,1.2,2.2
		l-0.1,0.2C56.8,28.4,55.9,28.9,54.9,28.6z"/>
	<g>
		<path class="st10" d="M55,28.6L52.9,28c1,0.3,1.6,1.4,1.3,2.4l-0.1,0.2c-0.3,1-1.4,1.6-2.4,1.2l2.1,0.6c1,0.3,2.1-0.3,2.4-1.2
			l0.1-0.2C56.6,30,56,28.9,55,28.6z"/>
		<path class="st11" d="M56.1,25L54,24.3c1,0.3,1.6,1.4,1.3,2.4s-1.4,1.6-2.4,1.2l2.1,0.6c1,0.3,2.1-0.3,2.4-1.2S57.1,25.3,56.1,25z
			"/>
	</g>
	<g>
		<path d="M34.6,82.6l0.8-0.9c0.5-0.7,0.2-1.6-0.6-1.9l-0.2-0.1c-0.8-0.2-1.6,0.4-1.5,1.2l0.1,1.2C33.1,82.9,34.1,83.2,34.6,82.6z"
			/>
	</g>
</g>
<g>
	<ellipse class="st12" cx="48.5" cy="189.7" rx="36" ry="3.9"/>
	<path class="st13" d="M74.3,188.4c-0.3-0.6-0.9-1.1-1.5-1.5c-1.5-0.9-3.5-1.5-5.3-1.9c-0.9-0.2-1.9-0.4-2.9-0.6
		c-0.9-0.2-1.9-0.3-2.8-0.4c-0.5,0-1-0.1-1.5-0.1c-0.3,0-0.7,0-1,0.1c-0.1,0-0.1,0-0.2,0c-0.6-3.8-2.8-15.8-5.5-13.7
		c0,0-21.5-0.7-21.5-0.7c-0.5,0-1.7,3.5-1.8,4c-0.6,1.6-1,3.3-1.1,5c-0.1,1-0.2,3.2,0.1,5c-0.4,0-0.7,0.1-1.1,0.1
		c-0.7,0.1-1.3,0.3-2,0.4c-0.7,0.2-1.3,0.4-2,0.6c-1.3,0.5-2.7,1.1-3.7,2c-0.5,0.4-0.8,0.9-1,1.5c-0.2,0.6,0,1.3,0.2,1.8
		c0.2,0.4,0.4,0.9,0.9,1c0.7,0.3,1.7,0,2.5-0.1c1-0.1,2-0.2,3-0.3c1.2-0.1,2.5-0.2,3.7-0.3c0.6-0.1,1.3-0.1,1.9-0.2
		c0.7,0,0.6-0.7,0.6-1.2c0-1.4,0-2.8-0.7-4.1c0-0.1-0.1-0.2-0.2-0.3c-0.2-0.3-0.5-0.6-0.8-0.8c0-0.1,0-0.1,0-0.2
		c0-5.1,4.7-7.2,9.1-7.7c4.3-0.5,9.9-0.6,13.4,2.2c1.3,1,2.3,2.5,3.1,3.9c0.1,0.1,0.9,1.8,1.3,2.7c-0.1,0.1-0.2,0.2-0.3,0.3
		c-0.1,0.1-0.1,0.2-0.2,0.3c-0.8,1.3-0.7,2.7-0.7,4.1c0,0.2,0,0.4,0.1,0.7c0,0.1,0,0.5,0.2,0.5c0,0,0.1,0,0.1,0c0.8,0,1.5,0,2.3,0.1
		c2.2,0.1,4.4,0.1,6.6,0.2c2.2,0.1,4.4,0.2,6.6,0.2c1,0,1.5-0.5,1.9-1.1C74.5,189.7,74.6,189,74.3,188.4z"/>
	<path class="st14" d="M19.8,188.9c0.2-0.6,0.6-1.1,1.1-1.6c1.1-1,2.5-1.6,3.9-2.1c0.7-0.3,1.4-0.5,2.1-0.7c0.7-0.2,1.4-0.4,2.1-0.5
		c0.4-0.1,0.7-0.1,1.1-0.1c-0.3-1.8-0.2-4.1-0.1-5.2c0.2-1.8,0.6-3.5,1.2-5.2c0.1-0.4,1-2.9,1.6-3.9c-0.4,0-0.7,0-0.7,0
		c-0.5,0-1.7,3.5-1.8,4c-0.6,1.6-1,3.3-1.1,5c-0.1,1-0.2,3.2,0.1,5c-0.4,0-0.7,0.1-1.1,0.1c-0.7,0.1-1.3,0.3-2,0.4
		c-0.7,0.2-1.3,0.4-2,0.6c-1.3,0.5-2.7,1.1-3.7,2c-0.5,0.4-0.8,0.9-1,1.5c-0.2,0.6,0,1.3,0.2,1.8c0.1,0.2,0.2,0.4,0.4,0.6
		C19.7,190.2,19.6,189.6,19.8,188.9z"/>
	<path class="st13" d="M87.2,157.9c-0.2-5.5-18.2-20.6-18.2-20.6l-0.1,0.7c0,0-3.9,4.8-0.5,5.5c3.4,0.7,7.8,10.3,7.8,10.3
		c-0.1-0.2-1.6,1.5-1.7,1.7c-0.3,0.7-0.7,1.9,0.5,1.7c1.8-0.3,3.2-0.6,4.7,0.7c1.2,1,1.8,2.7,1.4,4.2c-0.2,0.7-1,1.5-0.6,2.1
		c1.8,2.3,3.3-2.7,3.5-3.7c-0.2,1.2-1.1,5.3,1.3,5C87.6,165.3,87.2,159.5,87.2,157.9z"/>
	<path class="st14" d="M84,160.9c-0.2,0.6-0.4,1.8-0.4,3.3c0.1,0.9,0.6,1.5,1.5,1.4c0.1,0,0.1,0,0.2,0
		C84.2,164.5,83.3,162.6,84,160.9z"/>
	<g>
		<path class="st14" d="M76.7,153.3c0,0-4.7-10.3-8.3-11.1c-0.8-0.2-1.2-0.5-1.4-1c-0.3,1-0.1,2,1.3,2.2c3.3,0.7,7.5,9.7,7.8,10.3
			C76.4,153.5,76.7,153.3,76.7,153.3z"/>
		<path class="st14" d="M81.3,164.4c-0.5-0.6,0.5-1.5,0.6-2.2c0.4-1.6-0.2-3.4-1.5-4.5c-1.6-1.3-3.2-1.1-5.1-0.7
			c-1.3,0.2-0.9-1-0.6-1.8c0.1-0.2,0.7-0.8,1.2-1.3c-0.3,0.1-1.6,1.5-1.7,1.7c-0.3,0.7-0.7,1.9,0.5,1.7c1.8-0.3,3.2-0.6,4.7,0.7
			c1.2,1,1.8,2.7,1.4,4.2c-0.2,0.7-1,1.5-0.6,2.1c0.5,0.6,0.9,0.7,1.3,0.6C81.6,164.7,81.4,164.5,81.3,164.4z"/>
	</g>
	<path class="st13" d="M13.5,177.7c-1.9-5,7.9-24.7,7.9-24.7l0.3,0.6c0,0,5.1,2.8,2.5,4.7c-2.6,1.8-2.8,11.9-2.8,11.9
		c0,0,2.7,0.9,2.8,1.9c0.2,1.2-3.9,1.4-4.4,2.5c-0.1,0.2-0.1,0.4-0.1,0.6c-0.1,1.3,0,2.7,0.7,3.9c0.6,1.1,2.2,2.2-0.1,2.4
		c-1.5,0.1-2.3-1.7-3.1-2.6c3.9,6.2-0.3,4.8-0.3,4.8S15.4,182.7,13.5,177.7z"/>
	<path class="st14" d="M14.6,177.3c-1.6-4.1,4.2-17.5,7.2-23.9l-0.2-0.5c0,0-9.8,19.7-7.9,24.7c1.9,5,3.5,5.9,3.5,5.9
		s0.6,0.2,1.2,0.1C17.8,183.3,16.2,181.8,14.6,177.3z"/>
	<path class="st14" d="M17.6,178.9c0.7,1.8,1.8,1.9,2.4,2.8c0.1,0,0.1,0,0.2,0c0.6-0.2,0.9-0.3,1.2-0.5
		C19.7,180.9,18.9,179.7,17.6,178.9z"/>
	<path class="st14" d="M22,173.5c0.8-0.3,1.7-0.5,2.1-0.9C23.3,172.8,22.5,173.1,22,173.5z"/>
	<g>
		<path class="st15" d="M64.3,134.1c-1.9-2.8-4.2-4.9-6.9-6.5c0.5-0.5,1-1,1.6-1.4c4.4-2.9,10.3-1.8,13.2,2.6
			c2.9,4.4,1.8,10.3-2.6,13.2c-0.6,0.4-1.2,0.7-1.9,1C67.3,139.9,66.1,136.8,64.3,134.1z"/>
		<path class="st16" d="M65.3,133.4c-1.2-1.8-2.8-3.3-4.7-4.4c0.3-0.3,0.7-0.6,1.1-0.9c2.9-2,6.9-1.2,8.9,1.7c2,2.9,1.2,6.9-1.7,8.9
			c-0.4,0.3-0.8,0.5-1.2,0.7C67.3,137.3,66.5,135.3,65.3,133.4z"/>
	</g>
	<g>
		<path class="st15" d="M22.5,149.4c-0.2-3.3,0.3-6.5,1.5-9.4c-0.7-0.1-1.4-0.1-2.1-0.1c-5.2,0.3-9.2,4.9-8.9,10.1
			c0.3,5.2,4.9,9.2,10.1,8.9c0.7,0,1.4-0.2,2.1-0.4C23.6,155.8,22.7,152.7,22.5,149.4z"/>
		<path class="st16" d="M21.6,149.1c-0.1-2.2,0.2-4.4,1-6.3c-0.5-0.1-0.9-0.1-1.4-0.1c-3.5,0.2-6.2,3.3-6,6.8c0.2,3.5,3.3,6.2,6.8,6
			c0.5,0,0.9-0.1,1.4-0.2C22.4,153.4,21.8,151.3,21.6,149.1z"/>
	</g>
	<g class="st17">
		<path class="st16" d="M22.5,149.4c-0.2-3.3,0.3-6.5,1.5-9.4c-0.7-0.1-1.4-0.1-2.1-0.1c-5.2,0.3-9.2,4.9-8.9,10.1
			c0.3,5.2,4.9,9.2,10.1,8.9c0.7,0,1.4-0.2,2.1-0.4C23.6,155.8,22.7,152.7,22.5,149.4z"/>
		<path class="st16" d="M21.6,149.1c-0.1-2.2,0.2-4.4,1-6.3c-0.5-0.1-0.9-0.1-1.4-0.1c-3.5,0.2-6.2,3.3-6,6.8c0.2,3.5,3.3,6.2,6.8,6
			c0.5,0,0.9-0.1,1.4-0.2C22.4,153.4,21.8,151.3,21.6,149.1z"/>
	</g>
	<circle class="st14" cx="45.8" cy="148.5" r="26.8"/>
	<circle class="st18" cx="45.8" cy="148.5" r="26.1"/>
	<circle class="st7" cx="45.8" cy="148.5" r="11.3"/>
	<path class="st17" d="M36,148.2c0-4.2,2.1-7.9,5.4-10c-4,1.7-6.8,5.7-6.8,10.4c0,5.9,4.6,10.8,10.4,11.3
		C39.8,158.4,36,153.7,36,148.2z"/>
	<circle cx="45.8" cy="148.5" r="7.1"/>
	<circle class="st7" cx="50.1" cy="144.3" r="2.8"/>
	<circle class="st7" cx="45.8" cy="148.5" r="3.9"/>
	<path class="st19" d="M35.3,142.1c0,0,2.2-6.8,10.6-7.1c0,0,8.1,0.5,10.6,7.1c0,0-4.9-6.1-10.6-5.8
		C45.8,136.3,40.2,135.6,35.3,142.1z"/>
	<path class="st19" d="M56.4,154.9c0,0-2.2,6.8-10.6,7.1c0,0-8.1-0.5-10.6-7.1c0,0,4.9,6.1,10.6,5.8
		C45.8,160.7,51.5,161.4,56.4,154.9z"/>
	
		<ellipse transform="matrix(0.6629 -0.7487 0.7487 0.6629 -82.2935 90.2754)" class="st16" cx="59.1" cy="136.5" rx="2.1" ry="3.4"/>
	
		<ellipse transform="matrix(0.6629 -0.7487 0.7487 0.6629 -79.7868 92.9525)" class="st16" cx="63.3" cy="135.1" rx="1.1" ry="1.7"/>
	<ellipse transform="matrix(0.6629 -0.7487 0.7487 0.6629 -76.5987 91.1915)" class="st16" cx="63" cy="130.7" rx="0.4" ry="0.6"/>
	<path class="st14" d="M45.3,125.4c0,0-8-7.6-8.7-9.8c0,0,0.8,9.7,3.3,10.4C42.4,126.6,45.3,125.4,45.3,125.4z"/>
	<path class="st18" d="M43.2,126c0,0-6.2-7.8-6.7-10.3c0,0,0.2,10.4,2.3,11C40.8,127.4,43.2,126,43.2,126z"/>
	<path class="st14" d="M47.6,123.3c0,0-6.4-3.4-6-6.2c0,0-2.5,3.8,0.5,8.6C45.1,130.4,47.6,123.3,47.6,123.3z"/>
	<path class="st18" d="M47.7,124.2c0,0-6.6-3.5-6.2-6.3c0,0-2.5,3.8,0.6,8.6S47.7,124.2,47.7,124.2z"/>
	<path class="st14" d="M50.6,122.5c0,0-4.5-2.3-4.2-4.2c0,0-1.3,6.1,0.4,7.1C48.5,126.4,50.6,122.5,50.6,122.5z"/>
	<path class="st18" d="M50.4,123c0,0-4.3-2.4-4-4.4c0,0-1.4,6.4,0.3,7.5C48.4,127.2,50.4,123,50.4,123z"/>
	<path class="st14" d="M78.2,149.1c0,0,6.1,1.1,7.4,0.7c0,0-4.9,2.9-6,2C78.4,150.8,78.2,149.1,78.2,149.1z"/>
	<path class="st14" d="M77.3,145.8c0,0,4.2,2.6,5.3,1.5c0,0-0.8,2.5-4.2,2.2C75,149.2,77.3,145.8,77.3,145.8z"/>
	<path class="st14" d="M76.6,144.3c0,0,3.1,1.4,3.9,0.7c0,0-2.7,2.6-3.8,2C75.6,146.3,76.6,144.3,76.6,144.3z"/>
	<path class="st14" d="M78.8,148.8c0,0,6,1.2,7.3,0.8c0,0-4.8,2.8-6,1.9C79,150.5,78.8,148.8,78.8,148.8z"/>
	<g>
		<path class="st18" d="M78.1,149.1c0,0,6,1.2,7.3,0.8c0,0-4.8,2.8-6,1.9C78.3,150.8,78.1,149.1,78.1,149.1z"/>
		<path class="st18" d="M77.1,146.1c0,0,4.2,2.6,5.3,1.6c0,0-0.7,2.5-4.2,2.1C74.8,149.5,77.1,146.1,77.1,146.1z"/>
		<path class="st18" d="M76.5,144.4c0,0,2.8,1.7,3.6,0.9c0,0-2.5,2.7-3.6,2.1C75.4,146.7,76.5,144.4,76.5,144.4z"/>
	</g>
	<path class="st14" d="M18.7,165.3c0,0-5.8,2.2-7,2c0,0,4.2,1.9,5.3,0.8C18.2,167,18.7,165.3,18.7,165.3z"/>
	<path class="st18" d="M18.5,165.9c0,0-4.8,1.8-5.8,1.7c0,0,3.5,1.6,4.4,0.6S18.5,165.9,18.5,165.9z"/>
	<path class="st18" d="M18.7,166.4c0,0-2.5-1.6-4.9-0.5c0,0,1.4-1.8,4.6-2.8C21.6,162.2,18.7,166.4,18.7,166.4z"/>
	<path class="st18" d="M16.6,163.8c0,0-0.9-0.1-1.4-1c0,0,0,0.9,0.7,2C16.6,165.8,16.6,163.8,16.6,163.8z"/>
	<path class="st18" d="M20.3,161.8c0,0-2.4,1.8-2.9,1.3c0,0,1.6,1.8,2.6,1.1S20.3,161.8,20.3,161.8z"/>
	<path class="st20" d="M37.9,167.2l-0.3-0.2c-0.9-0.6-1.1-1.8-0.5-2.7l1.9-2.7l3.4,2.4l-1.9,2.7C40,167.6,38.8,167.8,37.9,167.2z"/>
	<path class="st17" d="M41.8,163.4l-2.3,3.2c-0.4,0.5-1.1,0.6-1.6,0.3l-1.3-0.9c0.1,0.2,0.2,0.4,0.4,0.6l1.6,1.1
		c0.5,0.4,1.2,0.2,1.6-0.3l2.4-3.4L41.8,163.4z"/>
	<path class="st20" d="M43,168.3l-0.2-0.1c-0.7-0.3-1.1-1.1-0.8-1.8l0.8-2.3l2.9,1l-0.8,2.3C44.5,168.2,43.7,168.6,43,168.3z"/>
	<path class="st17" d="M44.8,164.9l-0.8,2.3c-0.2,0.6-0.8,0.9-1.4,0.7l-0.7-0.3c0.1,0.2,0.3,0.4,0.6,0.5l0.8,0.3
		c0.6,0.2,1.2-0.1,1.4-0.7l0.9-2.6L44.8,164.9z"/>
	<path class="st19" d="M36.7,158.4c0,0-2.8-3.2-2.8,2.1C33.8,160.5,34.2,157,36.7,158.4z"/>
	<path class="st19" d="M35.3,158.4c0,0,13.1,15.8,21.9,1.6C57.1,160,51.1,172.1,35.3,158.4z"/>
	<path class="st14" d="M22.9,146.8c0-7.8,3.1-14.8,8.2-19.9c-7.3,4.6-12.1,12.8-12.1,22c0,14.4,11.7,26.1,26.1,26.1
		c1,0,2-0.1,2.9-0.2C33.9,173.3,22.9,161.3,22.9,146.8z"/>
	<path class="st21" d="M60.3,135.1c1,0.9,1.6,2,1.6,3c0.2-0.9-0.3-2.2-1.4-3.1c-1-0.9-2.2-1.3-3.1-1.1
		C58.3,133.8,59.4,134.3,60.3,135.1z"/>
	<path class="st21" d="M64,134.3c-0.3-0.3-0.7-0.5-1.1-0.5c0.3,0.1,0.5,0.3,0.8,0.5c0.8,0.7,1,1.6,0.6,2.1c0,0.1-0.1,0.1-0.2,0.1
		c0.2,0,0.3-0.1,0.4-0.2C65,135.7,64.7,134.9,64,134.3z"/>
</g>
<g>
	<path class="st22" d="M65.6,266.7c0-11.5-8-20.8-17.9-20.8s-17.9,9.3-17.9,20.8c0,8.3,4.2,15.5,10.3,18.8v6h15.3v-6
		C61.4,282.2,65.6,275,65.6,266.7z"/>
	<path class="st23" d="M51,246.3c5.7,4.3,9.4,11.7,9.4,20.1c0,9.6-4.9,17.9-11.9,21.7v3.4h6.8v-6c6.1-3.3,10.3-10.5,10.3-18.8
		C65.6,256.5,59.3,248.1,51,246.3z"/>
	<path class="st24" d="M55,294.1H40.4c-0.7,0-1.3-0.6-1.3-1.3V292c0-0.7,0.6-1.3,1.3-1.3H55c0.7,0,1.3,0.6,1.3,1.3v0.8
		C56.4,293.5,55.7,294.1,55,294.1z"/>
	<path class="st24" d="M53.4,297.6H42c-0.7,0-1.3-0.6-1.3-1.3v-0.8c0-0.7,0.6-1.3,1.3-1.3h11.5c0.7,0,1.3,0.6,1.3,1.3v0.8
		C54.8,297,54.2,297.6,53.4,297.6z"/>
	<polygon class="st25" points="43.1,289.2 43.1,277 46,282.9 47.7,276.6 49.4,282.9 52.3,277 52.3,289.2 	"/>
	<path class="st24" d="M56.2,290.7h-17c-0.7,0-1.3-0.6-1.3-1.3v-0.8c0-0.7,0.6-1.3,1.3-1.3h17c0.7,0,1.3,0.6,1.3,1.3v0.8
		C57.5,290.1,56.9,290.7,56.2,290.7z"/>
	<path class="st26" d="M54.5,292v0.7c0,0.6-0.3,1-0.8,1.4h0.6c1.2,0,2.1-0.8,2.1-1.7c0-1-0.9-1.7-2.1-1.7h-0.6
		C54.1,291,54.5,291.5,54.5,292z"/>
	<path class="st26" d="M50.5,294.2c1.2,0,2.1,0.8,2.1,1.9v0.8c0,0.2-0.1,0.5-0.1,0.7h0.3c1.2,0,2.1-0.8,2.1-1.9
		c0-0.8-0.6-1.5-1.4-1.8c-0.3,0.2-0.7,0.3-1.1,0.3H50.5z"/>
	<path class="st26" d="M57.5,289.1c0-0.9-0.8-1.7-1.8-1.8c0.1,0.2,0.1,0.4,0.1,0.6v0.8c0,1-0.9,1.8-2.1,1.8h-1.4
		c0.5,0,0.9,0.1,1.3,0.4h0.6h1.2C56.6,290.9,57.5,290.1,57.5,289.1z"/>
	<path class="st27" d="M53.4,294.3c0.1,0,0.1-0.1,0.2-0.1h-1C53,294.1,53.2,294.2,53.4,294.3z"/>
	<g>
		<path class="st28" d="M42.5,262.8c1.3,0,2.6,0.6,3.4,1.6c-0.5-1.4-1.8-2.4-3.4-2.4s-2.9,1-3.4,2.4
			C39.9,263.4,41.1,262.8,42.5,262.8z"/>
		<path class="st28" d="M52.9,262.8c1.3,0,2.6,0.6,3.4,1.6c-0.5-1.4-1.8-2.4-3.4-2.4c-1.6,0-2.9,1-3.4,2.4
			C50.4,263.4,51.6,262.8,52.9,262.8z"/>
	</g>
	<path class="st28" d="M47.7,273.4c-2.5,0-4.8-1-6.3-2.6c0.9,2.3,3.4,4,6.3,4c2.9,0,5.4-1.7,6.3-4C52.5,272.4,50.2,273.4,47.7,273.4
		z"/>
	<ellipse class="st29" cx="58.9" cy="269.8" rx="2.8" ry="3.3"/>
	<ellipse class="st29" cx="36.5" cy="269.8" rx="2.8" ry="3.3"/>
	<path class="st22" d="M47.9,241.1h-0.5c-0.4,0-0.8-0.4-0.8-0.8v-11.7c0-0.4,0.4-0.8,0.8-0.8h0.5c0.4,0,0.8,0.4,0.8,0.8v11.7
		C48.7,240.7,48.4,241.1,47.9,241.1z"/>
	<path class="st22" d="M28.5,252.2l-0.2,0.4c-0.2,0.4-0.7,0.5-1.1,0.3L17,247c-0.4-0.2-0.5-0.7-0.3-1.1l0.2-0.4
		c0.2-0.4,0.7-0.5,1.1-0.3l10.2,5.9C28.6,251.3,28.8,251.8,28.5,252.2z"/>
	<path class="st22" d="M58.8,243.8l0.4,0.2c0.4,0.2,0.9,0.1,1.1-0.3l3.3-5.7c0.2-0.4,0.1-0.9-0.3-1.1l-0.4-0.2
		c-0.4-0.2-0.9-0.1-1.1,0.3l-3.3,5.7C58.3,243.1,58.4,243.6,58.8,243.8z"/>
	<path class="st22" d="M36.6,243.7l-0.4,0.2c-0.4,0.2-0.9,0.1-1.1-0.3l-3.3-5.7c-0.2-0.4-0.1-0.9,0.3-1.1l0.4-0.2
		c0.4-0.2,0.9-0.1,1.1,0.3l3.3,5.7C37.1,243,37,243.5,36.6,243.7z"/>
	<path class="st22" d="M66.9,252.2l0.2,0.4c0.2,0.4,0.7,0.5,1.1,0.3l10.2-5.9c0.4-0.2,0.5-0.7,0.3-1.1l-0.2-0.4
		c-0.2-0.4-0.7-0.5-1.1-0.3l-10.2,5.9C66.8,251.3,66.6,251.8,66.9,252.2z"/>
	<path class="st22" d="M69.8,263.2v0.5c0,0.4,0.4,0.8,0.8,0.8h7.2c0.4,0,0.8-0.4,0.8-0.8v-0.5c0-0.4-0.4-0.8-0.8-0.8h-7.2
		C70.2,262.4,69.8,262.8,69.8,263.2z"/>
	<path class="st22" d="M16.8,263.2v0.5c0,0.4,0.4,0.8,0.8,0.8h7.2c0.4,0,0.8-0.4,0.8-0.8v-0.5c0-0.4-0.4-0.8-0.8-0.8h-7.2
		C17.1,262.4,16.8,262.8,16.8,263.2z"/>
	<path class="st24" d="M53.1,297.8h-0.3h-9.9c-0.2,0-0.4,0-0.6-0.1c0,0.1,0,0.1,0,0.2c0,2.4,2.4,4.4,5.4,4.4c3,0,5.4-2,5.4-4.4
		C53.1,297.9,53.1,297.8,53.1,297.8L53.1,297.8z"/>
	<path class="st30" d="M53.1,297.6L53.1,297.6h-0.2h-1.3c-0.3,2.2-2,3.9-4.1,4.4c0.4,0.1,0.8,0.2,1.3,0.2c2.4,0,4.4-2,4.4-4.4
		C53.1,297.7,53.1,297.6,53.1,297.6z"/>
</g>
</svg>
