<?xml version="1.0" encoding="utf-8"?>
<!-- Generator: Adobe Illustrator 22.0.0, SVG Export Plug-In . SVG Version: 6.00 Build 0)  -->
<svg version="1.1" id="Capa_1" xmlns="http://www.w3.org/2000/svg" xmlns:xlink="http://www.w3.org/1999/xlink" x="0px" y="0px"
	 viewBox="0 0 72.2 226.4" style="enable-background:new 0 0 72.2 226.4;" xml:space="preserve">
<style type="text/css">
	.st0{fill:#FFFFFF;}
</style>
<path class="st0" d="M3.8,44.6c21.5,0,32.2,4.9,32.2,14.6c0,9.7-10.7,14.6-32.2,14.6c-0.4,0-0.8,0-1.1,0v43.1c0.4,0,0.7,0,1.1,0
	c13.8,0,25.8-2.5,35.8-7.4c10-4.9,17.7-11.7,22.9-20.4c5.3-8.7,7.9-18.7,7.9-29.9c0-11.3-2.6-21.3-7.9-29.9
	c-5.3-8.7-12.9-15.5-22.9-20.4c-10-4.9-21.9-7.4-35.8-7.4c-0.4,0-0.8,0-1.1,0v43.1C3.1,44.6,3.5,44.6,3.8,44.6z"/>
<path class="st0" d="M10.8,220.2c6.1,3,12.7,4.5,19.7,4.5c7.9,0,14.9-2.2,20.9-6.6c6.1-4.4,10.7-10.4,14-18.2
	c3.3-7.8,4.9-16.7,4.9-26.8c0-13.2-2.6-24.5-7.9-33.9c-5.3-9.3-12.5-16.4-21.6-21.3l-16.2,32.4c3.8,1.8,6.7,4.4,8.7,7.8
	c2.1,3.4,3.1,7,3.1,10.9c0,4-0.9,7.1-2.6,9.2c-1.8,2.1-4.2,3.2-7.4,3.2c-2.5,0-5.2-0.7-7.8-2c-2.7-1.3-5.9-4-9.6-8l-6.4-6.9v50.4
	C5.6,217.2,8.3,218.9,10.8,220.2z"/>
</svg>
