<?xml version="1.0" encoding="utf-8"?>
<!-- Generator: Adobe Illustrator 22.0.0, SVG Export Plug-In . SVG Version: 6.00 Build 0)  -->
<svg version="1.1" id="Capa_1" xmlns="http://www.w3.org/2000/svg" xmlns:xlink="http://www.w3.org/1999/xlink" x="0px" y="0px"
	 viewBox="0 0 70.1 223.8" style="enable-background:new 0 0 70.1 223.8;" xml:space="preserve">
<style type="text/css">
	.st0{fill:#FFFFFF;}
</style>
<g>
	<path class="st0" d="M2.1,45.1c21.5,0,32.2,4.9,32.2,14.6c0,9.7-10.7,14.6-32.2,14.6c0,0-0.1,0-0.1,0v43.1c0,0,0.1,0,0.1,0
		c13.8,0,25.8-2.5,35.8-7.4c10-4.9,17.7-11.7,22.9-20.4c5.3-8.7,7.9-18.7,7.9-29.9c0-11.3-2.6-21.3-7.9-29.9
		c-5.3-8.7-12.9-15.5-22.9-20.4C27.9,4.5,16,2,2.1,2C2.1,2,2,2,2,2v43.1C2,45.1,2.1,45.1,2.1,45.1z"/>
	<path class="st0" d="M2.2,220.3c6.4-5.3,10.8-12.8,13.2-22.7l24,23.7h26.4v-95H33.4v45.5l-19.1-18.7H2v67.4
		C2.1,220.4,2.1,220.4,2.2,220.3z"/>
</g>
</svg>
