<?xml version="1.0" encoding="utf-8"?>
<!-- Generator: Adobe Illustrator 22.0.0, SVG Export Plug-In . SVG Version: 6.00 Build 0)  -->
<svg version="1.1" id="Capa_1" xmlns="http://www.w3.org/2000/svg" xmlns:xlink="http://www.w3.org/1999/xlink" x="0px" y="0px"
	 viewBox="0 0 194 266.5" style="enable-background:new 0 0 194 266.5;" xml:space="preserve">
<style type="text/css">
	.st0{fill:#0D66A3;}
	.st1{fill:#0D547C;}
	.st2{fill:#E09494;}
	.st3{opacity:0.2;}
	.st4{fill:#EFABAB;}
	.st5{fill:#BA7878;}
	.st6{fill:#E09696;}
	.st7{fill:#FFFFFF;}
	.st8{fill:#C46969;}
	.st9{fill:#875408;}
	.st10{fill:none;stroke:#000000;stroke-width:0.25;stroke-miterlimit:10;}
	.st11{fill:#593506;}
	.st12{fill:#B27F3B;}
	.st13{fill:#593506;stroke:#593506;stroke-miterlimit:10;}
	.st14{fill:none;stroke:#FFFFFF;stroke-miterlimit:10;}
</style>
<ellipse class="st0" cx="100" cy="264" rx="124" ry="45.5"/>
<path class="st1" d="M100,218.5c-5.2,0-10.4,0.1-15.4,0.4c61.2,2.8,108.6,21.9,108.6,45.2c0,23.2-47.4,42.4-108.6,45.2
	c5.1,0.2,10.2,0.4,15.4,0.4c68.5,0,124-20.4,124-45.5S168.5,218.5,100,218.5z"/>
<g>
	<path class="st2" d="M96.6,239.7L96.6,239.7c-9.9,0-17.9-8-17.9-17.9v-12.5h35.9v12.5C114.5,231.6,106.5,239.7,96.6,239.7z"/>
</g>
<path class="st3" d="M105.5,209.2v12c0,8.6-5.7,15.8-13.4,17.8c1.4,0.4,2.9,0.6,4.5,0.6c9.9,0,17.9-8.3,17.9-18.4v-12H105.5z"/>
<g>
	<ellipse class="st4" cx="42.3" cy="119.2" rx="16.1" ry="16.6"/>
	<g>
		<ellipse class="st5" cx="43.8" cy="119.2" rx="13.1" ry="13.5"/>
	</g>
	<ellipse class="st4" cx="151.7" cy="119.2" rx="16.1" ry="16.6"/>
	<g>
		<ellipse class="st5" cx="150.2" cy="119.2" rx="13.1" ry="13.5"/>
	</g>
</g>
<g>
	<path class="st4" d="M97,202.2L97,202.2c-30.2,0-54.7-24.5-54.7-54.7V84.6c0-16.5,13.4-29.9,29.9-29.9h49.5
		c16.5,0,29.9,13.4,29.9,29.9v62.9C151.7,177.7,127.2,202.2,97,202.2z"/>
</g>
<g>
	<path class="st6" d="M124,168.1H70c1.7,7.9,6.3,14.5,12.5,18.6c1.8-5.5,6.8-9.4,12.7-9.4c6.5,0,12,4.8,13.2,11.2
		C116.2,184.7,122,177.2,124,168.1z"/>
</g>
<g>
	<path class="st7" d="M124,168.3c-2.9,3.8-13.9,6.6-27,6.6s-24.1-2.8-27-6.6H124z"/>
</g>
<g>
	<path class="st8" d="M95.2,177.3c-5.9,0-10.9,3.9-12.7,9.4c4.2,2.8,9.2,4.4,14.5,4.4c4.1,0,7.9-0.9,11.4-2.6
		C107.2,182.1,101.8,177.3,95.2,177.3z"/>
</g>
<g>
	<path class="st8" d="M100.5,153.3h-7.1c-1,0-1.8-0.8-1.8-1.8l0,0c0-1,0.8-1.8,1.8-1.8h7.1c1,0,1.8,0.8,1.8,1.8l0,0
		C102.4,152.5,101.5,153.3,100.5,153.3z"/>
</g>
<path class="st9" d="M151.7,127l-4.5,25.8l-11.7,9.2c-4.5-6.5-33.2-6.5-33.2-6.5l-5.4,3.7l-5.4-3.7c0,0-28.7,0-33.2,6.5l-11.7-9.2
	L42.3,127l-2.7,40.6c0,0,0,16.6,5.4,23c5.4,6.5,9.9,13.8,19.7,21.2c3.2,2.4,14.3,11.1,18.8,12.9s9,2.8,11.7,2.8
	c0.3,0,0.9-0.1,1.8-0.4c0.9,0.2,1.5,0.4,1.8,0.4c2.7,0,7.2-0.9,11.7-2.8s15.6-10.5,18.8-12.9c9.9-7.4,14.3-14.7,19.7-21.2
	c5.4-6.5,5.4-23,5.4-23L151.7,127z M118.1,190.2l-13.9,12c0,0-2.7-5.6-1.6-7.7c0.2-0.3,0-0.7-0.4-0.7l-5.2-0.4l-5.2,0.4
	c-0.4,0-0.5,0.4-0.4,0.7c1.1,2-1.6,7.7-1.6,7.7l-13.9-12c-4.5-2.8-9-21.2-8.1-24.9c0.9-3.7,28.7-1.8,28.7-1.8c0.1,0,0.3-0.1,0.4-0.1
	c0.2,0,0.3,0.1,0.4,0.1c0,0,27.8-1.8,28.7,1.8C127,169,122.5,187.4,118.1,190.2z"/>
<g>
	<line x1="50.4" y1="161.6" x2="50.4" y2="171.8"/>
	<line x1="50.4" y1="161.6" x2="50.4" y2="171.8"/>
	<line x1="44.1" y1="154.2" x2="44.1" y2="164.4"/>
	<line x1="45.9" y1="172.7" x2="45.9" y2="182.8"/>
	<line x1="53.1" y1="179.1" x2="53.1" y2="189.3"/>
	<line x1="58.5" y1="171.8" x2="58.5" y2="181.9"/>
	<line x1="62" y1="188.3" x2="62" y2="198.5"/>
	<line x1="65.6" y1="181" x2="65.6" y2="191.1"/>
	<line x1="71" y1="195.7" x2="71" y2="205.9"/>
	<line x1="77.3" y1="206.8" x2="77.3" y2="216.9"/>
	<line x1="87.1" y1="212.3" x2="87.1" y2="222.5"/>
	<line x1="97" y1="216" x2="97" y2="226.1"/>
	<line x1="61.1" y1="161.6" x2="61.1" y2="166.2"/>
	<line x1="61.1" y1="161.6" x2="61.1" y2="166.2"/>
	<line x1="66.5" y1="159.8" x2="66.5" y2="164.4"/>
	<line x1="71.9" y1="157.9" x2="71.9" y2="162.5"/>
	<line x1="78.2" y1="157" x2="78.2" y2="161.6"/>
	<line x1="84.5" y1="156.1" x2="84.5" y2="160.7"/>
	<line x1="91.6" y1="157.9" x2="91.6" y2="162.5"/>
</g>
<line x1="143.6" y1="161.6" x2="143.6" y2="171.8"/>
<line x1="143.6" y1="161.6" x2="143.6" y2="171.8"/>
<line x1="149.9" y1="154.2" x2="149.9" y2="164.4"/>
<line x1="148.1" y1="172.7" x2="148.1" y2="182.8"/>
<line x1="140.9" y1="179.1" x2="140.9" y2="189.3"/>
<line x1="135.5" y1="171.8" x2="135.5" y2="181.9"/>
<line x1="132" y1="188.3" x2="132" y2="198.5"/>
<line x1="128.4" y1="181" x2="128.4" y2="191.1"/>
<line x1="123" y1="195.7" x2="123" y2="205.9"/>
<line x1="116.7" y1="206.8" x2="116.7" y2="216.9"/>
<line x1="106.9" y1="212.3" x2="106.9" y2="222.5"/>
<line x1="132.9" y1="161.6" x2="132.9" y2="166.2"/>
<line x1="132.9" y1="161.6" x2="132.9" y2="166.2"/>
<line x1="127.5" y1="159.8" x2="127.5" y2="164.4"/>
<line x1="122.1" y1="157.9" x2="122.1" y2="162.5"/>
<line x1="115.8" y1="157" x2="115.8" y2="161.6"/>
<line x1="109.5" y1="156.1" x2="109.5" y2="160.7"/>
<line x1="102.4" y1="157.9" x2="102.4" y2="162.5"/>
<g>
	<g>
		<g>
			<ellipse cx="69.7" cy="117.4" rx="6.3" ry="6.5"/>
			<ellipse class="st7" cx="66.5" cy="115.1" rx="1.3" ry="3.2"/>
		</g>
		<g>
			<ellipse cx="124.3" cy="117.4" rx="6.3" ry="6.5"/>
			<ellipse class="st7" cx="121.2" cy="115.1" rx="1.3" ry="3.2"/>
		</g>
	</g>
	<path class="st10" d="M74.6,114.6c0,0,2.7,14.7-11.7,12.9"/>
	<path class="st10" d="M118.7,114.6c0,0-2.7,14.7,11.7,12.9"/>
</g>
<path class="st9" d="M97.3,19.4c6.2,0.2,11.6,2.7,18.9,5.3c6.3,2.3,13.8,3.1,19.4,7.2c7.7,5.6,12.3,14.3,14.2,23.6
	c0.6,2.8,1.7,20.7,3.7,21.4c-13.7-4.4-28.7-5.9-43-6.7c-12-0.7-24.1-0.4-36.1,0.8c-6.1,0.6-12.1,1.4-18.2,2.3c-3,0.5-6,1.2-9,1.9
	c-2.8,0.6-5.6,1.8-8.6,1.3c0.4-5.9,3-12.4,4-18.3c0.9-5.3,1-13.4,4-18c2.7-4.2,7.5-7.3,11.7-9.9c8.6-5.5,20.1-6.8,29.8-9.6
	C91.6,19.6,94.5,19.3,97.3,19.4z"/>
<path class="st11" d="M97.9,14.8c-5.2,0-9.4,3.2-9.4,7.1h18.8C107.3,17.9,103.1,14.8,97.9,14.8z"/>
<path class="st12" d="M39.3,75.7l-14,24.7c0,0,0,11.6,6.6,14.3c6.6,2.7,8.4,0,8.4,0s27.2-9.9,50.6-10.8
	c23.4-0.9,62.8,10.8,62.8,10.8s7.5-0.9,9.4-2.7c1.9-1.8,5.6-7.2,4.7-9.9c-0.9-2.7-14.8-26.5-14.8-26.5S105.8,56.8,39.3,75.7z"/>
<g>
	<path class="st13" d="M64,64c28-4.6,52.9-2,65.9,0.1V41.8H64V64z"/>
	<path class="st13" d="M64,41v0.5H130v-0.4C116.9,39,92,36.4,64,41z"/>
</g>
<g>
	<ellipse class="st14" cx="97" cy="49.8" rx="4.2" ry="10.2"/>
	<ellipse transform="matrix(0.9105 -0.4134 0.4134 0.9105 -11.8998 44.5537)" class="st14" cx="97" cy="49.8" rx="11.9" ry="3.6"/>
	<ellipse transform="matrix(0.4134 -0.9105 0.9105 0.4134 11.5778 117.5192)" class="st14" cx="97" cy="49.8" rx="3.6" ry="11.9"/>
</g>
<path d="M95.2,227.5c0.3,0,0.9-0.1,1.7-0.4c-1,0.2-1.8,0.3-2.6,0.3C94.6,227.5,94.9,227.5,95.2,227.5z"/>
<path d="M91.6,227.1c0,0,0.1,0,0.1,0C91.7,227.2,91.7,227.1,91.6,227.1C91.6,227.1,91.6,227.1,91.6,227.1z"/>
<path d="M96.9,227.2c0,0,0.1,0,0.1,0C97,227.1,97,227.1,96.9,227.2C97,227.1,96.9,227.2,96.9,227.2z"/>
<g class="st3">
	<path d="M167.8,119.2c0-3.2-0.9-6.3-2.5-8.8l-2.3,4.9l-0.2,0.1c0.3,1.2,0.5,2.5,0.5,3.8c0,3.7-1.5,7-3.8,9.5
		c-1.8,2.7-4.4,4.8-7.3,6l0.1,1.1C160.9,135.5,167.8,128.2,167.8,119.2z"/>
	<g>
		<path d="M162.4,119.2c0,3.5-1.1,6.8-2.9,9.5c2.3-2.4,3.8-5.8,3.8-9.5c0-1.3-0.2-2.6-0.5-3.8l-0.8,0.2
			C162.3,116.8,162.4,118,162.4,119.2z"/>
	</g>
	<g>
		<path d="M146.9,135.8l0.9,13.7l2.4-13.7c-0.4,0-0.8-0.1-1.2-0.2C148.3,135.7,147.6,135.8,146.9,135.8z"/>
	</g>
	<g>
		<path d="M150.2,135.7l0.1-0.4c-0.4,0.1-0.8,0.2-1.3,0.3C149.4,135.6,149.8,135.7,150.2,135.7z"/>
	</g>
	<path d="M151.7,149.6c0,4.8-0.6,9.4-1.8,13.8v1v-1c-0.3,1.1-0.6,2.2-1,3.2l0.1,1c0,0,0,5-0.9,10.6v4.6v-4.6
		c-0.7,4.6-2.1,9.5-4.5,12.4c-5.4,6.5-9.9,13.8-19.7,21.2c-3.2,2.4-14.3,11.1-18.8,12.9c-2.8,1.2-5.7,2-8,2.4
		c0.9,0.2,1.5,0.4,1.8,0.4c2.7,0,7.2-0.9,11.7-2.8s15.6-10.5,18.8-12.9c9.9-7.4,14.3-14.7,19.7-21.2c5.4-6.5,5.4-23,5.4-23
		l-2.1-31.8c-0.2,0-0.4,0-0.6,0V149.6z"/>
	<path d="M151.7,134.8v1c0.2,0,0.4,0,0.6,0l-0.1-1.1C152,134.7,151.8,134.8,151.7,134.8z"/>
	<path d="M147.8,149.5l1.1,17.2c0.4-1.1,0.7-2.1,1-3.2v-9.2v9.2c1.2-4.4,1.8-9,1.8-13.8v-13.8c-0.5,0-1,0-1.5-0.1L147.8,149.5z"/>
	<path d="M150.2,135.7c0.5,0,1,0.1,1.5,0.1v-1c-0.5,0.2-0.9,0.3-1.4,0.4L150.2,135.7z"/>
	<path d="M103.4,21.8c2.4,0.8,5,1.8,7.8,2.8c6.3,2.3,13.8,3.1,19.3,7.2c7.7,5.6,12.3,14.3,14.2,23.6c0.3,1.4,0.7,6.9,1.4,11.9
		c1.5,2.3,2.7,4.7,3.5,7.4c1.7,0.6,2.6,0.9,2.6,0.9s0.2,0.3,0.5,0.8c0.7,0.2,1.1,0.3,1.1,0.3c-2.1-0.7-3.1-18.6-3.7-21.4
		c-1.9-9.3-6.5-17.9-14.2-23.6c-5.5-4.1-13-4.9-19.3-7.2c-3.8-1.4-7-2.7-10.2-3.6c0,0.3,0.1,0.5,0.1,0.8H103.4z"/>
	<path d="M150.4,74.7c-0.8-2.6-2-5.1-3.5-7.4c0.3,2.5,0.7,4.9,1.1,6.6C148.9,74.2,149.7,74.5,150.4,74.7z"/>
	<path d="M101.5,19.7c1.9,0.3,3.8,0.8,5.8,1.4c-0.5-3.5-4.5-6.3-9.3-6.3c-0.9,0-1.8,0.1-2.7,0.3C98.2,15.7,100.5,17.4,101.5,19.7z"
		/>
	<path d="M101.8,21c0.8,0.2,1.6,0.5,2.4,0.8h3c0-0.3,0-0.5-0.1-0.8c-1.9-0.6-3.8-1.1-5.8-1.4C101.6,20.1,101.8,20.6,101.8,21z"/>
	<path d="M151.7,82.7c4.1,7.3,10,17.8,10.6,19.5c0.3,0.8,0.1,1.9-0.2,3c1.4,0.8,2.8,1.6,4.3,2.5c1.1-2,1.9-4,1.4-5.4
		c-0.8-2.4-11.8-21.5-14.2-25.7c-0.7-0.2-1.6-0.4-2.8-0.8C151.2,77.9,151.6,80.3,151.7,82.7z"/>
	<path d="M149.2,76.8c0,0-0.4-0.1-1.1-0.3c0.7,1.2,2,3.5,3.6,6.2c-0.1-2.4-0.4-4.8-1-7c-0.7-0.2-1.5-0.4-2.4-0.6
		C148.6,76.1,148.9,76.7,149.2,76.8z"/>
	<path d="M150.4,74.7c0.1,0.3,0.2,0.7,0.3,1c1.2,0.3,2.2,0.6,2.8,0.8c-0.3-0.5-0.5-0.8-0.5-0.8S152.1,75.3,150.4,74.7z"/>
	<path d="M148.3,75.1c0.9,0.2,1.7,0.4,2.4,0.6c-0.1-0.3-0.2-0.7-0.3-1c-0.7-0.2-1.5-0.5-2.4-0.8C148.1,74.4,148.2,74.8,148.3,75.1z"
		/>
	<path d="M165.3,110.4l1.2-2.6c-0.1-0.1-0.2-0.1-0.3-0.2c-0.4,0.8-0.9,1.5-1.4,2.1C165.1,110,165.2,110.2,165.3,110.4z"/>
	<path d="M163,112c-0.3,0.3-0.7,0.5-1.2,0.8c0.4,0.8,0.8,1.7,1,2.6l0.2-0.1l2.3-4.9c-0.1-0.2-0.3-0.4-0.4-0.6
		C164.2,110.7,163.5,111.5,163,112z"/>
	<path d="M161.3,113c0.3,0.8,0.6,1.7,0.8,2.5l0.8-0.2c-0.3-0.9-0.6-1.8-1-2.6C161.6,112.9,161.4,113,161.3,113z"/>
	<path d="M161.6,106.2c1.3,1,2.4,2.2,3.3,3.6c0.5-0.7,0.9-1.4,1.4-2.1c-1.4-0.9-2.8-1.7-4.3-2.5
		C161.9,105.5,161.8,105.8,161.6,106.2z"/>
	<path d="M161.2,107.8l-1.2,2.5c0.7,0.8,1.3,1.6,1.7,2.5c0.5-0.2,1-0.5,1.2-0.8c0.5-0.5,1.2-1.3,1.9-2.3c-0.9-1.4-2-2.6-3.3-3.6
		c-0.2,0.5-0.5,1-0.7,1.4C161,107.7,161.1,107.7,161.2,107.8z"/>
	<path d="M160,110.4c0.5,0.8,1,1.7,1.3,2.6c0.2-0.1,0.3-0.1,0.5-0.2c-0.5-0.9-1.1-1.8-1.7-2.5L160,110.4z"/>
	<path d="M152,132.5l0.1,2.1c3-1.2,5.5-3.3,7.3-6C157.6,130.7,154.9,132.1,152,132.5z"/>
	<path d="M149,135.6c-0.7-0.1-1.5-0.3-2.2-0.5l0,0.7C147.6,135.8,148.3,135.7,149,135.6z"/>
	<path d="M147.5,132.4c-0.3,0.1-0.6,0.1-0.9,0.1l0.2,2.5c0.7,0.2,1.4,0.4,2.2,0.5c0.4-0.1,0.8-0.2,1.3-0.3l0.5-2.6
		c-0.2,0-0.3,0-0.5,0C149.3,132.7,148.4,132.6,147.5,132.4z"/>
	<path d="M147.5,132.4c0.9,0.2,1.8,0.3,2.7,0.3c0.2,0,0.3,0,0.5,0l0.3-1.5C149.9,131.7,148.8,132.1,147.5,132.4z"/>
	<path d="M151.7,132.6v2.3c0.2-0.1,0.3-0.1,0.5-0.2l-0.1-2.1C151.9,132.6,151.8,132.6,151.7,132.6z"/>
	<path d="M151.7,132.6c0.1,0,0.2,0,0.4-0.1l-0.1-2c-0.1,0.1-0.2,0.1-0.2,0.1V132.6z"/>
	<path d="M150.7,132.7l-0.5,2.6c0.5-0.1,1-0.3,1.4-0.4v-2.3C151.4,132.6,151,132.6,150.7,132.7z"/>
	<path d="M151,131.1l-0.3,1.5c0.3,0,0.7,0,1-0.1v-1.9C151.4,130.8,151.2,131,151,131.1z"/>
	<g>
		<path d="M146.7,132.5c0.3,0,0.6-0.1,0.9-0.1c-0.3-0.1-0.6-0.2-0.9-0.2L146.7,132.5z"/>
	</g>
	<g>
		<path d="M146.3,116.6V127l0.3,5.1c0.3,0.1,0.6,0.2,0.9,0.2c1.2-0.3,2.4-0.7,3.4-1.3l0.7-4.1v-10.2l-3.4,0.8
			C148.3,117.7,147.6,117.3,146.3,116.6z"/>
	</g>
	<g>
		<path d="M151.7,130.7c0.1,0,0.2-0.1,0.2-0.1l-0.2-3.5V130.7z"/>
	</g>
	<path d="M147.2,135.5c0.2,0-0.5,0.3-0.3,0.3l0-0.7c-0.2-0.1-0.4-0.1-0.5-0.2L147.2,135.5z"/>
	<path d="M147.2,137.3c0.2,0.1,1.6-1,1.8-0.9l-2.3-3.9c-0.1,0-0.2,0-0.4,0.1L147.2,137.3z"/>
	<path d="M146.3,132.1v0.5c0.1,0,0.2,0,0.4-0.1l0-0.4C146.5,132.1,146.4,132.1,146.3,132.1z"/>
	<path d="M146.6,132.1l-0.3-5.1v5C146.4,132.1,146.5,132.1,146.6,132.1z"/>
	<path d="M130,55.4V41.8h-5.4v12.9C126.4,54.8,128.2,55,130,55.4z"/>
	<path d="M124.6,55.4c1.9,0.4,3.7,1.1,5.4,1.9v-1.9c-1.7-0.4-3.5-0.7-5.4-0.7V55.4z"/>
	<path d="M124.6,41.5h5.4v-0.4c-8.2-1.3-21.1-2.8-36.5-2.6c13,0.2,23.9,1.5,31.1,2.6V41.5z"/>
	<path d="M104.3,21.8c-0.8-0.3-1.6-0.6-2.4-0.8c0,0.3,0.1,0.5,0.1,0.8H104.3z"/>
	<path d="M145,74.7c1.7,0.6,2.6,0.9,2.6,0.9s0.2,0.3,0.5,0.8c0.7,0.2,1.1,0.3,1.1,0.3c-0.3-0.1-0.7-0.7-1-1.7
		c-1-0.2-2.2-0.5-3.4-0.8C144.9,74.5,144.9,74.6,145,74.7z"/>
	<path d="M148.3,75.1c-0.1-0.4-0.2-0.7-0.3-1.2c-1-0.3-2.2-0.7-3.6-1c0.2,0.5,0.4,1,0.5,1.4C146.1,74.6,147.2,74.9,148.3,75.1z"/>
	<path d="M124.6,63.3c2,0.3,3.8,0.5,5.4,0.8v-6.8c-1.7-0.8-3.5-1.4-5.4-1.9V63.3z"/>
	<path d="M144.9,74.4c-0.9-0.2-1.8-0.4-2.8-0.6c1.1,0.3,2.1,0.6,2.9,0.9C144.9,74.6,144.9,74.5,144.9,74.4z"/>
	<path d="M96,67.3c21.9,0.3,38.1,4.1,46.1,6.5c1,0.2,1.9,0.4,2.8,0.6c-0.2-0.5-0.3-1-0.5-1.4C134.9,70.4,118,67,96,67.3z"/>
	<path d="M93.5,61.4c13,0.2,23.9,1.5,31.1,2.6v-0.8C116.6,62.2,105.9,61.3,93.5,61.4z"/>
	<path d="M101.5,19.7c-0.9-0.1-1.9-0.2-2.8-0.3c-1.2,0-2.5,0-3.8,0.1c2.4,0.2,4.7,0.8,7,1.5C101.8,20.6,101.6,20.1,101.5,19.7z"/>
	<path d="M151.7,102.5c0.1,0,0.1,0.1,0.2,0.1c3.7,0,7.1,1.4,9.7,3.5c0.2-0.3,0.3-0.7,0.4-1c-3.5-1.9-6.9-3.6-10.4-5.2V102.5z"/>
	<path d="M160.9,107.6c0.3-0.5,0.5-1,0.7-1.4c-2.7-2.2-6.1-3.5-9.7-3.5C154.9,104.1,157.9,105.8,160.9,107.6z"/>
	<path d="M151.7,102.5V100c-1.8-0.8-3.6-1.6-5.4-2.3v2.3C148.1,100.8,149.9,101.6,151.7,102.5z"/>
	<path d="M91.4,104c12,0.4,26.6,3.2,38.1,5.9c-4.3-1.4-9.2-2.8-14.6-4C106.6,104.6,98.3,103.7,91.4,104z"/>
	<path d="M96.6,89c15.5,0.3,32.5,3.3,49.7,11v-2.3C128.9,90.9,112,88.6,96.6,89z"/>
	<path d="M145,74.7c0.1,0.3,0.2,0.7,0.3,1c1.2,0.3,2.2,0.6,2.8,0.8c-0.3-0.5-0.5-0.8-0.5-0.8S146.7,75.3,145,74.7z"/>
	<path d="M142.1,73.8c-10.3-2-26.5-4.3-46.6-4.1c24.3,0.3,42.2,4.1,49.8,6c-0.1-0.3-0.2-0.7-0.3-1C144.2,74.4,143.2,74.1,142.1,73.8
		z"/>
	<path d="M160,110.3l1.2-2.5c-0.1-0.1-0.2-0.1-0.3-0.2c-0.4,0.7-0.9,1.5-1.4,2.1C159.7,109.9,159.9,110.1,160,110.3z"/>
	<path d="M159.5,109.8c0.1,0.2,0.3,0.4,0.4,0.6l0.1-0.1C159.9,110.1,159.7,109.9,159.5,109.8C159.5,109.8,159.5,109.8,159.5,109.8z"
		/>
	<path d="M151.7,116.8l0.3-0.1c-0.1,0-0.2-0.1-0.3-0.1V116.8z"/>
	<path d="M146.3,114.2v2.5c1.3,0.7,2,1,2,1l3.4-0.8v-0.2C150.4,116,148.6,115.1,146.3,114.2z"/>
	<path d="M146.3,114.2L146.3,114.2c2.3,1,4.1,1.8,5.4,2.5v-2.4c-1.8,0.4-3.4,0.5-3.4,0.5S147.6,114.5,146.3,114.2z"/>
	<path d="M129.5,109.8c1,0.3,2,0.7,2.9,1c0.1-0.1,0.1-0.2,0.2-0.3C131.5,110.3,130.5,110.1,129.5,109.8z"/>
	<path d="M132.5,110.6c-0.1,0.1-0.1,0.2-0.2,0.3c0.6,0.2,1.2,0.4,1.8,0.6c0.1-0.1,0.2-0.3,0.3-0.4
		C133.8,110.9,133.2,110.7,132.5,110.6z"/>
	<path d="M137.3,111.7c-0.9-0.2-1.8-0.5-2.8-0.7c-0.1,0.1-0.2,0.3-0.3,0.4c1,0.4,1.9,0.7,2.8,1C137,112.3,137.2,112,137.3,111.7z"/>
	<path d="M136.9,112.5c0.6,0.2,1.1,0.4,1.6,0.6c0.2-0.3,0.3-0.7,0.5-1c-0.6-0.1-1.2-0.3-1.8-0.5C137.2,112,137,112.3,136.9,112.5z"
		/>
	<path d="M139.1,112.2c-0.2,0.3-0.4,0.6-0.5,1c3.4,1.4,6.1,2.6,7.7,3.5v-2.5c0,0,0,0,0,0C144.7,113.7,142.2,113,139.1,112.2z"/>
	<path d="M146.3,114.1C146.3,114.2,146.3,114.2,146.3,114.1L146.3,114.1C146.3,114.2,146.3,114.2,146.3,114.1z"/>
	<path d="M151.9,102.6c-0.1,0-0.1-0.1-0.2-0.1v0.1C151.7,102.6,151.8,102.6,151.9,102.6z"/>
	<path d="M159.5,109.8C159.5,109.7,159.5,109.7,159.5,109.8C159.5,109.7,159.5,109.7,159.5,109.8
		C159.5,109.8,159.5,109.8,159.5,109.8z"/>
	<path d="M151.7,114.2C151.7,114.2,151.7,114.2,151.7,114.2C151.7,114.2,151.7,114.2,151.7,114.2L151.7,114.2z"/>
	<path d="M146.3,112.7v1.5c1.3,0.4,2,0.6,2,0.6s-2.1,3.6-0.2,3.3l3.6-3.8C150.4,113.8,148.6,113.3,146.3,112.7z"/>
	<path d="M133.3,109.5c-5.7-1.3-12-2.6-18.4-3.6c5.4,1.2,10.3,2.5,14.6,4c1.1,0.2,2.1,0.5,3.1,0.7
		C132.8,110.2,133,109.8,133.3,109.5z"/>
	<path d="M133.3,109.5c0,0,0.1-0.1,0.1-0.1c-11.1-3.5-26-6.8-42.4-6.4c8.6,0.2,16.7,1.3,24,2.9C121.3,106.9,127.6,108.2,133.3,109.5
		z"/>
	<path d="M132.5,110.6c0.7,0.2,1.3,0.3,1.9,0.5c0.3-0.4,0.6-0.7,0.9-1c-0.2-0.1-0.3-0.1-0.5-0.2c-0.5-0.1-1-0.2-1.6-0.4
		C133,109.8,132.8,110.2,132.5,110.6z"/>
	<path d="M134.8,109.8c-0.5-0.2-1-0.3-1.5-0.5c0,0-0.1,0.1-0.1,0.1C133.8,109.6,134.3,109.7,134.8,109.8z"/>
	<path d="M135.4,110c-0.2,0-0.4-0.1-0.5-0.1C135,109.9,135.2,109.9,135.4,110C135.3,110,135.4,110,135.4,110z"/>
	<path d="M135.3,110c-0.3,0.3-0.6,0.7-0.9,1c1,0.2,1.9,0.5,2.8,0.7c0.2-0.3,0.3-0.6,0.5-0.9C137,110.6,136.2,110.3,135.3,110z"/>
	<path d="M137.8,110.8c-0.2,0.3-0.3,0.6-0.5,0.9c0.6,0.2,1.2,0.3,1.8,0.5c0.1-0.2,0.3-0.5,0.5-0.7C139,111.3,138.4,111,137.8,110.8z
		"/>
	<path d="M139.1,112.2c3.1,0.8,5.6,1.5,7.2,1.9c-1.9-0.8-4.2-1.7-6.7-2.7C139.4,111.7,139.2,112,139.1,112.2z"/>
	<path d="M137.8,110.8c0.1-0.1,0.1-0.2,0.2-0.3c-0.8-0.2-1.7-0.4-2.6-0.6c0,0,0,0,0,0C136.2,110.3,137,110.6,137.8,110.8z"/>
	<path d="M139.9,111c-0.6-0.2-1.3-0.3-1.9-0.5c-0.1,0.1-0.1,0.2-0.2,0.3c0.6,0.2,1.2,0.4,1.8,0.6C139.6,111.3,139.7,111.2,139.9,111
		z"/>
	<path d="M139.5,111.5c2.6,0.9,4.8,1.9,6.7,2.7c0,0,0,0,0,0v-1.5c-1.9-0.5-4-1.1-6.4-1.6C139.7,111.2,139.6,111.3,139.5,111.5z"/>
</g>
<path class="st3" d="M146.3,123.8c0,0-51.1-20.5-93.2-1.2c-6.3,2.9,1.7-1.1-10.8,4.6l-2.7-12.9l53.8-16.6l40.3,1.8l12.5,12.9
	L146.3,123.8z"/>
<path class="st11" d="M27.1,108.7l3.4,8.6l7.1,3.5c53.9-37.5,114.7-1.6,114.7-1.6l9.2-2.4l3.5-7.9C95.8,64.1,27.1,108.7,27.1,108.7z
	"/>
</svg>
